<svg width="323" height="351" viewBox="0 0 323 351" fill="none" xmlns="http://www.w3.org/2000/svg">
<path d="M0.0382942 192.239C3.21412 120.698 20.8135 49.7949 79.434 19.9326C107.56 4.92849 138.245 -1.76809 168.944 0.398109C199.643 2.56431 229.472 13.5309 255.957 32.3885C278.74 49.455 297.048 73.9651 308.759 103.077C320.469 132.189 325.102 164.71 322.12 196.87C317.995 226.088 308.146 253.693 293.392 277.386C278.638 301.08 259.406 320.177 237.299 333.087C141.892 392.971 13.4031 285.18 56.1445 154.712C60.108 141.82 66.1577 130.009 73.9412 119.966C81.7247 109.924 91.0866 101.851 101.481 96.2182C111.875 90.5853 123.095 87.5049 134.485 87.1565C145.876 86.8081 157.21 89.1987 167.828 94.189C205.805 110.158 239.02 161.738 212.687 211.722C197.998 239.508 151.684 266.176 133.291 227.691C119.397 197.988 145.465 178.985 166.505 178.985C170.871 168.924 164.784 152.636 151.816 145.29C125.351 131.078 102.326 163.974 98.886 194.315C95.1809 231.044 106.826 267.614 139.378 277.355C199.719 295.719 271.704 239.348 251.061 159.024C231.609 82.0525 177.488 40.2134 112.251 62.0911C50.5871 82.3719 42.7798 137.625 19.6227 199.266C15.256 210.764 -0.887989 204.855 0.0382942 192.239Z" fill="#FCB45E"/>
</svg>
