<svg width="283" height="278" viewBox="0 0 283 278" fill="none" xmlns="http://www.w3.org/2000/svg">
<path d="M0.0335519 152.664C2.81609 95.8502 18.236 39.5438 69.597 15.8292C94.2399 3.91388 121.125 -1.4041 148.022 0.316152C174.919 2.03641 201.054 10.7453 224.26 25.7208C244.221 39.2739 260.262 58.7382 270.522 81.857C280.783 104.976 284.842 130.802 282.229 156.342C278.615 179.544 269.985 201.466 257.058 220.282C244.131 239.098 227.282 254.264 207.912 264.516C124.32 312.072 11.7433 226.471 49.1916 122.862C52.6643 112.624 57.9648 103.244 64.7844 95.2694C71.604 87.2943 79.8065 80.8834 88.9137 76.4101C98.0209 71.9369 107.851 69.4906 117.831 69.214C127.811 68.9373 137.742 70.8358 147.044 74.7987C180.319 87.4803 209.42 128.442 186.348 168.135C173.478 190.201 132.9 211.38 116.784 180.817C104.611 157.229 127.45 142.138 145.885 142.138C149.711 134.149 144.378 121.213 133.016 115.38C109.828 104.093 89.6545 130.217 86.6401 154.312C83.3938 183.48 93.5964 212.521 122.117 220.257C174.986 234.841 238.056 190.075 219.97 126.286C202.927 65.1607 155.508 31.9348 98.35 49.3087C44.3224 65.4143 37.482 109.293 17.1927 158.244C13.3667 167.375 -0.778022 162.682 0.0335519 152.664Z" fill="#F26749"/>
</svg>
