<svg width="340" height="397" viewBox="0 0 340 397" fill="none" xmlns="http://www.w3.org/2000/svg">
<path d="M171.464 0C124.231 2.54099 83.3508 10.9525 47.7185 41.1815C10.429 72.7248 -4.07261 117.586 0.968385 173.05C5.45694 220.891 25.0684 259.443 48.8232 295.017C80.9986 344.933 125.75 379.251 175.538 392.188C194.929 397.325 214.905 397.83 234.442 393.678C251.657 390.454 267.861 381.37 281.33 367.392C313.605 334.711 334.362 287.138 339.06 235.085C343.549 185.229 331.602 140.543 310.817 98.9232C277.601 31.8061 227.468 3.24195 171.464 0Z" fill="#89C97B"/>
<path d="M294.796 137.914C301.809 155.541 305.756 174.874 306.372 194.604C306.987 214.334 304.256 234.002 298.364 252.278C292.472 270.554 283.556 287.011 272.218 300.536C260.88 314.062 247.386 324.341 232.647 330.678C166.907 361.608 88.0466 320.952 58.2149 241.919C51.0262 223.907 47.0312 204.118 46.5106 183.939C45.9899 163.761 48.9561 143.682 55.201 125.112C61.4458 106.543 70.8181 89.9326 82.6597 76.4473C94.5014 62.9621 108.525 52.9287 123.748 47.0514C136.748 41.1275 150.471 38.1614 164.283 38.2894C221.599 37.9389 272.008 77.0175 294.796 137.914ZM145.638 62.7354C69.6783 80.7852 39.2943 182.512 87.4254 259.092C103.188 283.831 124.405 302.046 148.365 311.411C172.326 320.775 197.943 320.863 221.944 311.664C279.812 287.832 305.569 210.463 276.566 143.083C253.225 88.4081 214.9 63.0859 167.322 60.1944C160.06 60.4902 152.82 61.3387 145.638 62.7354Z" fill="#F26749"/>
<path d="M105.794 221.416C100.657 212.39 97.2143 201.995 95.7272 191.023C94.2402 180.051 94.7485 168.793 97.2134 158.108C99.6783 147.424 104.035 137.595 109.95 129.373C115.865 121.15 123.183 114.751 131.344 110.664C152.389 99.37 175.907 97.899 197.725 106.512C219.543 115.125 238.252 133.266 250.533 157.716C269.868 197.584 258.128 244.373 224.844 264.701C212.752 272.051 199.435 275.569 186.035 274.952C152.544 273.287 124.646 257.165 105.794 221.416ZM220.977 242.445C225.673 239.316 229.825 235.021 233.187 229.815C236.548 224.61 239.051 218.599 240.545 212.142C242.04 205.685 242.496 198.912 241.886 192.226C241.277 185.541 239.615 179.079 236.998 173.225C224.084 141.069 201.158 128.276 174.848 123.895C161.485 121.489 147.864 124.559 135.971 132.657C130.947 135.653 126.468 139.941 122.82 145.249C119.171 150.558 116.432 156.77 114.776 163.493C113.121 170.216 112.584 177.302 113.202 184.302C113.819 191.302 115.576 198.063 118.362 204.155C130.239 233.771 159.104 253.923 192.526 253.047C202.569 252.665 212.366 249.014 220.977 242.445Z" fill="white"/>
</svg>
