<svg width="325" height="325" viewBox="0 0 325 325" fill="none" xmlns="http://www.w3.org/2000/svg">
<path d="M163.9 0C118.75 2.083 79.6735 8.97846 45.6133 33.759C9.96891 59.617 -3.89293 96.3928 0.925662 141.86C5.21619 181.078 23.9625 212.682 46.6693 241.844C77.4251 282.763 120.202 310.895 167.794 321.501C186.33 325.712 205.424 326.126 224.099 322.722C240.554 320.079 256.043 312.632 268.919 301.174C299.769 274.383 319.611 235.385 324.102 192.714C328.392 151.844 316.973 115.212 297.104 81.0935C265.354 26.0735 217.432 2.65763 163.9 0Z" fill="#FCB45E"/>
<path d="M281.791 113.056C288.494 127.507 292.267 143.355 292.855 159.529C293.444 175.703 290.833 191.826 285.201 206.808C279.569 221.79 271.046 235.281 260.208 246.368C249.371 257.456 236.472 265.883 222.383 271.077C159.543 296.433 84.1621 263.104 55.6466 198.316C48.7749 183.551 44.9563 167.328 44.4585 150.786C43.9608 134.245 46.7962 117.785 52.7656 102.562C58.7349 87.3399 67.6936 73.7234 79.0129 62.6687C90.3321 51.614 103.737 43.389 118.288 38.571C130.715 33.7149 143.832 31.2833 157.035 31.3883C211.822 31.101 260.008 63.1361 281.791 113.056ZM139.213 51.4282C66.6041 66.2247 37.5606 149.617 83.5683 212.394C98.6353 232.674 118.916 247.606 141.82 255.283C164.723 262.959 189.21 263.032 212.152 255.491C267.467 235.954 292.088 172.53 264.364 117.294C242.054 72.4737 205.419 51.7155 159.94 49.3452C152.999 49.5876 146.077 50.2832 139.213 51.4282Z" fill="#F26749"/>
<path d="M101.127 181.509C96.2168 174.11 92.9255 165.588 91.5041 156.593C90.0826 147.599 90.5685 138.37 92.9246 129.611C95.2808 120.853 99.4451 112.795 105.099 106.055C110.754 99.3143 117.748 94.0687 125.55 90.7185C145.666 81.4598 168.146 80.2539 189.002 87.3147C209.858 94.3755 227.741 109.247 239.48 129.29C257.962 161.972 246.74 200.328 214.925 216.992C203.366 223.017 190.636 225.901 177.828 225.395C145.814 224.031 119.147 210.814 101.127 181.509ZM211.228 198.747C215.717 196.182 219.686 192.661 222.899 188.394C226.112 184.126 228.504 179.199 229.933 173.906C231.362 168.612 231.798 163.06 231.215 157.58C230.632 152.099 229.043 146.802 226.542 142.003C214.198 115.643 192.284 105.156 167.135 101.564C154.36 99.5924 141.341 102.109 129.972 108.747C125.17 111.203 120.889 114.718 117.401 119.07C113.914 123.421 111.295 128.514 109.713 134.026C108.13 139.537 107.618 145.346 108.208 151.084C108.798 156.822 110.477 162.364 113.14 167.359C124.493 191.636 152.085 208.157 184.033 207.439C193.632 207.125 202.997 204.132 211.228 198.747Z" fill="white"/>
</svg>
