<svg width="263" height="68" viewBox="0 0 263 68" fill="none" xmlns="http://www.w3.org/2000/svg">
<path d="M71.9356 47.3435C72.4764 48.174 73.0969 48.9507 73.7884 49.6626C74.3692 50.2321 74.8739 50.7124 75.3163 51.1104C75.7044 51.4555 76.0501 51.8447 76.3464 52.27C76.6154 52.6942 76.7481 53.1895 76.7267 53.6903C76.7267 54.628 76.0745 55.3782 74.7701 55.9408C73.1947 56.5415 71.5136 56.8215 69.827 56.7642C68.1737 56.8044 66.5243 56.5868 64.9391 56.1192C64.602 56.0438 64.2849 55.8984 64.0085 55.6926C63.7321 55.4867 63.5028 55.2252 63.3356 54.9251C63.1684 54.625 63.0672 54.2932 63.0385 53.9514C63.0098 53.6097 63.0543 53.2658 63.1692 52.9424C63.259 52.6094 63.2848 52.2625 63.2452 51.92C63.1899 51.4187 63.0594 50.9285 62.8581 50.4654C62.5442 49.7225 62.1226 49.029 61.6067 48.407C61.4309 48.1601 61.2318 47.9303 61.0122 47.7209L59.7055 46.3006L58.3988 44.8391L57.666 44.0569V47.1308C57.6538 47.7057 57.7945 48.2737 58.0739 48.7775C58.3504 49.2647 58.6408 49.7518 58.9657 50.2321C59.2982 50.7153 59.5984 51.2196 59.8645 51.7417C60.1489 52.3006 60.2913 52.9201 60.2793 53.5462C60.2918 54.0885 60.088 54.6137 59.7124 55.0077C59.2787 55.4386 58.7479 55.7608 58.1638 55.9477C57.4245 56.2029 56.6596 56.3778 55.8823 56.4692C54.0449 56.6813 52.1889 56.6813 50.3515 56.4692C49.5743 56.3809 48.8092 56.2083 48.07 55.9545C47.4847 55.7692 46.9518 55.4495 46.5144 55.0214C46.1363 54.6285 45.93 54.1031 45.9406 53.5599C45.9213 52.9436 46.0517 52.3317 46.3208 51.776C46.5905 51.2545 46.8808 50.7536 47.185 50.2596C47.4892 49.7656 47.7865 49.2921 48.0562 48.805C48.3334 48.3006 48.4717 47.7326 48.4571 47.1582V30.2312C48.4652 29.6567 48.3247 29.0898 48.0492 28.5845C47.7796 28.1042 47.4823 27.617 47.1781 27.1298C46.8739 26.6427 46.5767 26.1487 46.307 25.6203C46.0253 25.0604 45.883 24.4416 45.8922 23.8158C45.8816 23.2759 46.0852 22.7535 46.4591 22.3612C46.9017 21.9365 47.4326 21.6133 48.0147 21.4143C48.7511 21.1603 49.5141 20.99 50.2892 20.9066C51.2065 20.7914 52.1301 20.7341 53.0547 20.735H54.6171C55.2117 20.735 55.7924 20.7831 56.3317 20.8105C56.9816 20.8448 57.6383 20.8654 58.3435 20.8654C60.2931 20.8582 62.2386 21.0444 64.1509 21.4212C65.9777 21.7642 67.739 22.3893 69.3707 23.2737C70.8908 24.099 72.188 25.2758 73.1524 26.7044C74.1547 28.2832 74.6602 30.1225 74.6042 31.9877C74.6679 34.0596 74.0703 36.0984 72.8966 37.813C71.7561 39.4494 70.2786 40.8269 68.5618 41.8544L70.8778 45.6282C71.5139 46.6917 71.901 47.2543 71.9356 47.3435ZM59.6502 41.5731C60.4799 41.588 61.2882 41.3109 61.9317 40.7909C62.623 40.2161 63.1778 39.4968 63.5564 38.6844C64.0184 37.7173 64.3463 36.6925 64.5312 35.638C64.7476 34.4632 64.8541 33.2711 64.8492 32.0769C64.8631 30.9354 64.6974 29.7988 64.3583 28.708C64.0481 27.7473 63.5578 26.8534 62.9134 26.0732C62.3045 25.3261 61.5311 24.7276 60.6527 24.3235C59.6896 23.8901 58.6401 23.679 57.583 23.706V39.5833C57.5689 39.9283 57.6451 40.2711 57.8043 40.5782C57.9259 40.8197 58.1036 41.029 58.3228 41.1888C58.5137 41.3369 58.7358 41.4401 58.9727 41.4907C59.1938 41.5479 59.4217 41.5755 59.6502 41.5731Z" fill="#F26749"/>
<path d="M90.5677 47.1925C90.562 47.7676 90.7049 48.3345 90.9825 48.8392C91.259 49.3195 91.5425 49.7998 91.8536 50.287C92.1647 50.7742 92.4481 51.2682 92.7247 51.7691C93.0082 52.3207 93.1484 52.9339 93.1326 53.553C93.1326 54.7332 92.4804 55.5405 91.1761 55.9751C89.5858 56.4666 87.9257 56.6984 86.2605 56.6612C84.5867 56.6915 82.9185 56.46 81.3173 55.9751C80.0107 55.5428 79.3608 54.74 79.3608 53.553C79.3401 52.9343 79.4781 52.3204 79.7618 51.7691C80.0337 51.2659 80.3241 50.7719 80.6329 50.287C80.9371 49.7998 81.2205 49.3195 81.4971 48.8324C81.7726 48.3271 81.913 47.7601 81.905 47.1857V39.0412C81.9268 38.5504 81.7806 38.0667 81.4902 37.6689C81.2335 37.3604 80.9563 37.0693 80.6605 36.7975C80.3424 36.5207 80.0508 36.2152 79.7894 35.8849C79.4856 35.4314 79.3398 34.8915 79.3746 34.348C79.3923 34.0275 79.4792 33.7146 79.6295 33.4305C79.7798 33.1464 79.99 32.8977 80.2457 32.7012C80.9036 32.1213 81.6565 31.6572 82.4719 31.329C84.4042 30.5443 86.4681 30.1276 88.5558 30.1008C88.8375 30.0911 89.1175 30.1482 89.3724 30.2676C89.6274 30.3869 89.8499 30.565 90.0215 30.7869C90.3458 31.1293 90.5391 31.5735 90.5677 32.0426V47.1925ZM86.2536 28.1316C85.4479 28.1393 84.6466 28.0141 83.8823 27.761C83.1808 27.5318 82.5205 27.1937 81.9257 26.7593C81.3943 26.3676 80.9515 25.8698 80.626 25.2978C80.3149 24.747 80.1551 24.1247 80.1628 23.4933C80.157 22.8542 80.3139 22.224 80.619 21.6613C80.9361 21.0776 81.3801 20.5714 81.9188 20.1792C82.5014 19.7416 83.1532 19.403 83.8477 19.1774C84.6097 18.9233 85.4082 18.7935 86.2121 18.7932C87.0066 18.7912 87.796 18.9187 88.5489 19.1706C89.2332 19.3968 89.8755 19.7329 90.4501 20.1655C90.9876 20.561 91.4332 21.0664 91.7568 21.6475C92.061 22.211 92.2201 22.8403 92.22 23.4795C92.2276 24.1109 92.0679 24.7333 91.7568 25.2841C91.4429 25.8597 91.0093 26.3626 90.4847 26.7593C89.9116 27.1904 89.2719 27.5264 88.5904 27.7542C87.8391 28.0124 87.0486 28.1401 86.2536 28.1316Z" fill="#F26749"/>
<path d="M123.601 47.1445C123.592 47.7177 123.735 48.2832 124.015 48.7843C124.285 49.2715 124.575 49.7586 124.88 50.2389C125.184 50.7192 125.481 51.2201 125.758 51.7279C126.041 52.2747 126.181 52.8834 126.166 53.4981C126.166 54.692 125.513 55.5039 124.209 55.9339C122.605 56.4015 120.937 56.6191 119.266 56.5789C117.601 56.6226 115.94 56.4049 114.343 55.9339C113.044 55.5085 112.387 54.6989 112.387 53.5187C112.373 52.8998 112.513 52.287 112.795 51.7347C113.064 51.2407 113.355 50.7398 113.659 50.2595C113.963 49.7792 114.254 49.2921 114.53 48.8049C114.806 48.3002 114.945 47.7324 114.931 47.1582V39.6106C114.999 37.9521 114.746 36.2959 114.184 34.7322C114.004 34.1921 113.651 33.7249 113.18 33.4007C112.709 33.0765 112.144 32.9129 111.571 32.9345C110.863 32.914 110.17 33.1424 109.615 33.5795C109.034 34.0628 108.548 34.6491 108.183 35.3086C107.779 36.0247 107.479 36.7939 107.292 37.5934C107.1 38.3682 107 39.1627 106.994 39.9606V47.165C106.985 47.7406 107.128 48.3085 107.409 48.8118C107.672 49.2921 107.969 49.7792 108.273 50.2595C108.577 50.7398 108.875 51.2407 109.151 51.7347C109.434 52.2842 109.574 52.895 109.559 53.5118C109.559 54.692 108.907 55.5016 107.603 55.9408C104.372 56.8052 100.968 56.8052 97.737 55.9408C96.4373 55.5085 95.7805 54.7057 95.7805 53.5118C95.768 52.8945 95.9105 52.2837 96.1953 51.7347C96.458 51.2338 96.7484 50.733 97.0526 50.2458C97.3568 49.7586 97.6541 49.2784 97.9237 48.7912C98.2001 48.289 98.3384 47.7234 98.3247 47.1513V39.0343C98.3443 38.5448 98.2009 38.0626 97.9168 37.662C97.6472 37.3453 97.3537 37.0494 97.0388 36.7769C96.7262 36.4941 96.4371 36.1866 96.1746 35.8575C95.8707 35.4065 95.725 34.8688 95.7597 34.3274C95.7765 34.0067 95.8631 33.6935 96.0134 33.4093C96.1638 33.125 96.3745 32.8764 96.6309 32.6806C97.3086 32.0927 98.0856 31.6281 98.9262 31.3084C99.8878 30.909 100.889 30.61 101.913 30.4164C102.931 30.2021 103.969 30.0895 105.01 30.0802C105.292 30.0737 105.572 30.1324 105.828 30.2514C106.083 30.3705 106.307 30.5467 106.483 30.7663C106.807 31.1241 106.998 31.5821 107.022 32.0631V32.9208C107.478 32.0353 108.185 31.301 109.055 30.8075C109.902 30.3487 110.854 30.1126 111.82 30.1213C113.48 30.0946 115.138 30.2511 116.763 30.5879C118.09 30.8736 119.343 31.4246 120.448 32.2072C121.475 32.9595 122.274 33.9778 122.757 35.1507C123.331 36.5906 123.601 38.1317 123.552 39.6793L123.601 47.1445Z" fill="#F26749"/>
<path d="M151.905 47.1035C151.903 47.6759 152.046 48.2397 152.32 48.7434C152.589 49.2237 152.887 49.7108 153.191 50.198C153.495 50.6852 153.792 51.1723 154.062 51.6801C154.344 52.2296 154.485 52.8404 154.47 53.4572C154.47 54.6419 153.818 55.4515 152.513 55.8861C150.912 56.371 149.244 56.6025 147.57 56.5722C146.853 56.5978 146.142 56.4495 145.496 56.14C145.005 55.8988 144.562 55.571 144.189 55.1725C143.787 54.7846 143.471 54.317 143.263 53.8002C142.714 54.7127 141.925 55.4598 140.981 55.9616C140.014 56.414 138.953 56.6349 137.884 56.6065C136.245 56.629 134.621 56.2862 133.132 55.6034C131.644 54.9206 130.329 53.9152 129.284 52.6612C128.238 51.4281 127.451 50.0006 126.968 48.4621C126.434 46.7864 126.166 45.0389 126.173 43.2817C126.158 41.5184 126.45 39.7659 127.037 38.1014C127.564 36.5608 128.4 35.1424 129.496 33.9323C130.592 32.7222 131.924 31.7455 133.411 31.0616C134.983 30.3403 136.698 29.9769 138.43 29.9981C138.816 30.0104 139.199 30.068 139.571 30.1696C140.042 30.2813 140.504 30.4258 140.954 30.6019C141.419 30.7708 141.858 31.0017 142.26 31.288C142.667 31.5737 143.03 31.9157 143.339 32.3035V23.3288C143.366 22.8267 143.22 22.3303 142.924 21.9222C142.648 21.6047 142.35 21.3067 142.032 21.0302C141.718 20.7515 141.429 20.4461 141.168 20.1177C140.861 19.6654 140.715 19.1246 140.753 18.5807C140.77 18.2591 140.856 17.9448 141.007 17.6595C141.157 17.3741 141.368 17.1243 141.624 16.9271C142.277 16.3443 143.029 15.8798 143.844 15.5548C145.763 14.7483 147.823 14.324 149.907 14.3061C150.185 14.2931 150.462 14.3447 150.716 14.4566C150.971 14.5686 151.195 14.7379 151.372 14.951C151.704 15.3043 151.896 15.7651 151.912 16.2478L151.905 47.1035ZM143.284 38.7258C143.283 37.9641 143.174 37.2063 142.959 36.4752C142.762 35.8088 142.466 35.1752 142.081 34.5952C141.743 34.0893 141.3 33.6611 140.781 33.3396C140.334 33.0513 139.814 32.8943 139.281 32.8867C138.961 32.8956 138.646 32.9746 138.361 33.1182C138.075 33.2617 137.825 33.4662 137.628 33.7169C137.077 34.3766 136.655 35.133 136.384 35.9469C136.005 37.0142 135.741 38.1181 135.596 39.2404C135.236 41.932 135.236 44.6589 135.596 47.3505C135.744 48.4722 136.008 49.5758 136.384 50.644C136.662 51.4554 137.089 52.209 137.642 52.8671C137.839 53.1191 138.09 53.3243 138.377 53.468C138.664 53.6116 138.98 53.6899 139.301 53.6973C139.605 53.6866 139.903 53.6112 140.175 53.4763C140.447 53.3413 140.687 53.1499 140.878 52.9151C141.391 52.3356 141.811 51.6805 142.122 50.9733C142.491 50.1565 142.771 49.3032 142.959 48.4278C143.151 47.5786 143.25 46.7113 143.256 45.841L143.284 38.7258Z" fill="#F26749"/>
<path d="M180.714 50.994C180.85 50.9931 180.985 50.9723 181.115 50.9323C181.282 50.8821 181.459 50.8657 181.633 50.8842C181.717 50.8948 181.798 50.9245 181.868 50.9709C181.939 51.0173 181.998 51.0792 182.041 51.1518C182.175 51.4292 182.233 51.7371 182.207 52.0438C182.22 52.734 182.063 53.4169 181.751 54.0336C181.452 54.5765 181.033 55.0455 180.527 55.4059C180.001 55.7907 179.411 56.081 178.785 56.2636C178.109 56.4487 177.411 56.541 176.711 56.538C175.776 56.571 174.843 56.4551 173.945 56.1949C173.366 56.0119 172.816 55.7461 172.314 55.4059C171.901 55.1154 171.566 54.7291 171.339 54.2806C170.484 55.1289 169.428 55.7516 168.269 56.092C167.13 56.4023 165.953 56.557 164.771 56.5517C162.264 56.5517 160.305 56.0074 158.894 54.9187C157.512 53.8209 156.772 52.1261 156.772 49.8276C156.753 48.7797 157.013 47.7453 157.525 46.8291C158.029 45.946 158.693 45.1622 159.482 44.5169C160.333 43.8261 161.261 43.2344 162.247 42.7535C163.283 42.2428 164.345 41.7848 165.428 41.3812C166.513 40.9764 167.564 40.6333 168.58 40.3245C169.597 40.0158 170.495 39.6796 171.29 39.3777V36.5576C171.298 35.6265 171 34.7182 170.44 33.9709C170.176 33.596 169.821 33.2936 169.408 33.092C168.994 32.8904 168.536 32.7962 168.076 32.8182C167.748 32.7994 167.423 32.8937 167.158 33.085C166.892 33.2763 166.701 33.5529 166.617 33.868C166.346 34.6582 166.217 35.4897 166.237 36.3243C166.269 36.8813 166.162 37.4376 165.925 37.9436C165.703 38.3559 165.4 38.7198 165.034 39.014C164.679 39.3263 164.262 39.5602 163.81 39.7002C163.387 39.822 162.95 39.8866 162.51 39.8923C162.067 39.884 161.626 39.8124 161.203 39.6796C160.705 39.5351 160.236 39.3027 159.821 38.9934C159.326 38.6123 158.93 38.1198 158.666 37.5566C158.401 36.9934 158.276 36.3758 158.3 35.7549C158.294 34.9861 158.52 34.2332 158.95 33.5935C159.475 32.8612 160.151 32.2484 160.934 31.7958C161.839 31.2153 162.821 30.7626 163.851 30.451C165.08 30.1139 166.351 29.9499 167.626 29.9638C169.346 29.9277 171.056 30.2382 172.652 30.8764C174.127 31.4759 175.459 32.3732 176.565 33.5112C177.66 34.6774 178.509 36.0491 179.061 37.5457C179.657 39.1701 179.952 40.8878 179.932 42.6162V49.5668C179.946 50.5274 180.202 50.994 180.714 50.994ZM171.332 42.2183C167.746 43.1331 165.955 45.4706 165.96 49.2306C165.944 49.9269 166.037 50.6214 166.237 51.289C166.369 51.7559 166.605 52.1873 166.928 52.5515C167.161 52.8093 167.446 53.0167 167.763 53.1607C168.081 53.3047 168.425 53.3823 168.774 53.3886C169.135 53.3658 169.485 53.255 169.792 53.0659C170.1 52.8767 170.355 52.6152 170.537 52.3045C171.136 51.2986 171.411 50.1352 171.325 48.9699L171.332 42.2183Z" fill="#F26749"/>
<path d="M212.426 47.0073C212.415 47.5799 212.555 48.1455 212.834 48.6471C213.101 49.132 213.392 49.6192 213.705 50.1086C214.009 50.5889 214.307 51.0829 214.576 51.5907C214.861 52.1397 215.004 52.7504 214.991 53.3678C214.991 54.5548 214.3 55.3576 213.034 55.7967C209.805 56.6567 206.405 56.6567 203.176 55.7967C201.871 55.3713 201.219 54.5662 201.219 53.3815C201.198 52.7671 201.336 52.1575 201.62 51.6113C201.89 51.1035 202.18 50.6095 202.484 50.1223C202.789 49.6352 203.086 49.1549 203.349 48.6677C203.631 48.1677 203.772 47.601 203.756 47.0279V39.4803C203.811 37.8163 203.551 36.1569 202.989 34.5882C202.811 34.0442 202.46 33.5722 201.989 33.2431C201.518 32.914 200.952 32.7455 200.376 32.763C199.667 32.7383 198.972 32.9672 198.419 33.408C197.836 33.8868 197.351 34.4713 196.988 35.1302C196.589 35.8584 196.295 36.6393 196.117 37.4494C195.927 38.2244 195.83 39.0189 195.827 39.8165V47.021C195.822 47.5951 195.962 48.1613 196.235 48.6677C196.511 49.1549 196.801 49.6352 197.113 50.1155C197.424 50.5958 197.707 51.0967 197.984 51.5907C198.261 52.1419 198.399 52.7519 198.385 53.3678C198.394 53.9301 198.208 54.4784 197.858 54.9207C197.508 55.363 197.015 55.6723 196.463 55.7967C194.872 56.271 193.214 56.4888 191.554 56.4417C189.88 56.482 188.21 56.2644 186.604 55.7967C185.304 55.3644 184.647 54.5617 184.647 53.3746C184.633 52.7557 184.773 52.1429 185.055 51.5907C185.332 51.0898 185.615 50.5889 185.92 50.1086C186.224 49.6283 186.521 49.1343 186.791 48.6471C187.068 48.1428 187.206 47.5748 187.192 47.0004V38.8971C187.219 38.4067 187.075 37.922 186.784 37.5248C186.52 37.2049 186.229 36.9087 185.913 36.6397C185.593 36.3427 185.297 36.0215 185.028 35.6791C184.728 35.2241 184.587 34.6842 184.627 34.1422C184.641 33.8217 184.725 33.5082 184.875 33.2237C185.024 32.9392 185.234 32.6906 185.491 32.4954C186.149 31.9158 186.902 31.4517 187.717 31.1232C188.681 30.73 189.681 30.4312 190.704 30.2312C191.721 30.0257 192.756 29.9154 193.794 29.9018C194.072 29.8878 194.35 29.9389 194.604 30.0509C194.859 30.1629 195.083 30.3328 195.26 30.5468C195.592 30.9011 195.788 31.3602 195.813 31.8436V32.7013C196.27 31.8197 196.976 31.0899 197.845 30.6017C198.714 30.1266 199.695 29.8898 200.687 29.9155C202.348 29.89 204.006 30.0511 205.63 30.3958C206.96 30.6586 208.218 31.1989 209.322 31.9808C210.349 32.7294 211.15 33.7426 211.638 34.9106C212.205 36.3547 212.475 37.8967 212.433 39.446L212.426 47.0073Z" fill="#F26749"/>
<path d="M239.016 24.9208C239.444 24.9008 239.871 24.9718 240.27 25.1292C240.668 25.2866 241.028 25.5267 241.325 25.8333C241.611 26.103 241.838 26.4276 241.994 26.7874C242.15 27.1471 242.23 27.5345 242.23 27.926C242.252 28.6096 242.071 29.2844 241.712 29.8678C241.386 30.3824 240.937 30.809 240.405 31.1097C239.833 31.4317 239.208 31.6523 238.559 31.7616C237.874 31.8858 237.181 31.9683 236.485 32.0086C237.892 32.9062 239.074 34.1099 239.942 35.5285C240.735 36.8186 241.184 38.2875 241.248 39.7973C241.313 41.3071 240.989 42.8083 240.308 44.1601C239.669 45.4014 238.782 46.5009 237.702 47.3918C236.536 48.354 235.209 49.1064 233.782 49.6149C232.25 50.1641 230.633 50.4406 229.005 50.4314C226.903 50.4314 225.329 50.8637 224.283 51.7282C223.33 52.4342 222.665 53.4572 222.409 54.61C222.2 55.6045 222.397 56.6406 222.955 57.4918C223.234 57.9204 223.624 58.2669 224.083 58.4951C224.543 58.7232 225.056 58.8246 225.569 58.7886C226.228 58.8159 226.874 58.6036 227.387 58.1916C227.848 57.7764 228.232 57.284 228.521 56.737C228.825 56.1607 229.129 55.5226 229.413 54.8433C229.69 54.1809 230.035 53.5486 230.443 52.9564C230.85 52.3766 231.367 51.8803 231.964 51.4949C232.705 51.0686 233.555 50.8637 234.411 50.9048C235.462 50.8761 236.51 51.0293 237.508 51.3577C238.304 51.6173 239.036 52.0379 239.659 52.5927C240.182 53.0669 240.601 53.6445 240.886 54.2885C241.172 54.9325 241.319 55.6286 241.318 56.3322C241.32 56.9056 241.219 57.4748 241.021 58.0132C240.827 58.5418 240.544 59.0338 240.184 59.4679C239.801 59.909 239.33 60.2665 238.801 60.5176C238.245 60.7919 237.631 60.9307 237.011 60.9225C236.575 60.9629 236.136 60.9096 235.723 60.7663C235.311 60.6231 234.934 60.3931 234.619 60.0922C234.121 59.5587 233.742 58.9276 233.505 58.2397C233.27 57.5535 233.084 56.9291 232.952 56.3734C232.821 55.8176 232.586 55.5363 232.22 55.5363C231.853 55.5363 231.632 55.8519 231.653 56.4557C231.673 57.0595 231.736 57.828 231.846 58.7474C231.957 59.6668 232.04 60.6892 232.095 61.739C232.161 62.7571 232.015 63.7777 231.666 64.7374C231.315 65.6623 230.691 66.4608 229.876 67.0291C228.739 67.6956 227.426 68.0087 226.108 67.928C224.628 67.9638 223.169 67.5832 221.898 66.8301C220.703 66.1146 219.681 65.1472 218.904 63.9964C218.116 62.8221 217.577 61.5007 217.321 60.1128C217.051 58.6959 217.051 57.2414 217.321 55.8245C217.597 54.3872 218.189 53.0283 219.056 51.8449C220.01 50.5677 221.269 49.5466 222.72 48.8739C221.016 48.0385 219.553 46.7872 218.468 45.2373C217.549 43.92 217 42.383 216.878 40.7849C216.757 39.1868 217.067 37.5854 217.777 36.146C218.409 34.8804 219.299 33.7589 220.39 32.8525C221.542 31.8992 222.852 31.1517 224.262 30.6432C225.787 30.0963 227.397 29.8199 229.019 29.8267C229.546 29.8254 230.073 29.8621 230.595 29.9364C231.1 30.0051 231.611 30.0874 232.116 30.1972C232.507 30.2981 232.917 30.2968 233.307 30.1934C233.697 30.09 234.054 29.888 234.342 29.6071C234.829 29.0355 235.247 28.4091 235.586 27.7408C235.946 27.0589 236.365 26.4092 236.838 25.799C237.105 25.4927 237.442 25.2535 237.821 25.1009C238.199 24.9482 238.609 24.8865 239.016 24.9208ZM228.998 47.6251C229.232 47.619 229.463 47.5632 229.674 47.4615C229.885 47.3597 230.072 47.2143 230.222 47.035C230.646 46.576 230.976 46.0402 231.196 45.4569C231.501 44.6985 231.721 43.9094 231.853 43.1034C232.018 42.1379 232.096 41.1598 232.088 40.1805C232.094 39.2215 232.013 38.2639 231.846 37.3193C231.692 36.5057 231.461 35.7084 231.155 34.9384C230.949 34.3495 230.632 33.8048 230.222 33.3328C230.068 33.1581 229.881 33.0162 229.67 32.9159C229.46 32.8156 229.231 32.759 228.998 32.7496C228.768 32.7561 228.543 32.8122 228.338 32.9141C228.132 33.0161 227.952 33.1613 227.809 33.3397C227.393 33.8117 227.07 34.3561 226.855 34.9453C226.559 35.7156 226.342 36.5132 226.205 37.3262C225.878 39.2405 225.878 41.1959 226.205 43.1103C226.335 43.9158 226.553 44.7049 226.855 45.4638C227.077 46.0411 227.4 46.5753 227.809 47.0419C227.951 47.2201 228.132 47.3648 228.338 47.4656C228.543 47.5664 228.769 47.6209 228.998 47.6251Z" fill="#F26749"/>
<path d="M230.622 31.0066C232.752 26.0046 236.845 20.2273 242.376 18.711C247.72 17.2563 253.983 17.5034 258.809 20.2548L257.793 16.4673C255.47 20.2891 253.05 24.1452 249.87 27.3357C246.102 31.1369 242.106 32.5984 236.824 33.3326C233.277 33.8335 234.784 39.1579 238.317 38.6845C250.264 37.0172 256.68 29.0785 262.632 19.2667C262.996 18.6292 263.095 17.8761 262.907 17.1676C262.72 16.459 262.262 15.8508 261.63 15.4724C255.138 11.7672 246.42 11.3555 239.341 13.8188C232.572 16.1928 227.864 23.2806 225.216 29.5245C223.833 32.818 229.226 34.252 230.609 30.9997L230.622 31.0066Z" fill="#F26749"/>
<path d="M78.9459 12.9748C68.3889 5.31754 55.2255 -0.0549314 42.1243 4.00015C28.1935 8.3091 19.0399 27.2122 3.0696 24.2687L2.32985 29.7578C11.4627 30.6361 18.6666 37.0515 27.3155 39.4255C35.2943 41.5229 43.7237 41.1954 51.5129 38.4855C54.9213 37.3602 52.7643 32.2416 49.3559 33.36C40.8508 36.2431 31.5574 35.794 23.3747 32.1044C16.5925 29.0785 10.6607 24.9823 3.0696 24.2687C-0.518536 23.9256 -1.20989 29.1197 2.32985 29.7578C15.5348 32.2005 24.4532 22.3338 33.8211 14.9372C47.268 4.37067 62.5193 7.91114 75.503 17.3387C78.4136 19.4589 81.8635 15.095 78.9459 12.9748Z" fill="#F26749"/>
<path d="M143.802 6.04489C143.799 5.25642 143.881 4.46987 144.044 3.69829C144.182 3.02686 144.403 2.37475 144.701 1.75652C144.914 1.26397 145.229 0.821935 145.627 0.459713C145.942 0.170129 146.353 0.00635858 146.782 0C147.217 0.00643893 147.635 0.169855 147.957 0.459713C148.371 0.813927 148.697 1.25756 148.911 1.75652C149.204 2.36435 149.422 3.00472 149.561 3.66398C149.728 4.43735 149.809 5.22654 149.803 6.01744C149.811 6.79446 149.732 7.56998 149.568 8.32973C149.425 8.98342 149.207 9.61876 148.918 10.2235C148.689 10.7155 148.36 11.1548 147.95 11.5134C147.625 11.8032 147.205 11.9665 146.768 11.9731C146.339 11.9655 145.929 11.8019 145.613 11.5134C145.215 11.1525 144.898 10.7132 144.68 10.2235C144.384 9.62384 144.163 8.99005 144.023 8.33659C143.867 7.58276 143.793 6.81445 143.802 6.04489Z" fill="#F26749"/>
<path d="M138.126 12.2203C137.67 11.8511 137.255 11.4348 136.888 10.9784C136.569 10.5865 136.297 10.158 136.08 9.7022C135.902 9.34708 135.801 8.95921 135.782 8.56321C135.763 8.24459 135.861 7.92986 136.059 7.67809C136.272 7.4324 136.566 7.26954 136.888 7.21838C137.284 7.15397 137.689 7.17267 138.078 7.27327C138.571 7.39978 139.049 7.58163 139.502 7.81532C140.02 8.08794 140.509 8.41209 140.961 8.78278C141.415 9.15297 141.83 9.56919 142.198 10.0247C142.509 10.4149 142.776 10.8384 142.993 11.2872C143.171 11.6467 143.27 12.0396 143.283 12.4399C143.295 12.7618 143.192 13.0776 142.993 13.3319C142.788 13.5775 142.496 13.7369 142.177 13.7779C141.783 13.8399 141.38 13.8188 140.995 13.7161C140.514 13.5964 140.05 13.419 139.612 13.1878C139.081 12.9238 138.582 12.5991 138.126 12.2203Z" fill="#F26749"/>
<path d="M154.338 12.5563C153.9 12.7824 153.436 12.9552 152.956 13.0709C152.58 13.1735 152.186 13.1945 151.801 13.1326C151.491 13.0936 151.206 12.9391 151.006 12.7004C150.807 12.4541 150.706 12.1441 150.723 11.829C150.734 11.441 150.828 11.0598 150.999 10.7106C151.209 10.271 151.469 9.85668 151.773 9.47553C152.134 9.033 152.539 8.62834 152.983 8.26792C153.421 7.90243 153.899 7.5871 154.407 7.32791C154.847 7.10066 155.311 6.92343 155.79 6.79958C156.169 6.70261 156.565 6.68393 156.952 6.74469C157.266 6.78585 157.552 6.94434 157.753 7.18786C157.953 7.43137 158.052 7.74157 158.03 8.05522C158.011 8.4393 157.912 8.81531 157.74 9.1599C157.527 9.60506 157.262 10.0241 156.952 10.4087C156.593 10.8528 156.187 11.2577 155.742 11.6163C155.314 11.9849 154.843 12.3006 154.338 12.5563Z" fill="#F26749"/>
</svg>
