<svg width="142" height="37" viewBox="0 0 142 37" fill="none" xmlns="http://www.w3.org/2000/svg">
<path d="M38.8397 25.6306C39.1318 26.08 39.4668 26.5002 39.8401 26.8854C40.1537 27.1936 40.4262 27.4534 40.6651 27.6687C40.8746 27.8554 41.0613 28.066 41.2213 28.2961C41.3665 28.5257 41.4381 28.7937 41.4266 29.0646C41.4266 29.572 41.0744 29.9779 40.3702 30.2823C39.5196 30.6073 38.6119 30.7588 37.7012 30.7278C36.8086 30.7496 35.9181 30.6318 35.0622 30.3788C34.8802 30.338 34.7089 30.2593 34.5597 30.148C34.4105 30.0366 34.2867 29.8951 34.1964 29.7327C34.1062 29.5703 34.0515 29.3908 34.036 29.2059C34.0205 29.021 34.0446 28.835 34.1066 28.66C34.1551 28.4798 34.169 28.2921 34.1476 28.1068C34.1177 27.8356 34.0473 27.5703 33.9386 27.3198C33.7691 26.9178 33.5415 26.5426 33.263 26.206C33.168 26.0724 33.0605 25.9481 32.9419 25.8348L32.2364 25.0663L31.5309 24.2756L31.1353 23.8524V25.5155C31.1287 25.8266 31.2046 26.1339 31.3555 26.4065C31.5048 26.6701 31.6616 26.9337 31.837 27.1936C32.0165 27.455 32.1786 27.7278 32.3223 28.0103C32.4758 28.3127 32.5527 28.6479 32.5463 28.9867C32.553 29.2801 32.443 29.5642 32.2402 29.7774C32.006 30.0106 31.7194 30.1849 31.404 30.286C31.0049 30.4241 30.5919 30.5187 30.1722 30.5682C29.1801 30.683 28.178 30.683 27.186 30.5682C26.7664 30.5204 26.3533 30.427 25.9541 30.2897C25.6382 30.1894 25.3504 30.0165 25.1143 29.7848C24.9101 29.5722 24.7987 29.288 24.8044 28.9941C24.794 28.6606 24.8644 28.3295 25.0097 28.0289C25.1553 27.7467 25.3121 27.4757 25.4763 27.2084C25.6406 26.9411 25.8011 26.685 25.9467 26.4214C26.0964 26.1485 26.1711 25.8412 26.1632 25.5304V16.3718C26.1675 16.061 26.0917 15.7542 25.9429 15.4808C25.7974 15.221 25.6368 14.9574 25.4726 14.6938C25.3084 14.4302 25.1479 14.1629 25.0023 13.8771C24.8501 13.5741 24.7733 13.2393 24.7783 12.9007C24.7726 12.6086 24.8825 12.3259 25.0844 12.1137C25.3233 11.8839 25.61 11.709 25.9243 11.6014C26.3219 11.4639 26.7339 11.3718 27.1524 11.3266C27.6476 11.2643 28.1463 11.2333 28.6455 11.2338H29.4891C29.8101 11.2338 30.1237 11.2598 30.4148 11.2747C30.7657 11.2932 31.1203 11.3044 31.5011 11.3044C32.5537 11.3005 33.6041 11.4012 34.6366 11.6051C35.6229 11.7907 36.5739 12.1289 37.4549 12.6074C38.2756 13.0539 38.976 13.6907 39.4967 14.4636C40.0379 15.3178 40.3108 16.313 40.2806 17.3222C40.315 18.4432 39.9923 19.5464 39.3586 20.4741C38.7428 21.3594 37.9451 22.1047 37.0181 22.6607L38.2686 24.7025C38.612 25.2779 38.8211 25.5824 38.8397 25.6306ZM32.2066 22.5085C32.6546 22.5166 33.091 22.3666 33.4384 22.0853C33.8117 21.7743 34.1112 21.3851 34.3156 20.9455C34.565 20.4222 34.7421 19.8678 34.8419 19.2972C34.9588 18.6616 35.0163 18.0166 35.0136 17.3705C35.0211 16.7529 34.9317 16.1379 34.7486 15.5477C34.5811 15.0279 34.3164 14.5442 33.9684 14.1221C33.6397 13.7179 33.2221 13.394 32.7478 13.1754C32.2279 12.9409 31.6612 12.8267 31.0905 12.8413V21.4319C31.0828 21.6186 31.124 21.804 31.2099 21.9702C31.2756 22.1008 31.3715 22.2141 31.4899 22.3006C31.5929 22.3807 31.7129 22.4365 31.8408 22.4639C31.9602 22.4948 32.0832 22.5098 32.2066 22.5085Z" fill="#FCB45E"/>
<path d="M48.8997 25.549C48.8966 25.8601 48.9737 26.1668 49.1236 26.44C49.273 26.6998 49.426 26.9597 49.594 27.2233C49.7619 27.4869 49.915 27.7542 50.0643 28.0252C50.2174 28.3237 50.2931 28.6554 50.2845 28.9904C50.2845 29.6289 49.9324 30.0658 49.2282 30.3009C48.3696 30.5668 47.4732 30.6922 46.5741 30.6721C45.6704 30.6885 44.7697 30.5632 43.9052 30.3009C43.1997 30.067 42.8488 29.6326 42.8488 28.9904C42.8377 28.6556 42.9122 28.3235 43.0653 28.0252C43.2121 27.7529 43.3689 27.4856 43.5356 27.2233C43.6999 26.9597 43.8529 26.6998 44.0022 26.4362C44.151 26.1628 44.2268 25.8561 44.2225 25.5453V21.1386C44.2343 20.8731 44.1553 20.6114 43.9985 20.3961C43.8599 20.2292 43.7103 20.0717 43.5506 19.9246C43.3788 19.7749 43.2214 19.6096 43.0802 19.4309C42.9162 19.1855 42.8375 18.8934 42.8563 18.5993C42.8658 18.4259 42.9128 18.2566 42.9939 18.1029C43.0751 17.9492 43.1885 17.8146 43.3266 17.7083C43.6818 17.3945 44.0883 17.1434 44.5286 16.9658C45.5719 16.5413 46.6862 16.3158 47.8134 16.3013C47.9655 16.2961 48.1167 16.327 48.2543 16.3916C48.392 16.4561 48.5121 16.5525 48.6048 16.6726C48.7799 16.8578 48.8842 17.0982 48.8997 17.3519V25.549ZM46.5704 15.2359C46.1354 15.24 45.7027 15.1723 45.2901 15.0354C44.9114 14.9113 44.5548 14.7284 44.2337 14.4934C43.9468 14.2815 43.7077 14.0121 43.5319 13.7026C43.3639 13.4046 43.2777 13.0679 43.2818 12.7263C43.2787 12.3805 43.3634 12.0395 43.5282 11.735C43.6994 11.4193 43.9391 11.1453 44.2299 10.9332C44.5445 10.6964 44.8964 10.5132 45.2714 10.3911C45.6828 10.2536 46.114 10.1834 46.548 10.1832C46.977 10.1822 47.4032 10.2512 47.8097 10.3874C48.1792 10.5098 48.5259 10.6917 48.8362 10.9257C49.1264 11.1397 49.367 11.4132 49.5417 11.7276C49.706 12.0325 49.7919 12.373 49.7918 12.7188C49.7959 13.0605 49.7097 13.3972 49.5417 13.6952C49.3722 14.0067 49.1381 14.2787 48.8549 14.4934C48.5455 14.7266 48.2 14.9084 47.8321 15.0317C47.4265 15.1714 46.9996 15.2404 46.5704 15.2359Z" fill="#FCB45E"/>
<path d="M66.735 25.523C66.7302 25.8331 66.8074 26.1391 66.9589 26.4103C67.1045 26.6738 67.2613 26.9374 67.4255 27.1973C67.5898 27.4572 67.7503 27.7282 67.8996 28.0029C68.0525 28.2988 68.1282 28.6281 68.1198 28.9607C68.1198 29.6067 67.7677 30.046 67.0634 30.2786C66.1973 30.5316 65.2969 30.6493 64.3945 30.6276C63.4956 30.6512 62.5986 30.5335 61.7367 30.2786C61.035 30.0484 60.6804 29.6104 60.6804 28.9718C60.6728 28.637 60.7484 28.3054 60.9006 28.0066C61.0462 27.7393 61.2029 27.4683 61.3672 27.2084C61.5314 26.9486 61.6882 26.685 61.8375 26.4214C61.9867 26.1483 62.0614 25.8411 62.054 25.5304V21.4467C62.0907 20.5493 61.9539 19.6533 61.6509 18.8072C61.5533 18.515 61.363 18.2622 61.1085 18.0868C60.8541 17.9114 60.5493 17.8229 60.2399 17.8345C59.8574 17.8234 59.4833 17.947 59.1835 18.1835C58.8698 18.445 58.6078 18.7622 58.4108 19.119C58.1926 19.5065 58.0305 19.9227 57.9293 20.3553C57.8256 20.7745 57.7718 21.2044 57.7688 21.6361V25.5341C57.7635 25.8455 57.8408 26.1528 57.9927 26.4251C58.1346 26.685 58.2951 26.9486 58.4593 27.2084C58.6236 27.4683 58.7841 27.7393 58.9334 28.0066C59.086 28.3039 59.1617 28.6344 59.1536 28.9681C59.1536 29.6067 58.8015 30.0447 58.0973 30.2823C56.3528 30.75 54.515 30.75 52.7706 30.2823C52.0688 30.0484 51.7142 29.6141 51.7142 28.9681C51.7074 28.6341 51.7844 28.3036 51.9381 28.0066C52.08 27.7356 52.2368 27.4646 52.401 27.201C52.5653 26.9374 52.7258 26.6775 52.8713 26.414C53.0206 26.1422 53.0953 25.8362 53.0879 25.5267V21.1349C53.0984 20.8701 53.021 20.6091 52.8676 20.3924C52.7221 20.221 52.5636 20.0609 52.3936 19.9135C52.2248 19.7605 52.0687 19.5941 51.927 19.416C51.7629 19.172 51.6842 18.8811 51.703 18.5882C51.712 18.4147 51.7588 18.2452 51.84 18.0914C51.9212 17.9376 52.0349 17.8031 52.1733 17.6972C52.5392 17.3791 52.9588 17.1277 53.4126 16.9547C53.9318 16.7386 54.4723 16.5769 55.0252 16.4721C55.5751 16.3562 56.1353 16.2952 56.6975 16.2902C56.8498 16.2867 57.0009 16.3184 57.1389 16.3828C57.2769 16.4472 57.3979 16.5426 57.4926 16.6614C57.6679 16.855 57.7707 17.1028 57.7837 17.3631V17.8271C58.0301 17.348 58.4114 16.9507 58.8812 16.6837C59.3389 16.4355 59.8529 16.3077 60.3743 16.3125C61.2706 16.298 62.1657 16.3826 63.0432 16.5649C63.7594 16.7195 64.4363 17.0176 65.0328 17.441C65.5875 17.848 66.0188 18.399 66.2796 19.0337C66.5892 19.8127 66.7353 20.6466 66.7088 21.4839L66.735 25.523Z" fill="#FCB45E"/>
<path d="M82.017 25.5007C82.0161 25.8104 82.0931 26.1155 82.241 26.388C82.3866 26.6479 82.5471 26.9115 82.7113 27.175C82.8756 27.4386 83.0361 27.7022 83.1817 27.9769C83.3343 28.2742 83.41 28.6047 83.4019 28.9384C83.4019 29.5795 83.0498 30.0175 82.3455 30.2526C81.481 30.515 80.5803 30.6403 79.6766 30.6239C79.2897 30.6377 78.9053 30.5575 78.5567 30.39C78.2916 30.2595 78.0525 30.0822 77.8512 29.8665C77.634 29.6566 77.4636 29.4037 77.351 29.1241C77.0547 29.6177 76.6289 30.022 76.1192 30.2935C75.5969 30.5383 75.0241 30.6578 74.4469 30.6424C73.5617 30.6546 72.685 30.4691 71.8813 30.0997C71.0777 29.7303 70.3676 29.1863 69.8033 28.5078C69.2389 27.8406 68.8138 27.0682 68.5528 26.2358C68.265 25.3292 68.1202 24.3836 68.1236 23.4329C68.1157 22.4789 68.2735 21.5306 68.5902 20.63C68.8746 19.7965 69.3264 19.029 69.918 18.3743C70.5096 17.7196 71.2287 17.1911 72.0318 16.8211C72.8807 16.4308 73.8067 16.2342 74.7418 16.2456C74.9501 16.2523 75.1568 16.2835 75.3577 16.3385C75.6118 16.3989 75.8613 16.4771 76.1043 16.5723C76.3553 16.6638 76.5926 16.7886 76.8098 16.9436C77.0293 17.0982 77.2254 17.2832 77.3921 17.493V12.6372C77.407 12.3655 77.328 12.0969 77.1681 11.8761C77.0191 11.7043 76.8582 11.5431 76.6866 11.3935C76.517 11.2427 76.3609 11.0775 76.22 10.8998C76.0544 10.6551 75.9756 10.3624 75.996 10.0682C76.0051 9.89416 76.0517 9.72413 76.1329 9.56972C76.2141 9.4153 76.3278 9.28014 76.4664 9.17347C76.819 8.85812 77.2246 8.60681 77.6646 8.43099C78.7008 7.99459 79.8131 7.76501 80.9383 7.75533C81.0884 7.74833 81.238 7.77623 81.3754 7.8368C81.5128 7.89738 81.6341 7.98897 81.7296 8.1043C81.9088 8.29545 82.0122 8.54473 82.0208 8.80594L82.017 25.5007ZM77.3622 20.9679C77.362 20.5557 77.303 20.1458 77.1868 19.7502C77.0804 19.3896 76.9206 19.0468 76.7127 18.733C76.5303 18.4592 76.291 18.2276 76.011 18.0536C75.7696 17.8976 75.4888 17.8127 75.201 17.8086C75.0281 17.8134 74.8585 17.8562 74.7043 17.9338C74.5501 18.0115 74.415 18.1221 74.3088 18.2578C74.011 18.6147 73.7831 19.0239 73.6369 19.4643C73.4325 20.0418 73.2898 20.6391 73.2114 21.2463C73.0174 22.7026 73.0174 24.178 73.2114 25.6344C73.2916 26.2413 73.4342 26.8384 73.6369 27.4163C73.7872 27.8554 74.0175 28.2631 74.3163 28.6192C74.4227 28.7555 74.5583 28.8666 74.7133 28.9443C74.8682 29.022 75.0387 29.0644 75.2122 29.0684C75.3762 29.0626 75.5371 29.0218 75.6839 28.9488C75.8308 28.8758 75.9601 28.7722 76.0632 28.6452C76.3405 28.3316 76.5671 27.9772 76.7351 27.5945C76.9341 27.1526 77.0855 26.6909 77.1868 26.2172C77.2905 25.7578 77.3443 25.2885 77.3473 24.8176L77.3622 20.9679Z" fill="#FCB45E"/>
<path d="M97.5716 27.6056C97.645 27.6052 97.7179 27.5939 97.7881 27.5722C97.8787 27.5451 97.9739 27.5362 98.068 27.5462C98.1134 27.552 98.1569 27.568 98.1951 27.5931C98.2333 27.6182 98.2652 27.6517 98.2883 27.691C98.3608 27.8411 98.3917 28.0077 98.3778 28.1736C98.3848 28.5471 98.3002 28.9166 98.1315 29.2502C97.9701 29.544 97.7443 29.7978 97.4708 29.9927C97.1869 30.2009 96.8685 30.358 96.5301 30.4568C96.1654 30.557 95.7886 30.6069 95.4103 30.6053C94.9058 30.6231 94.4017 30.5605 93.9172 30.4197C93.6042 30.3206 93.3075 30.1768 93.0362 29.9927C92.8134 29.8356 92.6327 29.6265 92.5099 29.3839C92.0482 29.8429 91.4785 30.1798 90.8525 30.364C90.2372 30.5319 89.6018 30.6155 88.9637 30.6127C87.61 30.6127 86.5524 30.3182 85.7909 29.7292C85.0443 29.1352 84.6449 28.2182 84.6449 26.9745C84.6344 26.4076 84.7748 25.8479 85.0518 25.3522C85.3239 24.8744 85.682 24.4503 86.1081 24.1011C86.5675 23.7274 87.0685 23.4072 87.6013 23.147C88.1606 22.8707 88.7337 22.6229 89.3184 22.4045C89.9044 22.1855 90.4718 21.9999 91.0205 21.8328C91.5692 21.6658 92.0545 21.4839 92.4838 21.3205V19.7947C92.4881 19.2909 92.3269 18.7995 92.0246 18.3951C91.8822 18.1923 91.6904 18.0287 91.4672 17.9196C91.2439 17.8105 90.9965 17.7595 90.748 17.7714C90.571 17.7613 90.3959 17.8123 90.2524 17.9158C90.1089 18.0193 90.0057 18.169 89.9604 18.3394C89.8139 18.767 89.7444 19.2169 89.7551 19.6685C89.7726 19.9698 89.7149 20.2708 89.5871 20.5446C89.467 20.7677 89.3033 20.9646 89.1056 21.1237C88.9143 21.2927 88.6891 21.4193 88.4449 21.495C88.2167 21.5609 87.9807 21.5959 87.7431 21.5989C87.5036 21.5945 87.266 21.5557 87.0376 21.4839C86.7684 21.4057 86.5155 21.2799 86.2911 21.1126C86.0241 20.9064 85.8103 20.6399 85.6675 20.3352C85.5247 20.0305 85.4569 19.6963 85.4698 19.3603C85.4665 18.9444 85.5888 18.537 85.8207 18.1909C86.1043 17.7947 86.4695 17.4631 86.892 17.2183C87.3806 16.9042 87.9108 16.6593 88.4673 16.4906C89.1309 16.3082 89.817 16.2195 90.5054 16.2271C91.4342 16.2075 92.3574 16.3755 93.2191 16.7208C94.0151 17.0452 94.7346 17.5306 95.3319 18.1464C95.9229 18.7774 96.3811 19.5196 96.6794 20.3293C97.0009 21.2082 97.1603 22.1376 97.1498 23.0728V26.8335C97.1572 27.3532 97.2953 27.6056 97.5716 27.6056ZM92.5062 22.8575C90.5701 23.3524 89.6033 24.6171 89.6058 26.6516C89.597 27.0283 89.6474 27.404 89.7551 27.7653C89.8266 28.0179 89.9542 28.2513 90.1284 28.4484C90.2544 28.5878 90.4079 28.7 90.5793 28.7779C90.7508 28.8559 90.9365 28.8978 91.125 28.9013C91.32 28.8889 91.5088 28.829 91.6749 28.7266C91.8409 28.6243 91.979 28.4828 92.0769 28.3147C92.4002 27.7704 92.5486 27.141 92.5024 26.5105L92.5062 22.8575Z" fill="#FCB45E"/>
<path d="M114.694 25.4487C114.688 25.7585 114.764 26.0645 114.914 26.336C115.058 26.5983 115.215 26.8619 115.384 27.1267C115.549 27.3866 115.709 27.6539 115.855 27.9286C116.009 28.2256 116.086 28.5561 116.079 28.8901C116.079 29.5324 115.706 29.9667 115.022 30.2043C113.279 30.6696 111.443 30.6696 109.699 30.2043C108.995 29.9741 108.643 29.5385 108.643 28.8975C108.632 28.5651 108.706 28.2353 108.86 27.9397C109.005 27.665 109.162 27.3977 109.326 27.1341C109.49 26.8706 109.651 26.6107 109.793 26.3471C109.945 26.0765 110.021 25.7699 110.013 25.4598V21.3762C110.043 20.4758 109.902 19.578 109.599 18.7292C109.503 18.4349 109.313 18.1795 109.059 18.0014C108.804 17.8234 108.499 17.7322 108.188 17.7417C107.805 17.7283 107.43 17.8522 107.131 18.0907C106.817 18.3497 106.554 18.666 106.359 19.0225C106.143 19.4165 105.985 19.839 105.888 20.2773C105.786 20.6966 105.733 21.1265 105.731 21.5581V25.4561C105.729 25.7668 105.804 26.0731 105.952 26.3471C106.101 26.6107 106.258 26.8706 106.426 27.1304C106.594 27.3903 106.747 27.6613 106.896 27.9286C107.046 28.2268 107.12 28.5569 107.113 28.8901C107.118 29.1944 107.017 29.491 106.828 29.7304C106.639 29.9697 106.373 30.137 106.075 30.2043C105.216 30.4609 104.321 30.5788 103.425 30.5533C102.521 30.5751 101.619 30.4574 100.752 30.2043C100.05 29.9704 99.6955 29.5361 99.6955 28.8938C99.6879 28.559 99.7636 28.2274 99.9158 27.9286C100.065 27.6576 100.218 27.3866 100.382 27.1267C100.547 26.8668 100.707 26.5995 100.853 26.336C101.002 26.0631 101.077 25.7557 101.069 25.445V21.0606C101.084 20.7953 101.006 20.533 100.849 20.3181C100.707 20.145 100.549 19.9848 100.379 19.8392C100.206 19.6785 100.046 19.5047 99.9009 19.3195C99.7392 19.0733 99.6631 18.7812 99.6843 18.4879C99.692 18.3145 99.7377 18.1449 99.8183 17.9909C99.8989 17.837 100.012 17.7025 100.151 17.5969C100.506 17.2833 100.913 17.0322 101.353 16.8544C101.873 16.6417 102.413 16.48 102.965 16.3718C103.515 16.2606 104.073 16.201 104.634 16.1936C104.784 16.186 104.934 16.2137 105.072 16.2743C105.209 16.3349 105.33 16.4268 105.425 16.5426C105.605 16.7343 105.711 16.9827 105.724 17.2442V17.7083C105.971 17.2313 106.352 16.8364 106.821 16.5723C107.291 16.3152 107.82 16.1871 108.356 16.201C109.252 16.1872 110.148 16.2744 111.025 16.4609C111.743 16.6031 112.422 16.8954 113.018 17.3185C113.572 17.7235 114.005 18.2717 114.268 18.9037C114.575 19.685 114.72 20.5193 114.698 21.3576L114.694 25.4487Z" fill="#FCB45E"/>
<path d="M129.05 13.4984C129.281 13.4876 129.512 13.5261 129.727 13.6112C129.942 13.6964 130.137 13.8263 130.297 13.9922C130.451 14.1381 130.574 14.3137 130.658 14.5084C130.743 14.703 130.786 14.9126 130.786 15.1245C130.797 15.4943 130.7 15.8595 130.506 16.1751C130.33 16.4535 130.088 16.6844 129.801 16.8471C129.491 17.0212 129.154 17.1406 128.804 17.1997C128.434 17.2669 128.06 17.3116 127.684 17.3334C128.443 17.819 129.082 18.4703 129.55 19.2379C129.978 19.9359 130.221 20.7307 130.256 21.5476C130.29 22.3645 130.116 23.1767 129.748 23.9081C129.403 24.5797 128.924 25.1746 128.341 25.6566C127.711 26.1772 126.995 26.5843 126.225 26.8595C125.398 27.1566 124.524 27.3062 123.645 27.3012C122.51 27.3012 121.661 27.5351 121.096 28.0029C120.581 28.3849 120.222 28.9384 120.084 29.5621C119.971 30.1002 120.077 30.6608 120.379 31.1213C120.529 31.3533 120.74 31.5407 120.988 31.6642C121.236 31.7876 121.513 31.8424 121.79 31.823C122.146 31.8377 122.495 31.7229 122.772 31.5C123.02 31.2753 123.228 31.0089 123.384 30.713C123.548 30.4011 123.712 30.0559 123.865 29.6883C124.015 29.33 124.201 28.9878 124.422 28.6674C124.642 28.3537 124.92 28.0852 125.243 27.8767C125.643 27.646 126.102 27.5351 126.564 27.5574C127.132 27.5418 127.698 27.6248 128.237 27.8024C128.666 27.9429 129.061 28.1704 129.397 28.4707C129.68 28.7272 129.906 29.0397 130.06 29.3882C130.215 29.7366 130.294 30.1132 130.293 30.4939C130.294 30.8042 130.24 31.1121 130.133 31.4035C130.028 31.6895 129.876 31.9556 129.681 32.1905C129.474 32.4292 129.22 32.6226 128.935 32.7585C128.634 32.9069 128.303 32.982 127.968 32.9775C127.733 32.9994 127.496 32.9706 127.273 32.8931C127.05 32.8156 126.846 32.6912 126.676 32.5283C126.408 32.2397 126.203 31.8982 126.075 31.526C125.948 31.1547 125.848 30.8169 125.777 30.5162C125.706 30.2155 125.579 30.0633 125.381 30.0633C125.183 30.0633 125.064 30.2341 125.075 30.5608C125.086 30.8875 125.12 31.3032 125.179 31.8007C125.239 32.2982 125.284 32.8513 125.314 33.4193C125.349 33.9702 125.27 34.5224 125.082 35.0417C124.892 35.5421 124.556 35.9741 124.115 36.2816C123.501 36.6422 122.793 36.8116 122.081 36.7679C121.282 36.7873 120.494 36.5814 119.808 36.174C119.163 35.7868 118.611 35.2634 118.192 34.6407C117.766 34.0054 117.475 33.2904 117.337 32.5395C117.191 31.7728 117.191 30.9859 117.337 30.2192C117.486 29.4416 117.806 28.7063 118.274 28.066C118.789 27.375 119.469 26.8225 120.252 26.4585C119.332 26.0065 118.542 25.3295 117.956 24.4909C117.46 23.7782 117.164 22.9466 117.098 22.0819C117.032 21.2172 117.2 20.3508 117.583 19.572C117.924 18.8872 118.405 18.2804 118.994 17.79C119.616 17.2742 120.323 16.8697 121.084 16.5946C121.908 16.2987 122.777 16.1492 123.653 16.1528C123.937 16.1522 124.222 16.172 124.504 16.2122C124.776 16.2494 125.052 16.2939 125.325 16.3533C125.536 16.4079 125.758 16.4072 125.968 16.3512C126.179 16.2953 126.371 16.186 126.527 16.034C126.79 15.7247 127.015 15.3858 127.199 15.0243C127.393 14.6553 127.619 14.3038 127.874 13.9736C128.019 13.8079 128.201 13.6785 128.405 13.5959C128.609 13.5133 128.83 13.4799 129.05 13.4984ZM123.641 25.7829C123.768 25.7796 123.893 25.7494 124.007 25.6943C124.12 25.6393 124.221 25.5606 124.302 25.4636C124.531 25.2152 124.71 24.9253 124.828 24.6097C124.993 24.1994 125.112 23.7724 125.183 23.3364C125.272 22.8139 125.314 22.2847 125.31 21.7549C125.313 21.236 125.269 20.7179 125.179 20.2068C125.096 19.7666 124.971 19.3352 124.806 18.9186C124.695 18.6 124.524 18.3052 124.302 18.0499C124.219 17.9553 124.118 17.8786 124.005 17.8243C123.891 17.77 123.767 17.7394 123.641 17.7343C123.517 17.7378 123.396 17.7682 123.285 17.8233C123.174 17.8785 123.077 17.9571 122.999 18.0536C122.775 18.309 122.6 18.6035 122.484 18.9223C122.325 19.3391 122.207 19.7706 122.133 20.2105C121.957 21.2463 121.957 22.3043 122.133 23.3401C122.204 23.7759 122.321 24.2028 122.484 24.6135C122.604 24.9259 122.779 25.2149 122.999 25.4673C123.076 25.5637 123.174 25.642 123.285 25.6966C123.396 25.7511 123.518 25.7806 123.641 25.7829Z" fill="#FCB45E"/>
<path d="M124.519 16.7913C125.668 14.085 127.878 10.9591 130.864 10.1387C133.75 9.35162 137.132 9.48527 139.737 10.974L139.189 8.92469C137.934 10.9925 136.628 13.0789 134.911 14.8052C132.876 16.8619 130.719 17.6526 127.867 18.0498C125.952 18.3208 126.766 21.2017 128.673 20.9455C135.123 20.0434 138.588 15.7481 141.801 10.4394C141.998 10.0944 142.051 9.68696 141.95 9.30358C141.849 8.9202 141.601 8.59115 141.26 8.38639C137.755 6.38168 133.048 6.15894 129.226 7.4917C125.571 8.7762 123.029 12.6111 121.6 15.9894C120.853 17.7714 123.765 18.5473 124.511 16.7876L124.519 16.7913Z" fill="#FCB45E"/>
<path d="M42.6248 7.03511C36.9248 2.89204 29.8176 -0.0147896 22.7439 2.17925C15.2223 4.51066 10.2801 14.7384 1.65735 13.1458L1.25794 16.1157C6.18897 16.5909 10.0785 20.062 14.7483 21.3465C19.0562 22.4813 23.6075 22.3042 27.8131 20.8379C29.6533 20.2291 28.4887 17.4596 26.6484 18.0647C22.0563 19.6246 17.0386 19.3816 12.6206 17.3854C8.9587 15.7482 5.75596 13.5319 1.65735 13.1458C-0.27997 12.9601 -0.65325 15.7705 1.25794 16.1157C8.38758 17.4373 13.2029 12.0989 18.2608 8.09686C25.5211 2.37973 33.7557 4.29534 40.7659 9.39621C42.3374 10.5434 44.2 8.18225 42.6248 7.03511Z" fill="#FCB45E"/>
<path d="M77.6422 3.28554C77.6407 2.85893 77.6845 2.43336 77.7728 2.01589C77.8475 1.65261 77.9666 1.29978 78.1275 0.965274C78.2423 0.698778 78.4128 0.459609 78.6277 0.263625C78.7974 0.106942 79.0195 0.018333 79.251 0.0148926C79.4859 0.0183764 79.7115 0.106794 79.8856 0.263625C80.109 0.455276 80.2852 0.695307 80.4007 0.965274C80.5587 1.29415 80.6764 1.64063 80.7516 1.99733C80.8418 2.41577 80.8856 2.84277 80.8823 3.27069C80.8866 3.69111 80.8441 4.11071 80.7553 4.52178C80.6779 4.87546 80.5602 5.21922 80.4045 5.54641C80.2809 5.8126 80.1029 6.05029 79.8819 6.24435C79.7062 6.40114 79.4795 6.48948 79.2436 6.49308C79.0121 6.48894 78.7903 6.40043 78.6202 6.24435C78.4053 6.04907 78.2336 5.81136 78.1163 5.54641C77.9561 5.22197 77.837 4.87905 77.7616 4.52549C77.6773 4.11762 77.6372 3.70192 77.6422 3.28554Z" fill="#FCB45E"/>
<path d="M74.5775 6.62674C74.3315 6.42695 74.1075 6.2017 73.9094 5.95479C73.7367 5.74272 73.5901 5.51091 73.4726 5.26428C73.3768 5.07214 73.3221 4.86228 73.3121 4.64802C73.3016 4.47562 73.3547 4.30534 73.4614 4.16911C73.5765 4.03618 73.7352 3.94806 73.9094 3.92038C74.1231 3.88553 74.3418 3.89565 74.5514 3.95008C74.8181 4.01853 75.076 4.11692 75.3204 4.24336C75.6 4.39086 75.8639 4.56625 76.108 4.76681C76.3536 4.96711 76.5775 5.19231 76.7761 5.43876C76.9443 5.6499 77.0883 5.87901 77.2054 6.12185C77.3014 6.31639 77.3548 6.52896 77.3622 6.74554C77.3685 6.91972 77.313 7.09057 77.2054 7.22815C77.0945 7.36107 76.9372 7.4473 76.7649 7.46946C76.5522 7.50302 76.3347 7.49163 76.1266 7.43605C75.867 7.37126 75.6163 7.27527 75.3801 7.15019C75.093 7.00733 74.8237 6.83166 74.5775 6.62674Z" fill="#FCB45E"/>
<path d="M83.331 6.80865C83.0943 6.93099 82.8436 7.02448 82.5844 7.08708C82.3814 7.14257 82.1688 7.15396 81.961 7.12049C81.7933 7.09934 81.6399 7.01576 81.5318 6.88661C81.4245 6.75335 81.37 6.58561 81.3787 6.41513C81.3849 6.20519 81.4358 5.99894 81.528 5.81C81.6414 5.57218 81.7817 5.34799 81.9461 5.14177C82.1408 4.90233 82.3597 4.68339 82.5993 4.48838C82.8356 4.29063 83.0936 4.12001 83.3683 3.97978C83.6055 3.85682 83.856 3.76093 84.1148 3.69392C84.3196 3.64145 84.5331 3.63134 84.742 3.66422C84.9115 3.68649 85.0662 3.77224 85.1744 3.904C85.2826 4.03575 85.3362 4.20359 85.3243 4.37329C85.3137 4.58111 85.2604 4.78455 85.1675 4.971C85.0524 5.21185 84.9096 5.43859 84.742 5.64666C84.5482 5.88697 84.3292 6.106 84.0887 6.30004C83.8578 6.49949 83.6033 6.67028 83.331 6.80865Z" fill="#FCB45E"/>
</svg>
