<svg width="143" height="37" viewBox="0 0 143 37" fill="none" xmlns="http://www.w3.org/2000/svg">
<path d="M38.941 25.7829C39.2338 26.2352 39.5697 26.6582 39.944 27.0459C40.2584 27.3561 40.5316 27.6177 40.7711 27.8344C40.9812 28.0223 41.1684 28.2343 41.3288 28.4659C41.4744 28.6969 41.5462 28.9667 41.5346 29.2394C41.5346 29.75 41.1816 30.1586 40.4755 30.465C39.6227 30.7921 38.7126 30.9446 37.7996 30.9134C36.9046 30.9353 36.0118 30.8168 35.1536 30.5622C34.9712 30.5211 34.7995 30.4419 34.6499 30.3298C34.5003 30.2177 34.3761 30.0753 34.2856 29.9118C34.1951 29.7484 34.1403 29.5677 34.1248 29.3816C34.1092 29.1955 34.1334 29.0082 34.1955 28.8321C34.2442 28.6507 34.2581 28.4618 34.2367 28.2753C34.2067 28.0023 34.1361 27.7353 34.0271 27.4831C33.8572 27.0785 33.629 26.7009 33.3497 26.3621C33.2546 26.2277 33.1468 26.1025 33.0279 25.9885L32.3205 25.215L31.6132 24.4191L31.2165 23.9931V25.6671C31.2099 25.9802 31.2861 26.2895 31.4373 26.5639C31.587 26.8292 31.7442 27.0945 31.9201 27.3561C32.1001 27.6192 32.2626 27.8938 32.4066 28.1782C32.5606 28.4826 32.6376 28.8199 32.6312 29.1609C32.6379 29.4562 32.5276 29.7422 32.3243 29.9568C32.0895 30.1915 31.8021 30.367 31.486 30.4687C31.0858 30.6077 30.6717 30.703 30.2509 30.7527C29.2563 30.8683 28.2516 30.8683 27.2569 30.7527C26.8362 30.7047 26.4221 30.6107 26.0219 30.4725C25.7051 30.3715 25.4166 30.1974 25.1798 29.9643C24.9751 29.7503 24.8635 29.4642 24.8692 29.1684C24.8587 28.8327 24.9293 28.4995 25.075 28.1968C25.221 27.9128 25.3782 27.6401 25.5429 27.371C25.7075 27.102 25.8685 26.8442 26.0144 26.5789C26.1645 26.3042 26.2394 25.9948 26.2315 25.6821V16.4637C26.2358 16.1508 26.1598 15.8421 26.0107 15.5669C25.8647 15.3053 25.7038 15.04 25.5391 14.7747C25.3744 14.5094 25.2135 14.2404 25.0676 13.9526C24.915 13.6477 24.838 13.3107 24.843 12.9699C24.8373 12.6759 24.9475 12.3914 25.1499 12.1777C25.3894 11.9464 25.6769 11.7704 25.992 11.6621C26.3906 11.5237 26.8037 11.431 27.2232 11.3855C27.7198 11.3228 28.2198 11.2916 28.7202 11.2921H29.5661C29.8879 11.2921 30.2023 11.3183 30.4942 11.3332C30.846 11.3519 31.2015 11.3631 31.5833 11.3631C32.6386 11.3592 33.6918 11.4606 34.727 11.6658C35.7159 11.8526 36.6693 12.193 37.5526 12.6747C38.3754 13.1241 39.0777 13.765 39.5997 14.543C40.1423 15.4028 40.4159 16.4045 40.3857 17.4203C40.4201 18.5486 40.0966 19.6589 39.4613 20.5927C38.8439 21.4839 38.0441 22.234 37.1147 22.7936L38.3684 24.8488C38.7127 25.428 38.9223 25.7344 38.941 25.7829ZM32.2906 22.6404C32.7398 22.6486 33.1773 22.4976 33.5256 22.2144C33.8999 21.9014 34.2002 21.5097 34.4051 21.0673C34.6552 20.5406 34.8327 19.9825 34.9328 19.4082C35.05 18.7684 35.1076 18.1192 35.105 17.4688C35.1125 16.8472 35.0228 16.2282 34.8392 15.6341C34.6713 15.111 34.4059 14.6241 34.0571 14.1993C33.7274 13.7924 33.3088 13.4664 32.8333 13.2464C32.3119 13.0104 31.7438 12.8954 31.1716 12.9101V21.5568C31.1639 21.7447 31.2052 21.9314 31.2913 22.0986C31.3572 22.2301 31.4534 22.3441 31.572 22.4311C31.6754 22.5118 31.7956 22.568 31.9238 22.5956C32.0436 22.6267 32.1669 22.6417 32.2906 22.6404Z" fill="white"/>
<path d="M49.0267 25.7009C49.0236 26.0141 49.101 26.3228 49.2512 26.5977C49.4009 26.8593 49.5544 27.1209 49.7228 27.3862C49.8912 27.6515 50.0446 27.9205 50.1943 28.1933C50.3478 28.4937 50.4237 28.8277 50.4152 29.1648C50.4152 29.8075 50.0621 30.2472 49.356 30.4839C48.4952 30.7516 47.5965 30.8778 46.6951 30.8575C45.789 30.874 44.886 30.7479 44.0192 30.4839C43.3119 30.2484 42.9601 29.8113 42.9601 29.1648C42.9489 28.8278 43.0236 28.4936 43.1771 28.1933C43.3243 27.9193 43.4815 27.6502 43.6487 27.3862C43.8134 27.1209 43.9668 26.8593 44.1165 26.594C44.2657 26.3188 44.3417 26.01 44.3373 25.6972V21.2617C44.3491 20.9945 44.27 20.7311 44.1128 20.5144C43.9738 20.3464 43.8238 20.1879 43.6637 20.0399C43.4914 19.8891 43.3336 19.7227 43.1921 19.5429C43.0276 19.2959 42.9487 19.0019 42.9676 18.7059C42.9771 18.5314 43.0242 18.3609 43.1056 18.2062C43.1869 18.0515 43.3007 17.916 43.4391 17.8091C43.7952 17.4932 44.2028 17.2405 44.6442 17.0617C45.6902 16.6344 46.8075 16.4075 47.9376 16.3929C48.0901 16.3876 48.2417 16.4187 48.3797 16.4837C48.5177 16.5487 48.6381 16.6457 48.731 16.7665C48.9066 16.953 49.0112 17.1949 49.0267 17.4503V25.7009ZM46.6914 15.3204C46.2552 15.3246 45.8214 15.2564 45.4077 15.1186C45.028 14.9938 44.6705 14.8097 44.3485 14.5731C44.0609 14.3598 43.8212 14.0887 43.645 13.7772C43.4765 13.4772 43.3901 13.1383 43.3942 12.7944C43.3911 12.4464 43.476 12.1032 43.6412 11.7967C43.8128 11.4789 44.0532 11.2032 44.3448 10.9896C44.6602 10.7513 45.013 10.5669 45.389 10.4441C45.8015 10.3057 46.2337 10.235 46.6689 10.2348C47.099 10.2337 47.5263 10.3032 47.9339 10.4403C48.3043 10.5635 48.652 10.7466 48.9631 10.9821C49.254 11.1975 49.4952 11.4728 49.6704 11.7893C49.8351 12.0961 49.9212 12.4388 49.9211 12.787C49.9253 13.1308 49.8388 13.4697 49.6704 13.7697C49.5005 14.0832 49.2658 14.3571 48.9818 14.5731C48.6715 14.8079 48.3252 14.9908 47.9563 15.1149C47.5496 15.2555 47.1217 15.3251 46.6914 15.3204Z" fill="white"/>
<path d="M66.9088 25.6745C66.904 25.9867 66.9814 26.2946 67.1333 26.5675C67.2793 26.8328 67.4365 27.0981 67.6012 27.3597C67.7658 27.6213 67.9268 27.8941 68.0765 28.1706C68.2298 28.4684 68.3057 28.7999 68.2973 29.1346C68.2973 29.7848 67.9442 30.227 67.2381 30.4612C66.3698 30.7158 65.467 30.8343 64.5622 30.8124C63.661 30.8362 62.7617 30.7177 61.8976 30.4612C61.194 30.2295 60.8384 29.7886 60.8384 29.1458C60.8308 28.8088 60.9067 28.4751 61.0592 28.1743C61.2052 27.9053 61.3624 27.6325 61.5271 27.3709C61.6917 27.1094 61.8489 26.8441 61.9986 26.5787C62.1482 26.3039 62.2231 25.9947 62.2157 25.6819V21.5716C62.2525 20.6683 62.1153 19.7664 61.8115 18.9148C61.7136 18.6207 61.5228 18.3663 61.2677 18.1897C61.0126 18.0132 60.707 17.9241 60.3968 17.9358C60.0134 17.9247 59.6383 18.049 59.3377 18.2871C59.0232 18.5503 58.7605 18.8696 58.563 19.2287C58.3442 19.6187 58.1817 20.0376 58.0802 20.473C57.9763 20.895 57.9223 21.3277 57.9193 21.7622V25.6857C57.914 25.9991 57.9915 26.3084 58.1438 26.5825C58.286 26.8441 58.447 27.1094 58.6116 27.3709C58.7763 27.6325 58.9372 27.9053 59.0869 28.1743C59.24 28.4736 59.3158 28.8062 59.3077 29.1421C59.3077 29.7848 58.9547 30.2257 58.2486 30.4649C56.4997 30.9357 54.657 30.9357 52.9081 30.4649C52.2045 30.2295 51.8489 29.7923 51.8489 29.1421C51.8421 28.8059 51.9193 28.4733 52.0735 28.1743C52.2157 27.9015 52.3729 27.6288 52.5375 27.3635C52.7022 27.0982 52.8631 26.8366 53.0091 26.5713C53.1587 26.2978 53.2336 25.9898 53.2262 25.6782V21.2577C53.2368 20.9912 53.1592 20.7285 53.0054 20.5104C52.8594 20.3379 52.7005 20.1767 52.5301 20.0284C52.3608 19.8743 52.2044 19.7069 52.0622 19.5276C51.8978 19.282 51.8189 18.9892 51.8377 18.6944C51.8468 18.5198 51.8936 18.3492 51.975 18.1944C52.0564 18.0396 52.1705 17.9042 52.3093 17.7976C52.6761 17.4774 53.0968 17.2244 53.5518 17.0502C54.0723 16.8327 54.6142 16.6699 55.1685 16.5645C55.7199 16.4478 56.2816 16.3864 56.8452 16.3814C56.9979 16.3779 57.1494 16.4098 57.2878 16.4746C57.4261 16.5395 57.5474 16.6354 57.6423 16.755C57.8181 16.9499 57.9212 17.1993 57.9342 17.4613V17.9283C58.1812 17.4461 58.5636 17.0462 59.0345 16.7775C59.4935 16.5276 60.0088 16.399 60.5316 16.4038C61.4302 16.3892 62.3277 16.4744 63.2074 16.6579C63.9255 16.8135 64.6042 17.1135 65.2022 17.5397C65.7583 17.9494 66.1908 18.504 66.4522 19.1428C66.7627 19.9269 66.9091 20.7662 66.8826 21.609L66.9088 25.6745Z" fill="white"/>
<path d="M82.2307 25.6523C82.2297 25.9641 82.3069 26.2711 82.4552 26.5454C82.6012 26.807 82.7621 27.0723 82.9268 27.3376C83.0915 27.6029 83.2524 27.8682 83.3984 28.1447C83.5514 28.444 83.6273 28.7766 83.6192 29.1125C83.6192 29.7577 83.2661 30.1986 82.56 30.4353C81.6932 30.6993 80.7902 30.8254 79.8841 30.809C79.4963 30.8229 79.1109 30.7421 78.7614 30.5735C78.4955 30.4422 78.2558 30.2637 78.054 30.0467C77.8363 29.8354 77.6654 29.5808 77.5526 29.2993C77.2554 29.7963 76.8285 30.2031 76.3175 30.4764C75.7938 30.7228 75.2196 30.8431 74.6409 30.8276C73.7533 30.8399 72.8743 30.6532 72.0686 30.2813C71.2629 29.9095 70.5509 29.362 69.9852 28.6791C69.4193 28.0075 68.9931 27.2301 68.7314 26.3922C68.4428 25.4797 68.2977 24.528 68.3011 23.571C68.2932 22.6107 68.4514 21.6563 68.7689 20.7498C69.0541 19.9108 69.507 19.1384 70.1001 18.4794C70.6933 17.8203 71.4143 17.2885 72.2195 16.916C73.0706 16.5232 73.9989 16.3253 74.9365 16.3368C75.1453 16.3435 75.3526 16.3749 75.5541 16.4302C75.8088 16.4911 76.0589 16.5697 76.3026 16.6656C76.5542 16.7577 76.7921 16.8834 77.0099 17.0393C77.2299 17.1949 77.4265 17.3811 77.5937 17.5923V12.7048C77.6086 12.4313 77.5294 12.161 77.3692 11.9387C77.2197 11.7659 77.0584 11.6035 76.8864 11.453C76.7163 11.3012 76.5598 11.1349 76.4186 10.956C76.2525 10.7097 76.1735 10.4152 76.194 10.119C76.2031 9.94384 76.2499 9.7727 76.3313 9.61728C76.4126 9.46186 76.5267 9.32581 76.6656 9.21845C77.0191 8.90104 77.4257 8.64808 77.8669 8.47111C78.9058 8.03186 80.021 7.80079 81.1491 7.79104C81.2996 7.784 81.4497 7.81208 81.5874 7.87305C81.7251 7.93402 81.8467 8.0262 81.9425 8.14229C82.1222 8.33469 82.2259 8.5856 82.2344 8.84852L82.2307 25.6523ZM77.5638 21.0899C77.5636 20.6751 77.5044 20.2624 77.3879 19.8642C77.2812 19.5013 77.121 19.1562 76.9126 18.8404C76.7297 18.5649 76.4898 18.3317 76.209 18.1566C75.967 17.9996 75.6854 17.9141 75.3969 17.91C75.2236 17.9148 75.0536 17.9578 74.8989 18.036C74.7443 18.1142 74.6089 18.2255 74.5024 18.3621C74.2039 18.7213 73.9754 19.1332 73.8288 19.5765C73.6238 20.1577 73.4808 20.7589 73.4021 21.3701C73.2076 22.836 73.2076 24.321 73.4021 25.7869C73.4825 26.3977 73.6255 26.9987 73.8288 27.5805C73.9794 28.0224 74.2103 28.4328 74.5099 28.7912C74.6166 28.9284 74.7525 29.0402 74.9079 29.1184C75.0633 29.1966 75.2341 29.2393 75.4081 29.2433C75.5726 29.2375 75.7339 29.1964 75.8811 29.1229C76.0283 29.0494 76.158 28.9452 76.2614 28.8173C76.5393 28.5017 76.7666 28.145 76.935 27.7598C77.1345 27.315 77.2863 26.8503 77.3879 26.3735C77.4919 25.9111 77.5458 25.4388 77.5488 24.9648L77.5638 21.0899Z" fill="white"/>
<path d="M97.8261 27.771C97.8997 27.7705 97.9729 27.7592 98.0432 27.7373C98.134 27.71 98.2295 27.7011 98.3239 27.7112C98.3694 27.717 98.413 27.7331 98.4513 27.7584C98.4895 27.7836 98.5215 27.8174 98.5447 27.8569C98.6174 28.008 98.6484 28.1757 98.6345 28.3427C98.6414 28.7186 98.5567 29.0905 98.3875 29.4263C98.2257 29.722 97.9993 29.9774 97.725 30.1737C97.4404 30.3832 97.1212 30.5413 96.7819 30.6407C96.4163 30.7416 96.0385 30.7919 95.6592 30.7902C95.1534 30.8082 94.648 30.7451 94.1622 30.6034C93.8484 30.5037 93.5509 30.359 93.2789 30.1737C93.0556 30.0155 92.8744 29.8051 92.7513 29.5608C92.2884 30.0228 91.7172 30.3619 91.0896 30.5473C90.4727 30.7163 89.8356 30.8005 89.1959 30.7977C87.8386 30.7977 86.7782 30.5012 86.0147 29.9084C85.2662 29.3105 84.8658 28.3875 84.8658 27.1357C84.8553 26.5651 84.996 26.0017 85.2737 25.5028C85.5466 25.0219 85.9056 24.595 86.3328 24.2436C86.7934 23.8674 87.2957 23.5452 87.8298 23.2832C88.3906 23.0051 88.9652 22.7557 89.5514 22.5359C90.139 22.3154 90.7078 22.1286 91.258 21.9604C91.8081 21.7923 92.2947 21.6092 92.7251 21.4448V19.909C92.7294 19.4019 92.5678 18.9073 92.2647 18.5003C92.122 18.2961 91.9297 18.1314 91.7058 18.0216C91.482 17.9119 91.2339 17.8606 90.9848 17.8725C90.8073 17.8623 90.6318 17.9137 90.4879 18.0178C90.344 18.122 90.2406 18.2727 90.1951 18.4442C90.0483 18.8746 89.9786 19.3274 89.9893 19.782C90.0068 20.0853 89.949 20.3882 89.8209 20.6638C89.7005 20.8883 89.5363 21.0865 89.3381 21.2467C89.1463 21.4168 88.9205 21.5442 88.6757 21.6204C88.4469 21.6867 88.2102 21.7219 87.9721 21.725C87.7319 21.7205 87.4937 21.6815 87.2647 21.6092C86.9948 21.5305 86.7412 21.4039 86.5162 21.2355C86.2485 21.028 86.0342 20.7598 85.891 20.453C85.7478 20.1463 85.6799 19.81 85.6929 19.4718C85.6896 19.0532 85.8121 18.6431 86.0447 18.2948C86.329 17.8959 86.6951 17.5622 87.1188 17.3158C87.6086 16.9996 88.1402 16.7531 88.6981 16.5834C89.3634 16.3998 90.0513 16.3105 90.7415 16.3181C91.6728 16.2984 92.5984 16.4675 93.4623 16.815C94.2604 17.1415 94.9818 17.6302 95.5806 18.2499C96.1732 18.8851 96.6325 19.6321 96.9316 20.4471C97.254 21.3317 97.4137 22.2672 97.4032 23.2085V26.9937C97.4107 27.5169 97.5492 27.771 97.8261 27.771ZM92.7475 22.9918C90.8064 23.49 89.8371 24.763 89.8396 26.8107C89.8308 27.1898 89.8813 27.568 89.9893 27.9317C90.061 28.1859 90.1889 28.4208 90.3635 28.6192C90.4898 28.7596 90.6437 28.8725 90.8157 28.9509C90.9876 29.0294 91.1738 29.0716 91.3628 29.0751C91.5582 29.0627 91.7476 29.0023 91.9141 28.8993C92.0805 28.7963 92.219 28.6539 92.3171 28.4847C92.6413 27.9369 92.7901 27.3033 92.7438 26.6687L92.7475 22.9918Z" fill="white"/>
<path d="M114.993 25.6001C114.986 25.912 115.063 26.2199 115.213 26.4932C115.358 26.7572 115.515 27.0225 115.685 27.2891C115.85 27.5506 116.011 27.8197 116.156 28.0962C116.311 28.3952 116.388 28.7278 116.381 29.064C116.381 29.7104 116.007 30.1476 115.322 30.3868C113.574 30.8551 111.733 30.8551 109.985 30.3868C109.279 30.1551 108.926 29.7167 108.926 29.0715C108.914 28.7368 108.989 28.4049 109.143 28.1074C109.289 27.8309 109.446 27.5618 109.611 27.2965C109.776 27.0312 109.936 26.7697 110.079 26.5044C110.232 26.232 110.308 25.9234 110.299 25.6113V21.501C110.329 20.5948 110.188 19.691 109.884 18.8367C109.788 18.5405 109.598 18.2834 109.343 18.1042C109.088 17.925 108.781 17.8332 108.469 17.8428C108.086 17.8293 107.71 17.9539 107.41 18.194C107.095 18.4548 106.832 18.7731 106.636 19.1319C106.419 19.5285 106.26 19.9537 106.164 20.3949C106.061 20.817 106.009 21.2497 106.007 21.6841V25.6076C106.004 25.9202 106.08 26.2286 106.228 26.5044C106.377 26.7697 106.534 27.0312 106.703 27.2928C106.871 27.5544 107.025 27.8271 107.174 28.0962C107.325 28.3964 107.399 28.7286 107.392 29.064C107.397 29.3702 107.296 29.6688 107.106 29.9097C106.917 30.1506 106.65 30.319 106.351 30.3868C105.49 30.6451 104.593 30.7637 103.694 30.738C102.788 30.76 101.884 30.6415 101.014 30.3868C100.311 30.1514 99.9552 29.7142 99.9552 29.0677C99.9475 28.7307 100.023 28.3969 100.176 28.0962C100.326 27.8234 100.479 27.5506 100.644 27.2891C100.808 27.0275 100.969 26.7585 101.115 26.4932C101.265 26.2185 101.34 25.9091 101.332 25.5964V21.1833C101.347 20.9163 101.269 20.6523 101.112 20.436C100.969 20.2618 100.811 20.1005 100.64 19.954C100.467 19.7922 100.307 19.6173 100.161 19.4308C99.9989 19.1831 99.9226 18.889 99.9439 18.5938C99.9516 18.4193 99.9974 18.2486 100.078 18.0936C100.159 17.9387 100.273 17.8033 100.412 17.697C100.768 17.3814 101.176 17.1286 101.617 16.9497C102.139 16.7356 102.68 16.5729 103.234 16.4639C103.784 16.352 104.344 16.292 104.907 16.2846C105.057 16.2769 105.207 16.3047 105.345 16.3658C105.483 16.4268 105.604 16.5193 105.7 16.6358C105.88 16.8288 105.986 17.0788 105.999 17.342V17.8091C106.247 17.329 106.629 16.9316 107.1 16.6657C107.57 16.407 108.101 16.278 108.638 16.292C109.537 16.2781 110.434 16.3659 111.314 16.5536C112.034 16.6967 112.715 16.9909 113.312 17.4168C113.868 17.8245 114.302 18.3762 114.566 19.0123C114.873 19.7988 115.019 20.6385 114.996 21.4823L114.993 25.6001Z" fill="white"/>
<path d="M129.386 13.5717C129.618 13.5608 129.849 13.5995 130.065 13.6852C130.28 13.771 130.475 13.9017 130.636 14.0687C130.791 14.2156 130.914 14.3923 130.998 14.5883C131.083 14.7842 131.126 14.9952 131.126 15.2084C131.138 15.5806 131.04 15.9482 130.846 16.2659C130.669 16.5461 130.426 16.7784 130.138 16.9422C129.828 17.1175 129.49 17.2377 129.139 17.2972C128.768 17.3648 128.393 17.4098 128.016 17.4317C128.778 17.9205 129.418 18.5761 129.888 19.3486C130.317 20.0512 130.56 20.8512 130.595 21.6734C130.629 22.4956 130.454 23.3132 130.086 24.0494C129.74 24.7254 129.26 25.3241 128.675 25.8093C128.044 26.3333 127.326 26.7431 126.553 27.02C125.724 27.3191 124.848 27.4697 123.967 27.4647C122.829 27.4647 121.977 27.7001 121.411 28.1709C120.895 28.5554 120.535 29.1125 120.397 29.7403C120.283 30.2819 120.39 30.8462 120.692 31.3097C120.843 31.5432 121.054 31.7319 121.303 31.8561C121.552 31.9803 121.829 32.0355 122.107 32.0159C122.464 32.0308 122.814 31.9152 123.091 31.6909C123.341 31.4647 123.548 31.1966 123.705 30.8987C123.87 30.5848 124.034 30.2373 124.188 29.8674C124.338 29.5066 124.525 29.1623 124.745 28.8398C124.966 28.524 125.245 28.2538 125.569 28.0439C125.97 27.8117 126.43 27.7001 126.894 27.7225C127.463 27.7068 128.03 27.7903 128.57 27.9691C129.001 28.1105 129.397 28.3395 129.734 28.6417C130.018 28.9 130.244 29.2145 130.399 29.5652C130.553 29.9159 130.633 30.295 130.632 30.6782C130.633 30.9905 130.579 31.3005 130.471 31.5937C130.367 31.8816 130.214 32.1495 130.019 32.3859C129.811 32.6261 129.557 32.8208 129.27 32.9576C128.969 33.1069 128.637 33.1825 128.301 33.178C128.065 33.2 127.827 33.171 127.604 33.093C127.38 33.015 127.176 32.8898 127.006 32.7259C126.737 32.4353 126.531 32.0917 126.403 31.717C126.276 31.3433 126.175 31.0033 126.104 30.7006C126.033 30.398 125.906 30.2448 125.707 30.2448C125.509 30.2448 125.389 30.4166 125.4 30.7455C125.412 31.0743 125.445 31.4928 125.505 31.9935C125.565 32.4942 125.61 33.051 125.64 33.6227C125.675 34.1772 125.596 34.733 125.408 35.2556C125.217 35.7593 124.88 36.1942 124.438 36.5037C123.823 36.8667 123.112 37.0372 122.399 36.9932C121.598 37.0127 120.808 36.8054 120.12 36.3953C119.473 36.0056 118.92 35.4788 118.499 34.8521C118.072 34.2126 117.781 33.4929 117.642 32.7371C117.496 31.9655 117.496 31.1734 117.642 30.4017C117.791 29.619 118.112 28.8789 118.581 28.2344C119.098 27.5389 119.779 26.9828 120.565 26.6164C119.642 26.1615 118.85 25.4801 118.263 24.636C117.766 23.9186 117.468 23.0815 117.403 22.2112C117.337 21.3409 117.505 20.4688 117.889 19.6849C118.231 18.9957 118.713 18.3849 119.304 17.8913C119.927 17.3721 120.636 16.965 121.4 16.6881C122.225 16.3903 123.097 16.2398 123.974 16.2434C124.26 16.2428 124.545 16.2627 124.828 16.3032C125.101 16.3406 125.378 16.3854 125.651 16.4452C125.863 16.5002 126.085 16.4995 126.296 16.4432C126.507 16.3868 126.7 16.2768 126.856 16.1239C127.12 15.8126 127.346 15.4714 127.53 15.1075C127.725 14.7361 127.951 14.3823 128.207 14.05C128.352 13.8832 128.534 13.7529 128.739 13.6698C128.944 13.5867 129.166 13.5531 129.386 13.5717ZM123.963 25.9364C124.09 25.9331 124.215 25.9027 124.329 25.8473C124.443 25.7918 124.545 25.7126 124.626 25.615C124.855 25.365 125.034 25.0732 125.153 24.7556C125.318 24.3426 125.438 23.9128 125.509 23.4739C125.598 22.9481 125.641 22.4154 125.636 21.8821C125.639 21.3598 125.595 20.8383 125.505 20.3239C125.422 19.8808 125.297 19.4466 125.131 19.0273C125.019 18.7066 124.848 18.4099 124.626 18.1529C124.543 18.0577 124.441 17.9804 124.327 17.9258C124.213 17.8712 124.089 17.8404 123.963 17.8353C123.839 17.8388 123.717 17.8694 123.606 17.9249C123.495 17.9804 123.397 18.0595 123.319 18.1566C123.095 18.4137 122.919 18.7101 122.803 19.031C122.643 19.4505 122.525 19.8849 122.451 20.3276C122.274 21.3702 122.274 22.4351 122.451 23.4776C122.522 23.9163 122.64 24.346 122.803 24.7593C122.923 25.0738 123.098 25.3647 123.319 25.6188C123.397 25.7158 123.494 25.7946 123.606 25.8495C123.717 25.9044 123.839 25.9341 123.963 25.9364Z" fill="white"/>
<path d="M124.842 16.8859C125.995 14.1619 128.211 11.0156 131.205 10.1898C134.097 9.39764 137.488 9.53216 140.1 11.0306L139.55 8.96792C138.293 11.0492 136.983 13.1493 135.261 14.8868C133.222 16.9569 131.059 17.7528 128.199 18.1527C126.279 18.4254 127.095 21.3251 129.008 21.0673C135.475 20.1593 138.948 15.8359 142.17 10.4925C142.367 10.1453 142.42 9.73517 142.319 9.34928C142.218 8.96339 141.97 8.63219 141.627 8.4261C138.113 6.40829 133.394 6.18409 129.562 7.52556C125.898 8.81845 123.349 12.6784 121.916 16.0788C121.167 17.8724 124.086 18.6534 124.835 16.8822L124.842 16.8859Z" fill="white"/>
<path d="M42.7357 7.06581C37.0209 2.89569 29.8952 -0.030129 22.8031 2.17825C15.262 4.52488 10.3069 14.8194 1.66166 13.2164L1.26122 16.2057C6.20507 16.684 10.1048 20.1778 14.7867 21.4707C19.1058 22.6129 23.6689 22.4346 27.8854 20.9588C29.7305 20.346 28.5628 17.5584 26.7178 18.1675C22.1137 19.7376 17.0829 19.493 12.6534 17.4837C8.98202 15.8358 5.77094 13.605 1.66166 13.2164C-0.280699 13.0295 -0.65495 15.8582 1.26122 16.2057C8.40941 17.536 13.2373 12.1626 18.3084 8.1345C25.5875 2.38003 33.8435 4.30815 40.872 9.44234C42.4476 10.597 44.3151 8.22045 42.7357 7.06581Z" fill="white"/>
<path d="M77.8442 3.29201C77.8427 2.86262 77.8866 2.43426 77.9751 2.01407C78.05 1.64841 78.1694 1.29328 78.3307 0.956589C78.4458 0.688352 78.6168 0.447621 78.8322 0.250357C79.0024 0.0926511 79.225 0.00346285 79.4572 0C79.6927 0.0035066 79.9188 0.0925018 80.0934 0.250357C80.3174 0.44326 80.494 0.684859 80.6099 0.956589C80.7682 1.28761 80.8863 1.63635 80.9617 1.99538C81.0521 2.41656 81.096 2.84634 81.0927 3.27706C81.0971 3.70023 81.0544 4.12257 80.9654 4.53632C80.8877 4.89232 80.7697 5.23832 80.6136 5.56765C80.4897 5.83558 80.3113 6.07482 80.0897 6.27014C79.9136 6.42796 79.6863 6.51687 79.4497 6.5205C79.2177 6.51633 78.9953 6.42724 78.8247 6.27014C78.6092 6.07358 78.4371 5.83433 78.3195 5.56765C78.1589 5.24109 78.0395 4.89593 77.9639 4.54006C77.8794 4.12953 77.8392 3.71111 77.8442 3.29201Z" fill="white"/>
<path d="M74.772 6.65523C74.5253 6.45414 74.3007 6.22741 74.1021 5.97889C73.9289 5.76543 73.782 5.53211 73.6642 5.28387C73.5681 5.09047 73.5133 4.87924 73.5033 4.66358C73.4927 4.49006 73.5459 4.31866 73.653 4.18155C73.7684 4.04775 73.9275 3.95906 74.1021 3.93119C74.3164 3.89612 74.5357 3.9063 74.7458 3.96109C75.0132 4.02998 75.2718 4.12902 75.5167 4.25628C75.7972 4.40475 76.0617 4.58128 76.3064 4.78316C76.5526 4.98476 76.7771 5.21143 76.9763 5.45949C77.1449 5.67201 77.2893 5.90261 77.4067 6.14704C77.503 6.34285 77.5565 6.55681 77.5639 6.7748C77.5702 6.95013 77.5146 7.12209 77.4067 7.26057C77.2956 7.39436 77.1378 7.48114 76.9651 7.50345C76.7518 7.53723 76.5337 7.52577 76.3251 7.46982C76.0649 7.40461 75.8135 7.30799 75.5766 7.1821C75.2888 7.03831 75.0188 6.86149 74.772 6.65523Z" fill="white"/>
<path d="M83.5481 6.83828C83.3108 6.96143 83.0595 7.05552 82.7996 7.11853C82.5961 7.17438 82.3829 7.18585 82.1746 7.15216C82.0065 7.13087 81.8527 7.04675 81.7442 6.91675C81.6366 6.78262 81.582 6.61379 81.5907 6.44219C81.5969 6.23088 81.648 6.02328 81.7404 5.83311C81.8541 5.59374 81.9947 5.36808 82.1596 5.16051C82.3548 4.91951 82.5743 4.69914 82.8145 4.50286C83.0514 4.30381 83.3101 4.13209 83.5855 3.99093C83.8233 3.86717 84.0744 3.77065 84.334 3.70321C84.5393 3.6504 84.7533 3.64022 84.9628 3.67332C85.1328 3.69573 85.2878 3.78204 85.3963 3.91466C85.5048 4.04728 85.5585 4.21621 85.5466 4.38702C85.536 4.59619 85.4825 4.80096 85.3894 4.98863C85.274 5.23105 85.1309 5.45928 84.9628 5.6687C84.7685 5.91058 84.549 6.13105 84.3078 6.32635C84.0763 6.5271 83.8212 6.69901 83.5481 6.83828Z" fill="white"/>
</svg>
