<svg width="142" height="41" viewBox="0 0 142 41" fill="none" xmlns="http://www.w3.org/2000/svg">
<path d="M38.8397 28.4573C39.1318 28.9565 39.4668 29.4234 39.8401 29.8513C40.1537 30.1936 40.4262 30.4823 40.6651 30.7215C40.8746 30.9289 41.0613 31.1629 41.2213 31.4185C41.3665 31.6735 41.4381 31.9713 41.4266 32.2723C41.4266 32.8359 41.0744 33.2868 40.3702 33.625C39.5196 33.9861 38.6119 34.1544 37.7012 34.1199C36.8086 34.1441 35.9181 34.0133 35.0622 33.7323C34.8802 33.6869 34.7089 33.5995 34.5597 33.4758C34.4105 33.3521 34.2867 33.1949 34.1964 33.0145C34.1062 32.8341 34.0515 32.6346 34.036 32.4292C34.0205 32.2238 34.0446 32.0171 34.1066 31.8227C34.1551 31.6225 34.169 31.4141 34.1476 31.2082C34.1177 30.9069 34.0473 30.6122 33.9386 30.3339C33.7691 29.8873 33.5415 29.4705 33.263 29.0966C33.168 28.9482 33.0605 28.8101 32.9419 28.6841L32.2364 27.8304L31.5309 26.952L31.1353 26.4818V28.3295C31.1287 28.675 31.2046 29.0164 31.3555 29.3193C31.5048 29.6121 31.6616 29.9049 31.837 30.1936C32.0165 30.4841 32.1786 30.7871 32.3223 31.101C32.4758 31.437 32.5527 31.8093 32.5463 32.1857C32.553 32.5116 32.443 32.8273 32.2402 33.0641C32.006 33.3231 31.7194 33.5168 31.404 33.6291C31.0049 33.7826 30.5919 33.8877 30.1722 33.9426C29.1801 34.0701 28.178 34.0701 27.186 33.9426C26.7664 33.8895 26.3533 33.7858 25.9541 33.6333C25.6382 33.5219 25.3504 33.3297 25.1143 33.0724C24.9101 32.8362 24.7987 32.5204 24.8044 32.1939C24.794 31.8234 24.8644 31.4556 25.0097 31.1216C25.1553 30.8081 25.3121 30.5071 25.4763 30.2101C25.6406 29.9132 25.8011 29.6286 25.9467 29.3358C26.0964 29.0326 26.1711 28.6912 26.1632 28.346V18.1714C26.1675 17.8261 26.0917 17.4853 25.9429 17.1816C25.7974 16.8929 25.6368 16.6 25.4726 16.3072C25.3084 16.0144 25.1479 15.7174 25.0023 15.3999C24.8501 15.0633 24.7733 14.6913 24.7783 14.3152C24.7726 13.9907 24.8825 13.6766 25.0844 13.4408C25.3233 13.1856 25.61 12.9913 25.9243 12.8717C26.3219 12.719 26.7339 12.6166 27.1524 12.5665C27.6476 12.4973 28.1463 12.4628 28.6455 12.4634H29.4891C29.8101 12.4634 30.1237 12.4923 30.4148 12.5088C30.7657 12.5294 31.1203 12.5417 31.5011 12.5417C32.5537 12.5374 33.6041 12.6493 34.6366 12.8758C35.6229 13.082 36.5739 13.4577 37.4549 13.9894C38.2756 14.4854 38.976 15.1928 39.4967 16.0515C40.0379 17.0004 40.3108 18.1061 40.2806 19.2272C40.315 20.4726 39.9923 21.6981 39.3586 22.7287C38.7428 23.7123 37.9451 24.5403 37.0181 25.1579L38.2686 27.4262C38.612 28.0655 38.8211 28.4037 38.8397 28.4573ZM32.2066 24.9888C32.6546 24.9978 33.091 24.8312 33.4384 24.5186C33.8117 24.1732 34.1112 23.7408 34.3156 23.2525C34.565 22.6711 34.7421 22.0551 34.8419 21.4213C34.9588 20.7152 35.0163 19.9986 35.0136 19.2808C35.0211 18.5947 34.9317 17.9115 34.7486 17.2558C34.5811 16.6783 34.3164 16.141 33.9684 15.6721C33.6397 15.223 33.2221 14.8632 32.7478 14.6204C32.2279 14.3599 31.6612 14.233 31.0905 14.2492V23.7928C31.0828 24.0002 31.124 24.2062 31.2099 24.3908C31.2756 24.5359 31.3715 24.6618 31.4899 24.7578C31.5929 24.8468 31.7129 24.9089 31.8408 24.9393C31.9602 24.9736 32.0832 24.9903 32.2066 24.9888Z" fill="#89C97B"/>
<path d="M48.8996 28.3668C48.8966 28.7124 48.9737 29.0532 49.1236 29.3566C49.2729 29.6453 49.4259 29.934 49.5939 30.2268C49.7619 30.5196 49.9149 30.8166 50.0642 31.1177C50.2173 31.4493 50.293 31.8178 50.2845 32.19C50.2845 32.8993 49.9324 33.3846 49.2281 33.6458C48.3695 33.9413 47.4731 34.0806 46.5741 34.0583C45.6703 34.0765 44.7697 33.9373 43.9051 33.6458C43.1996 33.386 42.8487 32.9035 42.8487 32.19C42.8376 31.818 42.9121 31.4491 43.0652 31.1177C43.2121 30.8152 43.3688 30.5183 43.5356 30.2268C43.6998 29.934 43.8529 29.6453 44.0022 29.3525C44.1509 29.0487 44.2268 28.708 44.2224 28.3626V23.4671C44.2342 23.1721 44.1553 22.8814 43.9984 22.6423C43.8599 22.4568 43.7102 22.2819 43.5505 22.1185C43.3787 21.9521 43.2213 21.7685 43.0802 21.57C42.9161 21.2974 42.8374 20.9728 42.8562 20.6461C42.8658 20.4535 42.9127 20.2654 42.9938 20.0946C43.075 19.9239 43.1885 19.7744 43.3265 19.6563C43.6817 19.3077 44.0882 19.0287 44.5285 18.8314C45.5718 18.3598 46.6862 18.1093 47.8134 18.0932C47.9655 18.0874 48.1166 18.1217 48.2543 18.1935C48.3919 18.2652 48.5121 18.3722 48.6047 18.5056C48.7798 18.7114 48.8842 18.9784 48.8996 19.2604V28.3668ZM46.5703 16.9095C46.1353 16.9142 45.7027 16.8389 45.29 16.6868C44.9113 16.549 44.5547 16.3458 44.2336 16.0847C43.9467 15.8493 43.7076 15.55 43.5318 15.2062C43.3639 14.8751 43.2776 14.5011 43.2817 14.1215C43.2786 13.7374 43.3634 13.3586 43.5281 13.0203C43.6993 12.6695 43.939 12.3652 44.2299 12.1295C44.5444 11.8664 44.8964 11.663 45.2713 11.5274C45.6828 11.3746 46.1139 11.2966 46.5479 11.2964C46.9769 11.2952 47.4031 11.3718 47.8096 11.5232C48.1791 11.6592 48.5259 11.8612 48.8362 12.1213C49.1263 12.359 49.3669 12.6628 49.5417 13.0121C49.7059 13.3508 49.7918 13.7291 49.7917 14.1133C49.7959 14.4928 49.7096 14.8669 49.5417 15.198C49.3722 15.544 49.1381 15.8462 48.8548 16.0847C48.5454 16.3438 48.2 16.5458 47.832 16.6827C47.4264 16.8379 46.9996 16.9146 46.5703 16.9095Z" fill="#89C97B"/>
<path d="M66.7349 28.3374C66.7301 28.682 66.8074 29.0219 66.9589 29.3231C67.1044 29.616 67.2612 29.9088 67.4255 30.1975C67.5897 30.4862 67.7502 30.7872 67.8995 31.0924C68.0524 31.4212 68.1282 31.787 68.1198 32.1565C68.1198 32.8741 67.7676 33.3622 67.0634 33.6206C66.1973 33.9017 65.2969 34.0325 64.3944 34.0083C63.4956 34.0346 62.5986 33.9038 61.7367 33.6206C61.0349 33.3649 60.6803 32.8783 60.6803 32.1689C60.6727 31.7969 60.7483 31.4285 60.9005 31.0966C61.0461 30.7996 61.2029 30.4986 61.3671 30.2099C61.5314 29.9212 61.6882 29.6283 61.8375 29.3355C61.9867 29.0321 62.0613 28.6909 62.054 28.3457V23.809C62.0907 22.812 61.9538 21.8166 61.6508 20.8766C61.5532 20.552 61.3629 20.2711 61.1085 20.0763C60.854 19.8814 60.5492 19.7831 60.2398 19.7961C59.8574 19.7837 59.4832 19.921 59.1834 20.1837C58.8698 20.4742 58.6078 20.8267 58.4108 21.2231C58.1925 21.6535 58.0304 22.1159 57.9292 22.5964C57.8256 23.0622 57.7717 23.5397 57.7687 24.0193V28.3498C57.7635 28.6957 57.8407 29.0371 57.9927 29.3396C58.1345 29.6283 58.295 29.9212 58.4593 30.2099C58.6235 30.4986 58.784 30.7996 58.9334 31.0966C59.086 31.4269 59.1617 31.794 59.1536 32.1648C59.1536 32.8741 58.8015 33.3608 58.0972 33.6247C56.3528 34.1444 54.5149 34.1444 52.7705 33.6247C52.0687 33.3649 51.7141 32.8824 51.7141 32.1648C51.7074 31.7937 51.7843 31.4266 51.9381 31.0966C52.0799 30.7955 52.2367 30.4944 52.401 30.2016C52.5652 29.9088 52.7257 29.6201 52.8713 29.3273C53.0205 29.0254 53.0952 28.6854 53.0878 28.3416V23.4625C53.0984 23.1683 53.021 22.8784 52.8676 22.6377C52.722 22.4473 52.5635 22.2694 52.3935 22.1057C52.2247 21.9357 52.0687 21.7508 51.9269 21.553C51.7628 21.2819 51.6841 20.9587 51.7029 20.6333C51.712 20.4406 51.7587 20.2523 51.8399 20.0814C51.9211 19.9106 52.0348 19.7611 52.1733 19.6435C52.5392 19.2901 52.9587 19.0108 53.4125 18.8186C53.9318 18.5785 54.4722 18.3988 55.0251 18.2825C55.5751 18.1537 56.1353 18.086 56.6974 18.0804C56.8498 18.0765 57.0009 18.1117 57.1388 18.1833C57.2768 18.2549 57.3979 18.3608 57.4925 18.4928C57.6678 18.7079 57.7707 18.9832 57.7836 19.2723V19.7878C58.03 19.2556 58.4114 18.8142 58.8811 18.5175C59.3389 18.2418 59.8528 18.0998 60.3742 18.1051C61.2705 18.089 62.1657 18.1831 63.0432 18.3856C63.7593 18.5573 64.4363 18.8885 65.0327 19.3589C65.5874 19.8111 66.0188 20.4232 66.2795 21.1282C66.5891 21.9937 66.7352 22.92 66.7088 23.8502L66.7349 28.3374Z" fill="#89C97B"/>
<path d="M82.017 28.3129C82.0161 28.6569 82.0931 28.9958 82.241 29.2986C82.3866 29.5873 82.5471 29.8801 82.7113 30.1729C82.8756 30.4657 83.0361 30.7585 83.1817 31.0637C83.3343 31.394 83.41 31.7612 83.4019 32.1319C83.4019 32.8441 83.0498 33.3307 82.3455 33.5919C81.481 33.8834 80.5803 34.0225 79.6766 34.0043C79.2897 34.0197 78.9053 33.9306 78.5567 33.7445C78.2916 33.5996 78.0525 33.4025 77.8512 33.163C77.634 32.9298 77.4636 32.6488 77.351 32.3381C77.0547 32.8866 76.6289 33.3357 76.1192 33.6373C75.5969 33.9092 75.0241 34.042 74.4469 34.025C73.5617 34.0385 72.685 33.8324 71.8813 33.422C71.0777 33.0116 70.3676 32.4073 69.8033 31.6535C69.2389 30.9123 68.8138 30.0542 68.5528 29.1295C68.265 28.1223 68.1202 27.0718 68.1236 26.0156C68.1157 24.9557 68.2735 23.9023 68.5902 22.9018C68.8746 21.9758 69.3264 21.1232 69.918 20.3958C70.5096 19.6685 71.2287 19.0814 72.0318 18.6703C72.8807 18.2367 73.8067 18.0183 74.7418 18.031C74.9501 18.0385 75.1568 18.0731 75.3577 18.1341C75.6118 18.2013 75.8613 18.2881 76.1043 18.394C76.3553 18.4955 76.5926 18.6343 76.8098 18.8064C77.0293 18.9781 77.2254 19.1837 77.3921 19.4168V14.0222C77.407 13.7204 77.328 13.4221 77.1681 13.1768C77.0191 12.9859 76.8582 12.8068 76.6866 12.6406C76.517 12.4731 76.3609 12.2895 76.22 12.0921C76.0544 11.8203 75.9756 11.4952 75.996 11.1682C76.0051 10.9749 76.0517 10.786 76.1329 10.6145C76.2141 10.443 76.3278 10.2928 76.4664 10.1743C76.819 9.82396 77.2246 9.54477 77.6646 9.34945C78.7008 8.86463 79.8131 8.60959 80.9383 8.59883C81.0884 8.59105 81.238 8.62205 81.3754 8.68934C81.5128 8.75664 81.634 8.85839 81.7296 8.98651C81.9088 9.19887 82.0122 9.47581 82.0208 9.766L82.017 28.3129ZM77.3622 23.2771C77.362 22.8193 77.303 22.3638 77.1868 21.9244C77.0804 21.5238 76.9206 21.1429 76.7127 20.7943C76.5303 20.4902 76.291 20.2328 76.011 20.0396C75.7696 19.8663 75.4888 19.7719 75.201 19.7674C75.0281 19.7727 74.8585 19.8202 74.7043 19.9065C74.5501 19.9928 74.415 20.1157 74.3088 20.2664C74.011 20.6629 73.7831 21.1175 73.6369 21.6068C73.4325 22.2483 73.2898 22.9119 73.2114 23.5864C73.0174 25.2043 73.0174 26.8434 73.2114 28.4613C73.2916 29.1355 73.4342 29.7989 73.6369 30.441C73.7872 30.9287 74.0175 31.3817 74.3163 31.7772C74.4227 31.9287 74.5583 32.0521 74.7133 32.1384C74.8682 32.2247 75.0387 32.2718 75.2122 32.2763C75.3762 32.2698 75.5371 32.2245 75.6839 32.1434C75.8308 32.0623 75.9601 31.9473 76.0632 31.8061C76.3405 31.4578 76.5671 31.064 76.7351 30.6389C76.9341 30.1479 77.0855 29.635 77.1868 29.1088C77.2905 28.5984 77.3443 28.0771 77.3473 27.554L77.3622 23.2771Z" fill="#89C97B"/>
<path d="M97.5715 30.6519C97.6449 30.6513 97.7179 30.6388 97.788 30.6148C97.8786 30.5846 97.9738 30.5748 98.068 30.5859C98.1134 30.5923 98.1569 30.6101 98.195 30.638C98.2332 30.6658 98.2651 30.7031 98.2882 30.7467C98.3607 30.9135 98.3916 31.0985 98.3778 31.2829C98.3847 31.6977 98.3002 32.1082 98.1314 32.4789C97.9701 32.8052 97.7442 33.0872 97.4707 33.3038C97.1869 33.5351 96.8685 33.7096 96.5301 33.8193C96.1654 33.9306 95.7886 33.9861 95.4102 33.9843C94.9057 34.0041 94.4016 33.9345 93.9171 33.7781C93.6042 33.6681 93.3074 33.5083 93.0362 33.3038C92.8134 33.1292 92.6326 32.897 92.5098 32.6274C92.0482 33.1373 91.4784 33.5116 90.8525 33.7162C90.2372 33.9027 89.6017 33.9957 88.9637 33.9925C87.6099 33.9925 86.5523 33.6653 85.7908 33.011C85.0442 32.3511 84.6448 31.3324 84.6448 29.9507C84.6344 29.3209 84.7748 28.6991 85.0517 28.1484C85.3238 27.6176 85.6819 27.1465 86.1081 26.7586C86.5675 26.3434 87.0685 25.9877 87.6012 25.6986C88.1605 25.3917 88.7336 25.1164 89.3183 24.8738C89.9043 24.6304 90.4717 24.4242 91.0204 24.2386C91.5692 24.053 92.0544 23.8509 92.4837 23.6695V21.9744C92.488 21.4147 92.3268 20.8687 92.0246 20.4196C91.8822 20.1942 91.6904 20.0124 91.4671 19.8913C91.2438 19.7701 90.9964 19.7135 90.748 19.7267C90.571 19.7154 90.3959 19.7721 90.2523 19.8871C90.1088 20.0021 90.0057 20.1683 89.9603 20.3577C89.8139 20.8327 89.7444 21.3325 89.755 21.8342C89.7725 22.169 89.7148 22.5033 89.5871 22.8075C89.467 23.0553 89.3033 23.2741 89.1055 23.4509C88.9143 23.6386 88.689 23.7792 88.4448 23.8633C88.2167 23.9365 87.9806 23.9754 87.7431 23.9788C87.5035 23.9738 87.2659 23.9308 87.0376 23.8509C86.7683 23.7641 86.5154 23.6244 86.291 23.4385C86.024 23.2095 85.8102 22.9134 85.6674 22.5749C85.5246 22.2363 85.4569 21.8651 85.4698 21.4919C85.4665 21.0298 85.5887 20.5772 85.8207 20.1927C86.1042 19.7525 86.4694 19.3842 86.892 19.1122C87.3805 18.7632 87.9107 18.4911 88.4672 18.3038C89.1308 18.1012 89.8169 18.0026 90.5053 18.011C91.4342 17.9893 92.3573 18.1759 93.2191 18.5595C94.0151 18.9199 94.7346 19.4592 95.3318 20.1432C95.9229 20.8442 96.381 21.6688 96.6794 22.5683C97.0009 23.5447 97.1602 24.5772 97.1497 25.6161V29.794C97.1572 30.3714 97.2953 30.6519 97.5715 30.6519ZM92.5061 25.3769C90.57 25.9268 89.6032 27.3318 89.6057 29.5919C89.597 30.0104 89.6473 30.4279 89.755 30.8292C89.8266 31.1098 89.9541 31.3691 90.1283 31.5881C90.2543 31.743 90.4078 31.8677 90.5793 31.9542C90.7507 32.0408 90.9365 32.0874 91.125 32.0912C91.3199 32.0775 91.5088 32.0109 91.6748 31.8972C91.8409 31.7836 91.9789 31.6264 92.0768 31.4396C92.4001 30.835 92.5486 30.1356 92.5024 29.4352L92.5061 25.3769Z" fill="#89C97B"/>
<path d="M114.694 28.2549C114.688 28.5991 114.764 28.939 114.914 29.2406C115.059 29.532 115.215 29.8248 115.385 30.119C115.549 30.4077 115.709 30.7047 115.855 31.0099C116.009 31.3399 116.086 31.707 116.079 32.0781C116.079 32.7916 115.706 33.2741 115.022 33.538C113.279 34.055 111.443 34.055 109.7 33.538C108.995 33.2823 108.643 32.7984 108.643 32.0863C108.632 31.717 108.706 31.3506 108.86 31.0222C109.005 30.717 109.162 30.4201 109.326 30.1273C109.49 29.8345 109.651 29.5457 109.793 29.2529C109.945 28.9523 110.021 28.6117 110.013 28.2672V23.7305C110.043 22.7303 109.902 21.7329 109.599 20.7899C109.503 20.463 109.313 20.1792 109.059 19.9814C108.804 19.7836 108.499 19.6823 108.188 19.6929C107.805 19.678 107.43 19.8156 107.131 20.0805C106.817 20.3684 106.554 20.7197 106.359 21.1157C106.143 21.5535 105.985 22.0228 105.888 22.5097C105.786 22.9756 105.733 23.4532 105.732 23.9326V28.2631C105.729 28.6082 105.805 28.9485 105.952 29.2529C106.101 29.5457 106.258 29.8344 106.426 30.1231C106.594 30.4118 106.747 30.7129 106.896 31.0099C107.046 31.3412 107.12 31.7078 107.113 32.0781C107.118 32.416 107.017 32.7456 106.828 33.0115C106.639 33.2774 106.373 33.4633 106.075 33.538C105.216 33.8231 104.321 33.954 103.425 33.9257C102.521 33.9499 101.619 33.8192 100.752 33.538C100.05 33.2782 99.6956 32.7957 99.6956 32.0822C99.688 31.7102 99.7637 31.3418 99.9158 31.0099C100.065 30.7088 100.218 30.4077 100.382 30.119C100.547 29.8303 100.707 29.5334 100.853 29.2406C101.002 28.9374 101.077 28.596 101.069 28.2507V23.38C101.084 23.0852 101.006 22.7939 100.849 22.5551C100.707 22.3628 100.549 22.1848 100.379 22.0231C100.206 21.8445 100.046 21.6515 99.9009 21.4457C99.7392 21.1722 99.6632 20.8477 99.6844 20.5218C99.692 20.3292 99.7377 20.1408 99.8184 19.9698C99.899 19.7987 100.013 19.6493 100.151 19.532C100.506 19.1836 100.913 18.9047 101.353 18.7072C101.873 18.4708 102.413 18.2912 102.966 18.171C103.515 18.0475 104.074 17.9812 104.634 17.973C104.784 17.9646 104.934 17.9953 105.072 18.0627C105.209 18.13 105.33 18.2321 105.425 18.3607C105.605 18.5737 105.711 18.8497 105.724 19.1402V19.6557C105.971 19.1259 106.352 18.6872 106.822 18.3937C107.291 18.1082 107.82 17.9658 108.356 17.9813C109.252 17.9659 110.148 18.0628 111.025 18.27C111.743 18.4279 112.422 18.7527 113.018 19.2227C113.572 19.6727 114.005 20.2817 114.268 20.9838C114.575 21.8518 114.721 22.7787 114.698 23.7099L114.694 28.2549Z" fill="#89C97B"/>
<path d="M129.05 14.9792C129.281 14.9671 129.512 15.0099 129.727 15.1045C129.942 15.1991 130.137 15.3434 130.297 15.5277C130.451 15.6898 130.574 15.8849 130.658 16.1011C130.743 16.3174 130.786 16.5502 130.786 16.7856C130.797 17.1965 130.7 17.6021 130.506 17.9528C130.33 18.2621 130.088 18.5185 129.801 18.6993C129.491 18.8928 129.154 19.0254 128.804 19.0911C128.434 19.1657 128.06 19.2153 127.684 19.2395C128.443 19.7791 129.082 20.5026 129.55 21.3553C129.978 22.1308 130.221 23.0137 130.256 23.9212C130.29 24.8287 130.116 25.7311 129.748 26.5436C129.403 27.2897 128.924 27.9506 128.341 28.4861C127.711 29.0645 126.995 29.5167 126.225 29.8224C125.398 30.1526 124.524 30.3187 123.645 30.3132C122.51 30.3132 121.661 30.573 121.096 31.0927C120.581 31.5171 120.222 32.132 120.084 32.8249C119.971 33.4226 120.077 34.0455 120.379 34.5571C120.529 34.8147 120.74 35.023 120.988 35.1601C121.236 35.2973 121.513 35.3582 121.79 35.3366C122.146 35.353 122.495 35.2254 122.772 34.9778C123.02 34.7281 123.228 34.4322 123.384 34.1034C123.548 33.757 123.712 33.3734 123.865 32.9651C124.015 32.567 124.201 32.1869 124.422 31.8309C124.642 31.4824 124.92 31.1841 125.243 30.9525C125.643 30.6962 126.102 30.573 126.564 30.5978C127.132 30.5805 127.698 30.6726 128.237 30.87C128.666 31.026 129.061 31.2788 129.397 31.6123C129.68 31.8974 129.906 32.2446 130.06 32.6316C130.215 33.0187 130.294 33.4371 130.293 33.8601C130.294 34.2047 130.24 34.5469 130.133 34.8705C130.028 35.1883 129.876 35.4839 129.681 35.7449C129.474 36.01 129.22 36.2249 128.935 36.3759C128.634 36.5407 128.303 36.6241 127.968 36.6192C127.733 36.6435 127.496 36.6115 127.273 36.5254C127.05 36.4392 126.846 36.301 126.676 36.1202C126.408 35.7995 126.203 35.4201 126.075 35.0066C125.948 34.5942 125.848 34.2189 125.777 33.8848C125.706 33.5508 125.579 33.3817 125.381 33.3817C125.183 33.3817 125.064 33.5714 125.075 33.9343C125.086 34.2972 125.12 34.7592 125.179 35.3118C125.239 35.8645 125.284 36.479 125.314 37.11C125.349 37.722 125.27 38.3354 125.082 38.9123C124.892 39.4682 124.556 39.9482 124.115 40.2898C123.501 40.6904 122.793 40.8786 122.081 40.8301C121.282 40.8516 120.494 40.6229 119.808 40.1702C119.163 39.7401 118.611 39.1586 118.192 38.4669C117.766 37.761 117.475 36.9668 117.337 36.1325C117.191 35.2809 117.191 34.4066 117.337 33.5549C117.486 32.691 117.806 31.8741 118.274 31.1628C118.789 30.3951 119.469 29.7814 120.252 29.377C119.332 28.8749 118.542 28.1227 117.956 27.1911C117.46 26.3993 117.164 25.4754 117.098 24.5148C117.032 23.5542 117.2 22.5917 117.583 21.7265C117.924 20.9657 118.405 20.2916 118.994 19.7468C119.616 19.1738 120.323 18.7244 121.084 18.4188C121.908 18.0901 122.777 17.924 123.653 17.928C123.937 17.9273 124.222 17.9493 124.504 17.994C124.776 18.0352 125.052 18.0847 125.325 18.1507C125.536 18.2114 125.758 18.2106 125.968 18.1484C126.179 18.0863 126.371 17.9649 126.527 17.796C126.79 17.4524 127.015 17.0759 127.199 16.6742C127.393 16.2643 127.619 15.8738 127.874 15.5071C128.019 15.3229 128.201 15.1792 128.405 15.0874C128.609 14.9957 128.83 14.9586 129.05 14.9792ZM123.641 28.6264C123.768 28.6227 123.893 28.5892 124.007 28.528C124.12 28.4668 124.221 28.3794 124.302 28.2717C124.531 27.9958 124.71 27.6737 124.828 27.3231C124.993 26.8673 125.112 26.3929 125.183 25.9085C125.272 25.3281 125.314 24.7402 125.31 24.1515C125.313 23.5751 125.269 22.9995 125.179 22.4317C125.096 21.9427 124.971 21.4635 124.806 21.0006C124.695 20.6467 124.524 20.3192 124.302 20.0355C124.219 19.9305 124.118 19.8452 124.005 19.7849C123.891 19.7246 123.767 19.6906 123.641 19.685C123.517 19.6888 123.396 19.7226 123.285 19.7838C123.174 19.8451 123.077 19.9324 122.999 20.0396C122.775 20.3233 122.6 20.6506 122.484 21.0047C122.325 21.4678 122.207 21.9472 122.133 22.4358C121.957 23.5865 121.957 24.7619 122.133 25.9126C122.204 26.3968 122.321 26.8711 122.484 27.3272C122.604 27.6743 122.779 27.9953 122.999 28.2758C123.076 28.3829 123.174 28.4699 123.285 28.5305C123.396 28.5911 123.518 28.6238 123.641 28.6264Z" fill="#89C97B"/>
<path d="M124.519 18.6379C125.668 15.6313 127.878 12.1586 130.864 11.2472C133.75 10.3728 137.132 10.5213 139.737 12.1751L139.189 9.89853C137.934 12.1957 136.628 14.5136 134.911 16.4314C132.876 18.7162 130.719 19.5947 127.867 20.036C125.952 20.3371 126.766 23.5375 128.673 23.2529C135.124 22.2507 138.588 17.4789 141.802 11.5812C141.998 11.198 142.051 10.7454 141.95 10.3194C141.849 9.89354 141.601 9.52798 141.26 9.30051C137.755 7.0734 133.048 6.82595 129.226 8.30656C125.571 9.73356 123.029 13.9939 121.6 17.747C120.853 19.7267 123.765 20.5886 124.511 18.6337L124.519 18.6379Z" fill="#89C97B"/>
<path d="M42.6248 7.79869C36.9248 3.19601 29.8176 -0.0332986 22.7439 2.40415C15.2223 4.99419 10.2801 16.3566 1.65735 14.5872L1.25794 17.8867C6.18897 18.4146 10.0785 22.2708 14.7483 23.6978C19.0562 24.9585 23.6075 24.7616 27.8131 23.1327C29.6533 22.4564 28.4887 19.3797 26.6484 20.0519C22.0563 21.7849 17.0386 21.5149 12.6206 19.2972C8.9587 17.4784 5.75596 15.0162 1.65735 14.5872C-0.27997 14.381 -0.65325 17.5031 1.25794 17.8867C8.38758 19.3549 13.2029 13.4242 18.2608 8.97824C25.5211 2.62686 33.7557 4.75498 40.7659 10.4217C42.3374 11.6961 44.2 9.07309 42.6248 7.79869Z" fill="#89C97B"/>
<path d="M77.6423 3.63348C77.6408 3.15955 77.6846 2.68677 77.7729 2.22298C77.8476 1.8194 77.9667 1.42743 78.1275 1.05581C78.2424 0.759754 78.4129 0.494052 78.6277 0.276326C78.7975 0.102262 79.0195 0.00382204 79.2511 0C79.486 0.00387034 79.7115 0.102097 79.8857 0.276326C80.109 0.489238 80.2853 0.755898 80.4008 1.05581C80.5587 1.42117 80.6765 1.80609 80.7517 2.20236C80.8418 2.66722 80.8856 3.14159 80.8823 3.61699C80.8867 4.08404 80.8441 4.55019 80.7554 5.00687C80.6779 5.39979 80.5602 5.78168 80.4045 6.14517C80.2809 6.44089 80.1029 6.70495 79.8819 6.92053C79.7063 7.09471 79.4796 7.19286 79.2436 7.19686C79.0122 7.19226 78.7904 7.09393 78.6202 6.92053C78.4053 6.70359 78.2337 6.43951 78.1163 6.14517C77.9562 5.78473 77.8371 5.40378 77.7617 5.01099C77.6774 4.55787 77.6373 4.09605 77.6423 3.63348Z" fill="#89C97B"/>
<path d="M74.5775 7.34555C74.3315 7.12359 74.1075 6.87336 73.9094 6.59905C73.7367 6.36345 73.5901 6.10593 73.4726 5.83194C73.3768 5.61848 73.3221 5.38534 73.3121 5.14731C73.3016 4.95579 73.3547 4.76661 73.4614 4.61528C73.5765 4.4676 73.7352 4.36971 73.9094 4.33895C74.1231 4.30024 74.3418 4.31148 74.5514 4.37195C74.8181 4.44799 75.076 4.5573 75.3204 4.69776C75.6 4.86163 75.8639 5.05647 76.108 5.27929C76.3536 5.5018 76.5775 5.75199 76.7761 6.02578C76.9443 6.26034 77.0883 6.51487 77.2054 6.78465C77.3014 7.00077 77.3548 7.23692 77.3622 7.47752C77.3685 7.67103 77.313 7.86083 77.2054 8.01368C77.0945 8.16135 76.9372 8.25713 76.7649 8.28176C76.5522 8.31904 76.3347 8.30639 76.1266 8.24464C75.867 8.17266 75.6163 8.06602 75.3801 7.92707C75.093 7.76836 74.8237 7.5732 74.5775 7.34555Z" fill="#89C97B"/>
<path d="M83.331 7.54697C83.0943 7.68289 82.8436 7.78674 82.5844 7.85629C82.3814 7.91793 82.1688 7.93059 81.961 7.8934C81.7933 7.8699 81.6399 7.77706 81.5318 7.63358C81.4245 7.48554 81.37 7.29919 81.3787 7.10979C81.3849 6.87656 81.4358 6.64743 81.528 6.43754C81.6414 6.17333 81.7817 5.92427 81.9461 5.69517C82.1408 5.42917 82.3597 5.18594 82.5993 4.9693C82.8356 4.7496 83.0936 4.56006 83.3683 4.40427C83.6055 4.26767 83.856 4.16114 84.1148 4.0867C84.3196 4.02841 84.5331 4.01718 84.742 4.05371C84.9115 4.07845 85.0662 4.17371 85.1744 4.32008C85.2826 4.46646 85.3362 4.65291 85.3243 4.84144C85.3137 5.07231 85.2604 5.29832 85.1675 5.50545C85.0524 5.77303 84.9096 6.02492 84.742 6.25607C84.5482 6.52304 84.3292 6.76637 84.0887 6.98194C83.8578 7.20351 83.6033 7.39325 83.331 7.54697Z" fill="#89C97B"/>
</svg>
