<?xml version="1.0" standalone="no"?>
<!DOCTYPE svg PUBLIC "-//W3C//DTD SVG 20010904//EN"
 "http://www.w3.org/TR/2001/REC-SVG-20010904/DTD/svg10.dtd">
<svg version="1.0" xmlns="http://www.w3.org/2000/svg"
 width="2276.000000pt" height="2276.000000pt" viewBox="0 0 2276.000000 2276.000000"
 preserveAspectRatio="xMidYMid meet">
<metadata>
Created by potrace 1.14, written by Peter Selinger 2001-2017
</metadata>
<g transform="translate(0.000000,2276.000000) scale(0.100000,-0.100000)"
fill="#000000" stroke="none">
<path d="M12622 14292 c-46 -31 -66 -56 -98 -122 -104 -213 -105 -533 -4 -735
65 -128 147 -177 235 -141 201 84 276 588 130 876 -69 135 -173 184 -263 122z"/>
<path d="M4387 14094 c-1 -1 -49 -4 -107 -7 -129 -7 -282 -27 -380 -49 -25 -5
-53 -11 -64 -14 -10 -2 -44 -11 -75 -20 -31 -9 -63 -17 -72 -19 -50 -10 -192
-66 -309 -121 -153 -74 -288 -154 -440 -263 -91 -65 -325 -245 -340 -261 -3
-3 -30 -25 -60 -50 -30 -25 -57 -47 -60 -50 -3 -3 -32 -28 -65 -55 -33 -28
-62 -52 -65 -55 -3 -3 -34 -30 -70 -60 -36 -30 -67 -57 -70 -60 -3 -3 -54 -46
-115 -95 -60 -49 -112 -92 -115 -95 -3 -4 -75 -58 -160 -122 -360 -269 -654
-415 -961 -479 -132 -27 -379 -34 -489 -14 -106 19 -190 13 -244 -19 -77 -45
-116 -118 -116 -217 0 -89 55 -171 137 -207 49 -21 59 -23 198 -42 198 -26
443 -106 730 -238 61 -27 252 -121 425 -209 324 -163 384 -191 530 -250 47
-19 94 -38 105 -43 66 -30 317 -101 443 -125 98 -19 197 -35 248 -40 32 -3 70
-8 84 -10 126 -22 634 -22 745 -1 11 2 47 7 80 10 71 8 103 13 170 26 28 5 66
12 85 15 19 3 51 10 70 15 19 5 46 11 60 14 14 3 37 9 52 12 l26 6 1 -353 c0
-210 -4 -370 -10 -394 -6 -22 -34 -78 -62 -125 -119 -198 -138 -240 -144 -315
-5 -70 7 -111 44 -154 88 -104 298 -153 623 -146 271 6 432 49 522 140 38 38
52 87 45 161 -7 75 -30 126 -117 264 -103 164 -103 165 -105 357 l-1 165 51
-54 c27 -30 82 -90 121 -134 39 -43 93 -101 118 -129 64 -68 132 -172 162
-246 28 -68 33 -135 20 -254 -7 -62 -5 -75 16 -114 33 -65 82 -99 174 -123
127 -32 239 -46 389 -46 165 0 241 10 368 50 134 42 223 119 229 198 7 97 -30
159 -167 285 -101 92 -190 198 -262 310 -93 146 -262 426 -265 440 -2 7 25 32
60 55 201 134 366 355 424 565 27 95 33 331 12 430 -43 198 -160 374 -335 503
-72 54 -239 136 -348 172 -89 29 -261 68 -341 76 -25 3 -55 7 -67 9 -40 9
-485 26 -693 28 -259 1 -433 -24 -545 -80 -97 -48 -135 -103 -136 -196 -1 -74
22 -131 116 -291 46 -77 88 -161 94 -186 5 -25 10 -118 10 -206 l-1 -162 -96
-25 c-179 -48 -340 -79 -487 -93 -38 -3 -79 -8 -90 -10 -29 -6 -390 -6 -455 0
-199 18 -293 33 -465 71 -142 32 -371 106 -510 165 -55 23 -247 114 -426 203
l-327 160 122 62 c66 34 157 83 201 110 71 43 313 205 340 227 5 5 46 36 90
69 44 34 98 75 119 92 74 59 271 221 276 227 3 3 28 24 55 45 28 22 57 47 65
55 8 8 38 33 65 54 28 22 55 44 60 50 6 6 30 27 55 46 25 19 47 37 50 40 4 5
127 100 231 179 60 46 254 158 374 216 509 246 1030 300 1640 171 113 -24 389
-111 480 -151 17 -8 59 -26 95 -40 155 -64 615 -312 640 -345 3 -4 15 -12 27
-19 12 -6 73 -46 135 -89 140 -97 162 -106 239 -99 162 14 276 195 209 331
-28 58 -66 91 -259 219 -478 320 -950 544 -1391 660 -117 31 -324 73 -405 83
-33 3 -69 8 -79 10 -42 8 -382 24 -389 18z m723 -1839 c14 -3 34 -7 45 -9 77
-15 213 -93 267 -154 175 -198 226 -444 172 -832 -23 -163 -103 -346 -193
-437 -94 -95 -217 -130 -317 -88 -42 17 -56 31 -79 74 -15 31 -17 90 -16 725
0 380 0 701 1 713 0 21 4 22 48 18 26 -3 58 -7 72 -10z"/>
<path d="M13446 13720 c-157 -49 -324 -197 -381 -337 -25 -60 -27 -132 -4
-159 110 -133 472 54 586 303 74 161 -18 249 -201 193z"/>
<path d="M11833 13693 c-62 -13 -95 -89 -73 -169 69 -244 477 -491 604 -365
73 73 20 222 -128 364 -127 121 -297 193 -403 170z"/>
<path d="M21348 13254 c-2 -1 -32 -5 -68 -8 -179 -17 -426 -70 -573 -123 -294
-105 -567 -320 -807 -634 -38 -49 -79 -106 -91 -127 -13 -20 -26 -39 -29 -42
-3 -3 -38 -59 -77 -125 -82 -138 -207 -392 -228 -462 -13 -45 -18 -49 -67 -67
-277 -97 -504 -305 -594 -546 -39 -103 -46 -137 -49 -263 -7 -217 74 -412 242
-582 38 -38 89 -83 114 -100 24 -16 46 -33 49 -36 3 -4 25 -17 50 -29 40 -21
43 -24 26 -34 -204 -121 -318 -245 -394 -428 -71 -171 -86 -397 -39 -585 64
-257 231 -467 448 -567 107 -48 168 -60 314 -60 174 0 274 34 366 124 97 95
134 200 134 380 0 115 -11 295 -19 308 -8 13 -17 203 -11 223 9 28 50 42 75
27 17 -11 22 -24 36 -83 1 -5 16 -51 33 -102 64 -194 151 -271 304 -271 112 1
197 35 268 109 201 209 128 556 -145 689 -84 41 -163 59 -282 66 -110 7 -180
-4 -249 -39 -46 -23 -165 -140 -165 -162 0 -8 -4 -15 -9 -15 -4 0 -23 -33 -41
-72 -120 -269 -175 -346 -268 -377 -126 -43 -253 1 -319 109 -135 225 35 520
337 583 36 7 115 15 175 16 111 3 125 4 205 15 76 10 96 15 188 45 104 34 212
87 296 144 74 50 185 155 222 210 16 23 32 44 35 47 10 8 67 122 85 171 32 87
43 163 40 279 -1 63 -6 123 -10 132 -6 13 1 19 36 29 90 24 263 82 273 90 5 5
15 9 23 9 26 0 291 138 384 201 258 172 509 413 717 689 31 41 61 81 68 88 13
14 288 422 294 437 2 6 24 43 48 84 36 60 46 85 49 133 6 74 -17 136 -68 188
-103 105 -564 269 -829 295 -36 3 -68 8 -73 11 -9 6 -425 13 -430 8z m377
-489 c43 -3 82 -8 85 -9 3 -2 28 -6 55 -10 73 -8 270 -61 288 -76 11 -10 -234
-375 -298 -446 -5 -6 -23 -29 -40 -50 -74 -96 -259 -286 -351 -361 -72 -59
-206 -144 -300 -191 -75 -38 -316 -125 -374 -136 -14 -2 -64 -12 -111 -21
l-87 -18 -38 29 c-22 16 -45 34 -51 41 -7 6 -18 13 -25 16 -23 8 -4 15 57 21
211 19 334 86 392 214 51 111 30 235 -55 317 -52 50 -118 74 -201 75 -111 0
-175 -46 -251 -180 -140 -247 -202 -299 -324 -278 -28 5 -60 11 -71 12 -11 2
-23 4 -28 5 -11 2 119 250 155 296 4 6 38 53 75 105 228 322 496 521 803 594
118 28 243 47 350 53 58 3 106 7 108 8 4 3 144 -3 237 -10z m-1853 -1301 c71
-37 127 -142 172 -319 24 -96 26 -122 30 -280 4 -177 -11 -299 -55 -430 -48
-145 -102 -214 -180 -235 -157 -43 -288 249 -287 640 0 123 4 163 23 270 9 54
35 150 45 168 5 10 18 37 29 62 54 118 141 166 223 124z"/>
<path d="M12838 13074 c-2 -1 -25 -5 -53 -8 -242 -32 -494 -148 -573 -262 -22
-32 -27 -50 -27 -105 0 -84 12 -107 107 -202 43 -43 85 -92 95 -110 15 -28 17
-78 17 -440 1 -225 -1 -410 -4 -412 -3 -2 -23 15 -45 36 -83 84 -275 151 -419
148 -305 -8 -602 -163 -789 -414 -111 -149 -190 -347 -215 -540 -14 -100 -6
-376 12 -469 61 -310 206 -550 428 -708 221 -158 528 -215 768 -141 30 9 57
20 60 23 3 4 19 14 36 23 34 18 108 86 140 131 l21 29 26 -45 c53 -92 165
-168 267 -183 78 -12 249 -6 334 11 12 2 36 7 55 10 126 21 233 79 267 146 22
42 25 132 7 192 -8 27 -40 90 -70 140 -31 50 -65 107 -75 126 -11 19 -24 40
-28 45 -33 44 -34 72 -34 1476 l-1 1386 -30 43 c-46 67 -65 75 -177 76 -54 0
-99 0 -100 -2z m-678 -1635 c95 -47 158 -131 211 -279 22 -63 23 -75 24 -475
1 -392 -1 -439 -26 -565 -30 -156 -116 -329 -201 -407 -37 -35 -95 -51 -142
-41 -64 14 -102 44 -149 116 -81 125 -132 295 -154 524 -10 105 -10 409 0 510
32 329 135 576 264 634 44 20 112 14 173 -17z"/>
<path d="M7320 12675 c-153 -34 -286 -129 -342 -243 -29 -58 -33 -76 -33 -147
0 -100 30 -172 102 -243 57 -55 167 -116 251 -139 59 -16 234 -22 287 -11 214
47 363 176 394 341 11 63 -7 160 -42 220 -53 91 -144 159 -268 204 -92 32
-248 41 -349 18z"/>
<path d="M14339 11713 c-164 -23 -265 -59 -407 -145 -139 -86 -218 -190 -231
-308 -22 -188 85 -338 275 -384 149 -37 301 20 368 137 30 53 36 80 41 183 11
213 59 286 183 278 95 -7 163 -58 219 -167 26 -50 28 -60 31 -224 l4 -171 -45
-20 c-33 -14 -295 -103 -407 -137 -3 -1 -14 -5 -25 -10 -11 -4 -59 -23 -106
-41 -359 -140 -572 -315 -645 -529 -50 -149 -29 -363 48 -490 82 -136 242
-228 443 -254 118 -15 351 -5 433 19 18 5 32 7 32 5 0 -2 33 11 73 28 77 35
138 72 175 107 l23 21 44 -49 c78 -87 196 -131 372 -138 127 -5 214 9 305 49
105 47 195 153 213 251 19 100 9 170 -26 181 -11 4 -41 4 -67 0 -41 -5 -51 -3
-67 15 -23 25 -23 22 -29 545 -2 182 -6 344 -10 360 -4 17 -11 54 -17 83 -55
275 -238 537 -469 671 -207 121 -474 169 -731 134z m485 -1404 c-1 -292 -3
-353 -18 -402 -31 -106 -74 -166 -141 -197 -61 -28 -145 -12 -200 38 -77 69
-107 168 -101 342 10 278 132 454 381 547 33 12 65 21 70 19 6 -2 10 -125 9
-347z"/>
<path d="M16637 11724 c-1 -1 -20 -4 -42 -8 -142 -20 -296 -64 -401 -115 -74
-36 -178 -120 -200 -162 -8 -17 -17 -51 -19 -77 -5 -77 18 -122 114 -220 52
-54 91 -103 97 -123 7 -21 10 -188 9 -439 -1 -464 10 -403 -112 -607 -90 -151
-100 -176 -107 -263 -6 -81 45 -169 118 -206 38 -19 129 -42 231 -59 92 -16
464 -13 530 4 22 5 51 12 65 15 161 31 237 103 241 226 4 96 -10 128 -134 333
-44 71 -69 125 -76 160 -6 31 -9 202 -7 427 2 303 6 389 19 447 41 181 130
324 242 393 34 21 53 25 125 25 92 0 123 -11 174 -62 41 -40 78 -130 101 -246
20 -98 25 -223 24 -572 0 -329 -3 -408 -16 -444 -8 -24 -46 -95 -85 -158 -92
-151 -114 -204 -117 -280 -7 -199 162 -278 599 -278 164 1 212 4 305 23 134
28 185 50 230 97 46 49 59 93 52 173 -7 71 -29 123 -93 223 -60 95 -105 177
-115 212 -5 16 -9 219 -10 451 -1 379 -3 431 -21 516 -73 348 -283 520 -708
581 -140 20 -354 19 -426 -1 -107 -29 -203 -97 -256 -179 l-28 -45 0 51 c0 65
-13 99 -52 140 -42 43 -80 54 -173 51 -42 -2 -77 -4 -78 -4z"/>
<path d="M8980 11708 c-47 -4 -116 -15 -155 -23 -38 -8 -79 -17 -90 -19 -52
-12 -197 -67 -252 -97 -133 -73 -193 -146 -193 -239 0 -66 29 -117 110 -195
115 -111 110 -84 110 -550 0 -236 -4 -415 -10 -436 -6 -20 -39 -84 -75 -143
-36 -59 -65 -109 -65 -112 0 -3 -8 -18 -19 -32 -24 -34 -51 -125 -51 -171 0
-90 40 -156 119 -195 48 -24 147 -51 221 -60 248 -31 399 -26 609 18 172 37
243 110 243 249 0 70 -16 107 -133 299 -92 151 -89 135 -88 561 1 267 5 392
14 442 65 340 277 530 486 438 66 -29 104 -80 134 -175 48 -159 52 -211 51
-678 l-1 -435 -29 -55 c-16 -30 -44 -79 -62 -108 -19 -29 -34 -56 -34 -61 0
-5 -3 -11 -8 -13 -13 -5 -69 -121 -77 -158 -19 -88 0 -173 51 -224 110 -109
545 -156 854 -90 144 30 223 72 257 137 21 42 25 151 7 205 -8 24 -53 107
-100 184 -46 78 -89 160 -95 182 -8 27 -13 178 -14 431 -3 426 -6 465 -36 581
-40 154 -125 283 -240 366 -52 38 -165 94 -240 118 -145 46 -474 74 -599 50
-85 -16 -173 -63 -233 -122 -30 -29 -57 -64 -61 -76 -12 -36 -21 -25 -23 28
-3 57 -24 103 -65 142 -43 40 -89 48 -218 36z"/>
<path d="M7415 11684 c-179 -36 -291 -76 -390 -140 -107 -70 -146 -123 -151
-209 -4 -69 20 -112 115 -209 54 -56 82 -94 91 -121 8 -29 10 -157 8 -450 l-3
-410 -24 -45 c-13 -25 -54 -95 -91 -157 -76 -126 -95 -175 -99 -250 -2 -51 19
-115 51 -154 38 -46 163 -91 323 -116 62 -10 371 -10 445 -1 86 12 210 47 262
75 90 49 127 142 101 255 -13 60 -32 98 -124 248 -95 156 -88 89 -89 868 0
378 -3 698 -7 712 -8 35 -50 88 -87 111 -42 26 -180 23 -331 -7z"/>
</g>
</svg>
