<svg width="45" height="44" viewBox="0 0 45 44" fill="none" xmlns="http://www.w3.org/2000/svg">
<circle cx="22.5261" cy="22" r="22" fill="#89C97B"/>
<path d="M13.8701 35V31.16L20.2701 24.568C21.5288 23.2667 22.4781 22.2427 23.1181 21.496C23.7795 20.728 24.2275 20.088 24.4621 19.576C24.7181 19.064 24.8461 18.5627 24.8461 18.072C24.8461 17.1973 24.5581 16.5147 23.9821 16.024C23.4275 15.512 22.7235 15.256 21.8701 15.256C20.9955 15.256 20.2168 15.512 19.5341 16.024C18.8515 16.5147 18.3501 17.272 18.0301 18.296L13.7101 16.888C13.9661 15.6507 14.4995 14.5733 15.3101 13.656C16.1208 12.7387 17.1021 12.0347 18.2541 11.544C19.4061 11.032 20.6115 10.776 21.8701 10.776C23.4488 10.776 24.8355 11.0533 26.0301 11.608C27.2248 12.1627 28.1528 12.9413 28.8141 13.944C29.4755 14.9467 29.8061 16.12 29.8061 17.464C29.8061 18.3173 29.6568 19.16 29.3581 19.992C29.0595 20.8027 28.6008 21.6347 27.9821 22.488C27.3848 23.32 26.6061 24.2267 25.6461 25.208L20.1741 30.84H30.0301V35H13.8701Z" fill="white"/>
</svg>
