<?xml version="1.0" encoding="utf-8"?>
<!-- Generator: Adobe Illustrator 27.1.0, SVG Export Plug-In . SVG Version: 6.00 Build 0)  -->
<svg version="1.1" id="Layer_1" xmlns="http://www.w3.org/2000/svg" xmlns:xlink="http://www.w3.org/1999/xlink" x="0px" y="0px"
	 viewBox="0 0 800 800" style="enable-background:new 0 0 800 800;" xml:space="preserve">
<g>
	<g>
		<path d="M717.6,533.9l-6-12.8c-2.6-5.6-10.1-6.6-14.1-2l-45.5,52.1v-70.9c0-11.1-9-20.1-20.1-20.1H523.9c-11.1,0-20.1,9-20.1,20.1
			V527l-15.5-9.3c-5.7-3.4-12.9,0.7-12.9,7.3v16.6c0,2.7,1.3,5.3,3.5,6.9l24.9,18v130.5c0,11.1,9,20.1,20.1,20.1h107.8
			c11.1,0,20.1-9,20.1-20.1v-45.5l65.3-109.7C718.6,539.5,718.8,536.5,717.6,533.9z"/>
	</g>
</g>
<g>
	<g>
		<path d="M417.6,310.8H290.5l0,377.6c0,15.9,12.9,28.8,28.8,28.8c15.9,0,28.8-12.9,28.8-28.8V458.2h12.4v230.2
			c0,15.9,12.9,28.8,28.8,28.8s28.8-12.9,28.8-28.8C418.1,613.9,417.6,343.8,417.6,310.8z M374.9,397h-41.7
			c-7.8,0-14.2-6.4-14.2-14.2v-40.1c0-2.5,2-4.5,4.5-4.5h61c2.5,0,4.5,2,4.5,4.5v40.1l0,0C389.1,390.7,382.7,397,374.9,397z"/>
	</g>
</g>
<g>
	<g>
		<path d="M289.2,228.1C289.2,228.1,289.2,228.1,289.2,228.1c-26.8,0-39.7,15.8-51.3,40.4L225,293c-11.7-27.9-9.9-23.4-21.3-50.7
			h24.3c7.3-11.6,16.6-21.9,29.4-28.4h-66.3c-6.4-8.7-18.1-12.3-28.6-8c-4.2,1.7-7.6,4.6-10.1,8H95.8c-7.8,0-14.2,6.4-14.2,14.2
			s6.4,14.2,14.2,14.2h55.8L199.9,358c7.8,18.6,33.7,19.9,43.3,2.1c11.6-21.1,35.1-62.5,43.8-77.9c0.4-0.7,1.3-1.1,2.1-0.9
			c0.8,0.2,1.4,0.9,1.4,1.8v6.5h18.9c0-14.6,0-47.5,0-61.4L289.2,228.1L289.2,228.1z"/>
	</g>
</g>
<g>
	<g>
		<path d="M330.6,228.1c0,14,0,46.9,0,61.4h46.8c0-30.4,0-28.6,0-61.4C366.5,228.1,355.4,228.1,330.6,228.1z"/>
	</g>
</g>
<g>
	<g>
		<path d="M475.7,284.6c-0.2-31.1-25.6-56.5-56.8-56.5h-20.1c0,14,0,46.9,0,61.4h18.9v-4.7c0-2.8,2.2-5,5-5c2.8,0,5,2.2,5,5
			c-0.3,113.8-0.3,75.1,0,181c0,13.2,10.8,23.9,24,23.9c0,0,0,0,0.1,0c13.3,0,24-10.8,23.9-24.1c-0.3-105.8-0.3-67,0-180.9
			C475.7,284.8,475.7,284.7,475.7,284.6z"/>
	</g>
</g>
<g>
	<g>
		<path d="M401,120.4c-4.8-21.5-24-37.6-47-37.6s-42.2,16.1-47,37.6c-28.1,4.3-47,12.3-47,21.5c0,8.9,17.7,16.7,44.2,21
			c0.2,27.4,22.6,49.3,49.7,49.3c27.2,0,49.5-21.9,49.7-49.3c26.6-4.4,44.2-12.2,44.2-21C448,132.7,429.1,124.7,401,120.4z"/>
	</g>
</g>
<g>
	<g>
		<path d="M580.7,213.9h-19.5v-9.6c0-3.3-2.7-6-6-6h-31.2c-3.3,0-6,2.7-6,6v9.6h-66.6c7.2,3.3,14,7.7,20,13.2
			c5,4.5,9.3,9.6,12.9,15.2h32.4c-2.2,20.2-7.5,39.9-15.7,58.6c-1.7,4,1.2,8.5,5.5,8.5h65.9c4.3,0,7.3-4.5,5.5-8.5
			c-8.2-18.7-13.5-38.4-15.7-58.6h18.3c2.5,0,4.6-2.1,4.6-4.6v-19.1C585.3,216,583.2,213.9,580.7,213.9z"/>
	</g>
</g>
</svg>
