<?xml version="1.0" encoding="utf-8"?>
<!-- Generator: Adobe Illustrator 27.1.0, SVG Export Plug-In . SVG Version: 6.00 Build 0)  -->
<svg version="1.1" id="Layer_1" xmlns="http://www.w3.org/2000/svg" xmlns:xlink="http://www.w3.org/1999/xlink" x="0px" y="0px"
	 viewBox="0 0 800 800" style="enable-background:new 0 0 800 800;" xml:space="preserve">
<g>
	<g>
		<g>
			<path d="M561.2,659.9h-15.7c-7.1,0-12.9,5.8-12.9,12.9c0,7.1,5.8,12.9,12.9,12.9h15.7c7.1,0,12.9-5.8,12.9-12.9
				C574.1,665.7,568.3,659.9,561.2,659.9z"/>
		</g>
	</g>
	<g>
		<g>
			<path d="M489.7,376.3c-1.2-12.1-14.3-12.1-23.3-12.1c-14.4,0-41.2,2.6-58.9,20.2c-2.8,2.8-5.2,5.8-7.3,8.9
				c-2.1-3.1-4.5-6.2-7.3-8.9c-16.8-16.7-41.3-20.2-58.9-20.2c-8.9,0-22.1-0.1-23.3,12.1c-0.6,5.4-4.3,46.5,20.1,70.6
				c17.7,17.6,44.5,20.2,58.9,20.2c-3.6,0-5.1,0-5.5,0c0.7,0,6.4,0,6.1,0c4.8,0,16.3,0,20.4,0c14.4,0,41.2-2.6,58.9-20.2
				C493.9,422.7,490.3,381.7,489.7,376.3z M386.9,441.4c-10.8-0.3-27.8-2.5-38-12.7c-10.4-10.3-12.7-27.6-13-38.8
				c10.7,0.2,28.3,2.3,38.9,12.7c8,8,11.4,20.6,12.5,31.6C387.1,436.8,386.9,439.2,386.9,441.4z M451.5,428.7
				c-10.3,10.2-27.3,12.4-38,12.7c0-2.2-0.2-4.6-0.4-7.2c1-10.5,4.2-23.3,12.5-31.6c10.5-10.5,28.1-12.5,38.9-12.7
				C464.2,401.1,461.9,418.4,451.5,428.7z"/>
		</g>
	</g>
	<g>
		<g>
			<path d="M489.7,272.5c-1.2-12.1-14.3-12.1-23.3-12.1c-14.4,0-41.2,2.6-58.9,20.2c-2.8,2.8-5.2,5.8-7.3,8.9
				c-2.1-3.1-4.5-6.2-7.3-8.9c-16.8-16.7-41.3-20.2-58.9-20.2c-8.6,0-22.1,0.4-23.3,12.1c-0.6,5.4-4.3,46.5,20.1,70.6
				c17.7,17.6,44.5,20.2,58.9,20.2c4.3,0,16.8,0,21.1,0c14.4,0,41.2-2.6,58.9-20.2C493.9,318.9,490.3,277.9,489.7,272.5z
				 M386.9,337.6c-10.8-0.3-27.8-2.5-38-12.7c-10.4-10.3-12.7-27.6-13-38.8c10.7,0.2,28.3,2.3,38.9,12.7c8,8,11.4,20.6,12.5,31.6
				C387.1,333,386.9,335.4,386.9,337.6z M451.5,324.9c-10.3,10.2-27.3,12.4-38,12.7c0-2.2-0.2-4.6-0.4-7.2
				c1-10.5,4.2-23.3,12.5-31.6c10.5-10.5,28.1-12.5,38.9-12.7C464.2,297.3,461.9,314.5,451.5,324.9z"/>
		</g>
	</g>
	<g>
		<g>
			<path d="M400,193.1c-7.1,0-12.9,5.8-12.9,12.9v46.5c0,7.1,5.8,12.9,12.9,12.9s12.9-5.8,12.9-12.9V206
				C412.9,198.9,407.1,193.1,400,193.1z"/>
		</g>
	</g>
	<g>
		<g>
			<path d="M400,137.7c-7.1,0-12.9,5.8-12.9,12.9v11.7c0,7.1,5.8,12.9,12.9,12.9s12.9-5.8,12.9-12.9v-11.7
				C412.9,143.5,407.1,137.7,400,137.7z"/>
		</g>
	</g>
	<g>
		<g>
			<path d="M451.4,169.9c-7.1,0-12.9,5.8-12.9,12.9v46.5c0,7.1,5.8,12.9,12.9,12.9c7.1,0,12.9-5.8,12.9-12.9v-46.5
				C464.3,175.7,458.5,169.9,451.4,169.9z"/>
		</g>
	</g>
	<g>
		<g>
			<path d="M451.4,114.5c-7.1,0-12.9,5.8-12.9,12.9V139c0,7.1,5.8,12.9,12.9,12.9c7.1,0,12.9-5.8,12.9-12.9v-11.7
				C464.3,120.3,458.5,114.5,451.4,114.5z"/>
		</g>
	</g>
	<g>
		<g>
			<path d="M348.6,169.7c-7.1,0-12.9,5.8-12.9,12.9v46.5c0,7.1,5.8,12.9,12.9,12.9c7.1,0,12.9-5.8,12.9-12.9v-46.5
				C361.4,175.5,355.7,169.7,348.6,169.7z"/>
		</g>
	</g>
	<g>
		<g>
			<path d="M348.6,114.3c-7.1,0-12.9,5.8-12.9,12.9v11.7c0,7.1,5.8,12.9,12.9,12.9c7.1,0,12.9-5.8,12.9-12.9v-11.7
				C361.4,120.1,355.7,114.3,348.6,114.3z"/>
		</g>
	</g>
	<g>
		<g>
			<path d="M708.3,661.5c-21.9-11.9-45.5-22.3-70.4-31.4v-23.5c14.8-0.3,39.6-3.5,56.4-20.1c-4,4-6.7,6.6,0.1-0.1
				c14.3-14.2,6-5.9,0.1-0.1c24.2-24.2,20.6-65.2,20-70.6c-1.2-12.1-14.3-12.1-23.3-12.1c-14.4,0-41.2,2.6-58.9,20.2
				c-2.8,2.8-5.2,5.8-7.3,8.9c-2.1-3.1-4.5-6.2-7.3-8.9c-16.8-16.7-41.3-20.2-58.9-20.2c-8.9,0-22.1-0.1-23.3,12.1
				c-0.6,5.4-4.3,46.5,20.1,70.6c16.8,16.7,41.8,19.9,56.6,20.2v14.8c-61.1-19-129-29.6-199.1-30.8v-19.8
				c14.8-0.3,39.8-3.5,56.6-20.2c24.3-24.2,20.7-65.2,20.1-70.7c-1.2-12.1-14.3-12.1-23.3-12.1c-14.4,0-41.2,2.6-58.9,20.2
				c-2.8,2.8-5.2,5.8-7.3,8.9c-2.1-3.1-4.5-6.2-7.3-8.9C376,471.5,351.5,468,334,468c-8.9,0-22.1-0.1-23.3,12.1
				c-0.6,5.4-4.3,46.5,20.1,70.6c16.8,16.7,41.8,19.9,56.6,20.2v19.8c-70.2,1.1-138.3,11.7-199.5,30.7v-14.8
				c14.8-0.3,39.8-3.5,56.6-20.2c24.3-24.2,20.7-65.2,20.1-70.7c-1.2-12.1-14.3-12.1-23.3-12.1c-14.4,0-41.2,2.6-58.9,20.2
				c-2.8,2.8-5.2,5.8-7.3,8.9c-2.1-3.1-4.5-6.2-7.3-8.9c-16.8-16.7-41.3-20.2-58.9-20.2c-8.9,0-22.1-0.1-23.3,12.1
				c-0.6,5.4-4.3,46.5,20.1,70.6c16.8,16.7,41.8,19.9,56.6,20.2v23.4c-25,9-48.6,19.5-70.5,31.4c-5.2,2.8-7.8,8.8-6.3,14.5
				c1.4,5.7,6.6,9.7,12.5,9.7h403.9c7.1,0,12.9-5.8,12.9-12.9s-5.8-12.9-12.9-12.9H155.9c71.5-28.3,156.2-43.6,244.1-43.6
				s172.6,15.3,244.1,43.6h-39.2c-7.1,0-12.9,5.8-12.9,12.9s5.8,12.9,12.9,12.9h97.3c5.9,0,11-4,12.5-9.7
				C716.1,670.3,713.5,664.3,708.3,661.5z M650.4,542.2c10.5-10.5,28.1-12.5,38.9-12.7c-0.3,11.2-2.6,28.4-13,38.8
				c-10.3,10.2-27.3,12.4-38,12.7c0-2.2-0.2-4.6-0.4-7.2C639,563.3,642.1,550.5,650.4,542.2z M611.7,580.9
				c-10.8-0.3-27.8-2.5-38-12.7c-10.4-10.3-12.7-27.6-13-38.8c10.7,0.2,28.3,2.3,38.9,12.7c8,8,11.4,20.6,12.5,31.6
				C611.9,576.3,611.8,578.7,611.7,580.9z M425.6,506.4c10.5-10.5,28.1-12.5,38.9-12.7c-0.3,11.2-2.6,28.4-13,38.8
				c-10.3,10.2-27.3,12.4-38,12.7c0-2.2-0.2-4.6-0.4-7.2C414.1,527.5,417.2,514.8,425.6,506.4z M386.9,545.2
				c-10.8-0.3-27.8-2.5-38-12.7c-10.4-10.3-12.7-27.6-13-38.8c10.7,0.2,28.3,2.3,38.9,12.7c8,8,11.4,20.6,12.5,31.6
				C387.1,540.6,386.9,543,386.9,545.2z M200.4,542.2c10.5-10.5,28.1-12.5,38.9-12.7c-0.3,11.2-2.6,28.4-13,38.8
				c-10.3,10.2-27.3,12.4-38,12.7c0-2.2-0.2-4.6-0.4-7.2C188.9,563.3,192.1,550.5,200.4,542.2z M161.7,580.9
				c-10.8-0.3-27.8-2.5-38-12.7c-10.4-10.3-12.7-27.6-13-38.8c10.7,0.2,28.3,2.3,38.9,12.7c8,8,11.4,20.6,12.5,31.6
				C161.9,576.3,161.8,578.7,161.7,580.9z"/>
		</g>
	</g>
	<g>
		<g>
			<path d="M714.5,412c-0.2-2.3-1.1-4.5-2.5-6.4c0.3,0.4,1,1.3,0,0c-0.2-0.3-0.1-0.2,0,0c-4.8-6.4-13.9-5.7-20.8-5.7
				c-14.4,0-41.2,2.6-58.9,20.2c-2.8,2.8-5.2,5.8-7.3,8.9c-2.1-3.1-4.5-6.2-7.3-8.9c-16.8-16.7-41.3-20.2-58.9-20.2
				c-8.9,0-22.1-0.1-23.3,12.1c-0.6,5.4-4.3,46.5,20.1,70.6c17.7,17.6,44.5,20.2,58.9,20.2c4.3,0,16.8,0,21.1,0
				c14.4,0,41.2-2.6,58.9-20.2C718.8,458.5,715.1,417.4,714.5,412z M611.7,477.1c-10.8-0.3-27.8-2.5-38-12.7
				c-10.4-10.3-12.7-27.6-13-38.8c10.7,0.2,28.3,2.3,38.9,12.7c8,8,11.4,20.6,12.5,31.6C611.9,472.5,611.8,474.9,611.7,477.1z
				 M676.3,464.4c-10.3,10.2-27.3,12.4-38,12.7c0-2.2-0.2-4.6-0.4-7.2c1-10.5,4.2-23.3,12.5-31.6c10.5-10.5,28.1-12.5,38.9-12.7
				C689,436.8,686.7,454.1,676.3,464.4z"/>
		</g>
	</g>
	<g>
		<g>
			<path d="M714.5,308.2c-1.2-12.1-14.3-12.1-23.3-12.1c-14.4,0-41.2,2.6-58.9,20.2c-2.8,2.8-5.2,5.8-7.3,8.9
				c-2.1-3.1-4.5-6.2-7.3-8.9c-16.8-16.7-41.3-20.2-58.9-20.2c-8.9,0-22.1-0.1-23.3,12.1c-0.6,5.4-4.3,46.5,20.1,70.6
				c17.7,17.6,44.5,20.2,58.9,20.2c-13,0,1.1,0,0.7,0c4.8,0,16.3,0,20.4,0c14.4,0,41.2-2.6,58.9-20.2
				C718.8,354.7,715.1,313.6,714.5,308.2z M611.7,373.3c-10.8-0.3-27.8-2.5-38-12.7c-10.4-10.3-12.7-27.6-13-38.8
				c10.7,0.2,28.3,2.3,38.9,12.7c8,8,11.4,20.6,12.5,31.6C611.9,368.7,611.8,371.1,611.7,373.3z M676.3,360.6
				c-10.3,10.2-27.3,12.4-38,12.7c0-2.2-0.2-4.6-0.4-7.2c1-10.5,4.2-23.3,12.5-31.6c10.5-10.5,28.1-12.5,38.9-12.7
				C689,333,686.7,350.3,676.3,360.6z"/>
		</g>
	</g>
	<g>
		<g>
			<path d="M624.8,228.9c-7.1,0-12.9,5.8-12.9,12.9v46.5c0,7.1,5.8,12.9,12.9,12.9c7.1,0,12.9-5.8,12.9-12.9v-46.5
				C637.7,234.6,632,228.9,624.8,228.9z"/>
		</g>
	</g>
	<g>
		<g>
			<path d="M624.8,173.5c-7.1,0-12.9,5.8-12.9,12.9V198c0,7.1,5.8,12.9,12.9,12.9c7.1,0,12.9-5.8,12.9-12.9v-11.7
				C637.7,179.2,632,173.5,624.8,173.5z"/>
		</g>
	</g>
	<g>
		<g>
			<path d="M676.3,205.6c-7.1,0-12.9,5.8-12.9,12.9V265c0,7.1,5.8,12.9,12.9,12.9c7.1,0,12.9-5.8,12.9-12.9v-46.5
				C689.1,211.4,683.4,205.6,676.3,205.6z"/>
		</g>
	</g>
	<g>
		<g>
			<path d="M676.3,150.2c-7.1,0-12.9,5.8-12.9,12.9v11.7c0,7.1,5.8,12.9,12.9,12.9c7.1,0,12.9-5.8,12.9-12.9v-11.7
				C689.1,156,683.4,150.2,676.3,150.2z"/>
		</g>
	</g>
	<g>
		<g>
			<path d="M573.4,205.5c-7.1,0-12.9,5.8-12.9,12.9v46.5c0,7.1,5.8,12.9,12.9,12.9c7.1,0,12.9-5.8,12.9-12.9v-46.5
				C586.3,211.2,580.5,205.5,573.4,205.5z"/>
		</g>
	</g>
	<g>
		<g>
			<path d="M573.4,150.1c-7.1,0-12.9,5.8-12.9,12.9v11.7c0,7.1,5.8,12.9,12.9,12.9c7.1,0,12.9-5.8,12.9-12.9v-11.7
				C586.3,155.8,580.5,150.1,573.4,150.1z"/>
		</g>
	</g>
	<g>
		<g>
			<path d="M264.5,412c-1.2-12.1-14.3-12.1-23.3-12.1c-14.4,0-41.2,2.6-58.9,20.2c-2.8,2.8-5.2,5.8-7.3,8.9
				c-2.1-3.1-4.5-6.2-7.3-8.9c-16.8-16.7-41.3-20.2-58.9-20.2c-8.9,0-22.1-0.1-23.3,12.1c-0.6,5.4-4.3,46.5,20.1,70.6
				c17.7,17.6,44.5,20.2,58.9,20.2c4.3,0,16.8,0,21.1,0c14.4,0,41.2-2.6,58.9-20.2C268.8,458.5,265.1,417.4,264.5,412z M161.7,477.1
				c-10.8-0.3-27.8-2.5-38-12.7c-10.4-10.3-12.7-27.6-13-38.8c10.7,0.2,28.3,2.3,38.9,12.7c8,8,11.4,20.6,12.5,31.6
				C161.9,472.5,161.8,474.9,161.7,477.1z M226.3,464.4c-10.3,10.2-27.3,12.4-38,12.7c0-2.2-0.2-4.6-0.4-7.2
				c1-10.5,4.2-23.3,12.5-31.6c10.5-10.5,28.1-12.5,38.9-12.7C239,436.8,236.7,454.1,226.3,464.4z"/>
		</g>
	</g>
	<g>
		<g>
			<path d="M264.5,308.2c-1.2-12.1-14.3-12.1-23.3-12.1c-14.4,0-41.2,2.6-58.9,20.2c-2.8,2.8-5.2,5.8-7.3,8.9
				c-2.1-3.1-4.5-6.2-7.3-8.9c-16.8-16.7-41.3-20.2-58.9-20.2c-8.9,0-22.1-0.1-23.3,12.1c-0.6,5.4-4.3,46.5,20.1,70.6
				c17.7,17.6,44.5,20.2,58.9,20.2c-13,0,1.1,0,0.7,0c4.8,0,16.3,0,20.4,0c14.4,0,41.2-2.6,58.9-20.2
				C268.8,354.7,265.1,313.6,264.5,308.2z M161.7,373.3c-10.8-0.3-27.8-2.5-38-12.7c-10.4-10.3-12.7-27.6-13-38.8
				c10.7,0.2,28.3,2.3,38.9,12.7c8,8,11.4,20.6,12.5,31.6C161.9,368.7,161.8,371.1,161.7,373.3z M226.3,360.6
				c-10.3,10.2-27.3,12.4-38,12.7c0-2.2-0.2-4.6-0.4-7.2c1-10.5,4.2-23.3,12.5-31.6c10.5-10.5,28.1-12.5,38.9-12.7
				C239,333,236.7,350.3,226.3,360.6z"/>
		</g>
	</g>
	<g>
		<g>
			<path d="M175,228.9c-7.1,0-12.9,5.8-12.9,12.9v46.5c0,7.1,5.8,12.9,12.9,12.9s12.9-5.8,12.9-12.9v-46.5
				C187.8,234.6,182.1,228.9,175,228.9z"/>
		</g>
	</g>
	<g>
		<g>
			<path d="M175,173.5c-7.1,0-12.9,5.8-12.9,12.9V198c0,7.1,5.8,12.9,12.9,12.9s12.9-5.8,12.9-12.9v-11.7
				C187.8,179.2,182.1,173.5,175,173.5z"/>
		</g>
	</g>
	<g>
		<g>
			<path d="M226.4,205.6c-7.1,0-12.9,5.8-12.9,12.9V265c0,7.1,5.8,12.9,12.9,12.9c7.1,0,12.9-5.8,12.9-12.9v-46.5
				C239.3,211.4,233.5,205.6,226.4,205.6z"/>
		</g>
	</g>
	<g>
		<g>
			<path d="M226.4,150.2c-7.1,0-12.9,5.8-12.9,12.9v11.7c0,7.1,5.8,12.9,12.9,12.9c7.1,0,12.9-5.8,12.9-12.9v-11.7
				C239.3,156,233.5,150.2,226.4,150.2z"/>
		</g>
	</g>
	<g>
		<g>
			<path d="M123.5,205.5c-7.1,0-12.9,5.8-12.9,12.9v46.5c0,7.1,5.8,12.9,12.9,12.9c7.1,0,12.9-5.8,12.9-12.9v-46.5
				C136.4,211.2,130.6,205.5,123.5,205.5z"/>
		</g>
	</g>
	<g>
		<g>
			<path d="M123.5,150.1c-7.1,0-12.9,5.8-12.9,12.9v11.7c0,7.1,5.8,12.9,12.9,12.9c7.1,0,12.9-5.8,12.9-12.9v-11.7
				C136.4,155.8,130.6,150.1,123.5,150.1z"/>
		</g>
	</g>
</g>
</svg>
