<svg width="44" height="44" viewBox="0 0 44 44" fill="none" xmlns="http://www.w3.org/2000/svg">
<circle cx="22" cy="22" r="22" fill="#89C97B"/>
<path d="M13.344 35V31.16L19.744 24.568C21.0027 23.2667 21.952 22.2427 22.592 21.496C23.2533 20.728 23.7013 20.088 23.936 19.576C24.192 19.064 24.32 18.5627 24.32 18.072C24.32 17.1973 24.032 16.5147 23.456 16.024C22.9013 15.512 22.1973 15.256 21.344 15.256C20.4693 15.256 19.6907 15.512 19.008 16.024C18.3253 16.5147 17.824 17.272 17.504 18.296L13.184 16.888C13.44 15.6507 13.9733 14.5733 14.784 13.656C15.5947 12.7387 16.576 12.0347 17.728 11.544C18.88 11.032 20.0853 10.776 21.344 10.776C22.9227 10.776 24.3093 11.0533 25.504 11.608C26.6987 12.1627 27.6267 12.9413 28.288 13.944C28.9493 14.9467 29.28 16.12 29.28 17.464C29.28 18.3173 29.1307 19.16 28.832 19.992C28.5333 20.8027 28.0747 21.6347 27.456 22.488C26.8587 23.32 26.08 24.2267 25.12 25.208L19.648 30.84H29.504V35H13.344Z" fill="white"/>
</svg>
