<svg width="50" height="50" viewBox="0 0 50 50" fill="none" xmlns="http://www.w3.org/2000/svg">
<rect width="50" height="50" rx="25" fill="#7EB693"/>
<path d="M36.6475 34.591L31.4335 29.1503C32.6888 27.4065 33.3664 25.284 33.3642 23.103C33.3642 17.5323 29.0207 13 23.6821 13C18.3434 13 14 17.5323 14 23.103C14 28.6738 18.3434 33.2061 23.6821 33.2061C25.7721 33.2085 27.8062 32.5014 29.4774 31.1915L34.6913 36.6322C34.9553 36.8784 35.2995 37.0098 35.6534 36.9994C36.0073 36.9891 36.3439 36.8378 36.5942 36.5766C36.8446 36.3154 36.9896 35.9641 36.9995 35.5948C37.0094 35.2256 36.8834 34.8664 36.6475 34.591V34.591ZM16.7663 23.103C16.7663 21.6758 17.1719 20.2805 17.9318 19.0938C18.6917 17.9071 19.7718 16.9821 21.0355 16.4359C22.2992 15.8897 23.6898 15.7468 25.0313 16.0252C26.3728 16.3037 27.6051 16.991 28.5723 18.0002C29.5395 19.0095 30.1981 20.2953 30.465 21.6952C30.7318 23.095 30.5949 24.546 30.0714 25.8647C29.548 27.1833 28.6616 28.3103 27.5243 29.1033C26.387 29.8963 25.0499 30.3195 23.6821 30.3195C21.8486 30.3172 20.0908 29.5562 18.7943 28.2033C17.4978 26.8505 16.7685 25.0163 16.7663 23.103V23.103Z" fill="#FAFAFA"/>
</svg>
