<?xml version="1.0" encoding="utf-8"?>
<!-- Generator: Adobe Illustrator 27.1.0, SVG Export Plug-In . SVG Version: 6.00 Build 0)  -->
<svg version="1.1" id="village" xmlns="http://www.w3.org/2000/svg" xmlns:xlink="http://www.w3.org/1999/xlink" x="0px" y="0px"
	 viewBox="0 0 800 800" style="enable-background:new 0 0 800 800;" xml:space="preserve">
<path d="M346.6,140c-5.2-5.2-13.6-5.2-18.8,0L93.2,374.6c-5.1,5.3-5,13.7,0.3,18.9c2.4,2.4,5.7,3.7,9.1,3.8h74.7v253.4
	c0,7.3,5.9,13.3,13.3,13.3c0,0,0,0,0,0h186.7c7.3,0.1,13.3-5.8,13.4-13.2c0,0,0,0,0,0l0,0V361.1c0-3.5,1.4-6.9,3.9-9.4l76.1-87.8
	L346.6,140z M337.2,557.2h-53.3v-53.3h53.3V557.2z M337.2,450.6h-53.3v-53.3h53.3V450.6z M697.2,237.2h-26.7
	c-7.4,0-13.3,6-13.3,13.3v93.3l-70.6-97.3c-5.2-5.2-13.6-5.2-18.8,0l-121,147c-1.9,2.3-3,5.3-3,8.3v248.5
	c-0.1,7.3,5.8,13.4,13.1,13.4c0,0,0,0,0,0h80c7.5,0,13.5-6,13.5-13.4c0,0,0,0,0,0l0,0v-93.2h53.3v93.2c0,7.5,6,13.5,13.5,13.5
	c0,0,0,0,0,0h80c7.3-0.1,13.1-6,13.2-13.3V250.6C710.6,243.2,704.6,237.2,697.2,237.2z M550.6,503.9h-53.3v-53.3h53.3V503.9z
	 M657.2,503.9h-53.3v-53.3h53.3V503.9z"/>
</svg>
