<?xml version="1.0" standalone="no"?>
<!DOCTYPE svg PUBLIC "-//W3C//DTD SVG 20010904//EN"
 "http://www.w3.org/TR/2001/REC-SVG-20010904/DTD/svg10.dtd">
<svg version="1.0" xmlns="http://www.w3.org/2000/svg"
 width="537.000000pt" height="537.000000pt" viewBox="0 0 537.000000 537.000000"
 preserveAspectRatio="xMidYMid meet">
<metadata>
Created by potrace 1.14, written by Peter Selinger 2001-2017
</metadata>
<g transform="translate(0.000000,537.000000) scale(0.100000,-0.100000)"
fill="#000000" stroke="none">
<path d="M3417 4593 c-2 -1 -32 -3 -67 -4 -158 -4 -347 -38 -525 -95 -79 -25
-283 -119 -334 -153 -14 -10 -53 -35 -86 -57 -75 -48 -177 -123 -219 -159 -6
-5 -47 -39 -91 -75 -44 -35 -82 -67 -85 -70 -3 -3 -39 -34 -80 -70 -41 -36
-79 -70 -85 -76 -5 -5 -46 -41 -90 -80 -44 -38 -82 -71 -85 -74 -3 -3 -50 -44
-105 -91 -512 -437 -871 -583 -1301 -528 -114 14 -154 5 -206 -45 -55 -53 -72
-149 -40 -227 16 -40 69 -87 110 -98 20 -6 71 -15 112 -21 231 -35 446 -119
850 -332 47 -25 141 -75 210 -111 301 -159 556 -247 825 -287 44 -7 88 -14 99
-16 113 -22 487 -21 636 1 140 21 187 30 278 51 57 13 106 24 108 24 3 0 4
-136 4 -302 -2 -340 6 -300 -88 -465 -66 -115 -80 -155 -77 -225 3 -100 73
-160 227 -195 104 -23 397 -23 494 0 139 33 214 82 230 149 19 81 2 140 -75
270 -37 62 -73 128 -79 147 -7 20 -12 89 -12 165 1 129 1 131 19 109 28 -33
122 -142 150 -172 101 -112 164 -209 187 -288 18 -63 19 -68 9 -164 -8 -84 2
-117 53 -164 72 -67 385 -105 574 -69 182 35 273 98 283 196 6 65 -23 117
-120 213 -120 120 -167 184 -290 395 -60 102 -114 195 -122 206 -13 20 -10 24
44 65 281 211 397 505 329 829 -31 152 -144 314 -280 406 -118 79 -288 144
-436 169 -19 3 -46 8 -60 10 -124 25 -682 39 -829 21 -138 -17 -252 -71 -286
-135 -19 -38 -19 -108 0 -164 8 -25 44 -95 80 -157 36 -63 67 -127 70 -144 3
-17 5 -91 3 -165 l-3 -135 -60 -18 c-33 -10 -71 -20 -85 -23 -14 -2 -65 -13
-115 -24 -49 -10 -121 -22 -160 -26 -38 -4 -79 -9 -90 -11 -34 -7 -306 -6
-375 1 -139 13 -223 26 -268 39 -9 3 -33 7 -53 10 -38 6 -213 59 -314 95 -83
30 -585 280 -673 335 -10 6 16 24 85 61 129 68 241 141 378 245 95 71 257 203
291 235 6 5 37 33 69 60 32 28 63 55 69 60 38 35 248 217 313 271 112 94 295
214 427 278 170 84 339 136 556 172 60 10 372 13 430 4 30 -5 73 -11 95 -14
287 -41 609 -161 920 -344 67 -40 251 -158 269 -173 32 -27 125 -92 150 -106
59 -31 142 -14 200 40 34 31 66 103 66 147 0 71 -30 111 -146 196 -101 74
-339 232 -374 247 -8 4 -33 18 -55 32 -116 72 -388 198 -555 256 -83 29 -277
83 -333 93 -106 19 -146 26 -177 30 -69 10 -308 25 -313 19z m586 -1504 c148
-39 273 -181 324 -370 19 -69 25 -296 10 -397 -31 -217 -109 -374 -218 -440
-43 -26 -117 -36 -165 -23 -36 10 -83 54 -86 81 -1 8 -2 275 -3 593 l-2 577
49 -5 c26 -2 67 -9 91 -16z"/>
</g>
</svg>
