<?xml version="1.0" encoding="UTF-8"?>
<!DOCTYPE svg PUBLIC "-//W3C//DTD SVG 1.1//EN" "http://www.w3.org/Graphics/SVG/1.1/DTD/svg11.dtd">
<!-- Creator: CorelDRAW 2019 (64-Bit) -->
<svg xmlns="http://www.w3.org/2000/svg" xml:space="preserve" width="1080px" height="1080px" version="1.1" style="shape-rendering:geometricPrecision; text-rendering:geometricPrecision; image-rendering:optimizeQuality; fill-rule:evenodd; clip-rule:evenodd"
viewBox="0 0 1080 1079.96"
 xmlns:xlink="http://www.w3.org/1999/xlink"
 xmlns:xodm="http://www.corel.com/coreldraw/odm/2003">
 <defs>
  <style type="text/css">
   <![CDATA[
    .fil0 {fill:#004F90}
   ]]>
  </style>
 </defs>
 <g id="Layer_x0020_1">
  <metadata id="CorelCorpID_0Corel-Layer"/>
  <path class="fil0" d="M743.63 705.3c0,-91.88 -63.08,-153.03 -139.81,-190.09 -50.04,10.89 -108.8,17.25 -163.75,17.72l13.81 -34.26c12.47,-0.42 21.92,-1.18 32.07,-1.78l0 -229.79 99.03 0 0 214.93c83,-24.5 117.75,-73.75 117.75,-130.95 0,-73.29 -55.58,-108.29 -118,-108.29l-164.38 0.06 0 521.74c0,55.23 33.21,66.82 65.6,67.39l0 -271.38c37.12,-1.3 77.01,-6.57 99.03,-11.7l0 283.08c79.15,-0.07 158.65,-48.3 158.65,-126.68zm-203.63 -705.3c149.11,0 284.11,60.45 381.83,158.16 97.72,97.71 158.17,232.71 158.17,381.82 0,149.1 -60.45,284.1 -158.17,381.82 -97.72,97.71 -232.72,158.16 -381.83,158.16 -149.11,0 -284.11,-60.45 -381.83,-158.16 -97.72,-97.72 -158.17,-232.72 -158.17,-381.82 0,-149.11 60.45,-284.11 158.17,-381.82 97.72,-97.71 232.72,-158.16 381.83,-158.16zm335.55 204.44c-85.87,-85.87 -204.51,-138.98 -335.55,-138.98 -131.04,0 -249.68,53.11 -335.55,138.98 -85.87,85.87 -138.99,204.5 -138.99,335.54 0,131.03 53.12,249.67 138.99,335.54 85.87,85.86 204.51,138.98 335.55,138.98 131.04,0 249.68,-53.12 335.55,-138.98 85.87,-85.87 138.99,-204.51 138.99,-335.54 0,-131.04 -53.12,-249.67 -138.99,-335.54zm-205.09 291.3l0 0c53.04,16.8 177.5,73.55 177.5,190.97 0,115.81 -109.16,184.78 -238.73,184.78l-377.19 0 0.39 -30.04c68.43,0 88.69,-9.02 88.69,-78.89l0 -441.93c0,-77.78 -30.69,-82.64 -88.82,-82.64l0 -27.96c10.88,-0.26 147.9,-0.07 253.65,0 -2.17,-54.79 -32.2,-58.77 -72.44,-58.77l0 -25.54 243.28 0 0 27.74c-39.23,0 -69.65,1.78 -71.81,56.57l24.25 0c54.71,0 189.06,18.83 189.32,129.45 0.19,77.62 -52.24,126.99 -128.09,156.26zm-256.95 458.71l0 0c40.24,0 70.27,-3.94 72.44,-58.66l99.03 0c2.16,54.72 32.58,56.5 71.81,56.5l0 27.75 -243.28 0 0 -25.59z"/>
 </g>
</svg>
