<svg width="142" height="38" viewBox="0 0 142 38" fill="none" xmlns="http://www.w3.org/2000/svg">
<path d="M38.8397 26.2213C39.1318 26.6812 39.4668 27.1114 39.8401 27.5057C40.1537 27.8211 40.4262 28.0871 40.6651 28.3075C40.8746 28.4986 41.0613 28.7142 41.2213 28.9498C41.3665 29.1847 41.4381 29.459 41.4266 29.7364C41.4266 30.2557 41.0744 30.6712 40.3702 30.9828C39.5196 31.3155 38.6119 31.4706 37.7012 31.4388C36.8086 31.4611 35.9181 31.3406 35.0622 31.0816C34.8802 31.0399 34.7089 30.9593 34.5597 30.8453C34.4105 30.7313 34.2867 30.5865 34.1964 30.4203C34.1062 30.2541 34.0515 30.0703 34.036 29.881C34.0205 29.6918 34.0446 29.5013 34.1066 29.3222C34.1551 29.1377 34.169 28.9456 34.1476 28.756C34.1177 28.4783 34.0473 28.2068 33.9386 27.9503C33.7691 27.5389 33.5415 27.1548 33.263 26.8103C33.168 26.6735 33.0605 26.5463 32.9419 26.4303L32.2364 25.6437L31.5309 24.8342L31.1353 24.401V26.1035C31.1287 26.4219 31.2046 26.7365 31.3555 27.0155C31.5048 27.2853 31.6616 27.5551 31.837 27.8211C32.0165 28.0887 32.1786 28.368 32.3223 28.6572C32.4758 28.9667 32.5527 29.3098 32.5463 29.6566C32.553 29.9569 32.443 30.2478 32.2402 30.466C32.006 30.7047 31.7194 30.8831 31.404 30.9866C31.0049 31.128 30.5919 31.2248 30.1722 31.2754C29.1801 31.393 28.178 31.393 27.186 31.2754C26.7664 31.2266 26.3533 31.131 25.9541 30.9904C25.6382 30.8878 25.3504 30.7107 25.1143 30.4736C24.9101 30.256 24.7987 29.965 24.8044 29.6642C24.794 29.3228 24.8644 28.984 25.0097 28.6762C25.1553 28.3873 25.3121 28.1099 25.4763 27.8363C25.6406 27.5627 25.8011 27.3005 25.9467 27.0307C26.0964 26.7514 26.1711 26.4368 26.1632 26.1187V16.7438C26.1675 16.4256 26.0917 16.1116 25.9429 15.8317C25.7974 15.5657 25.6368 15.2959 25.4726 15.0261C25.3084 14.7563 25.1479 14.4827 25.0023 14.1901C24.8501 13.88 24.7733 13.5372 24.7783 13.1906C24.7726 12.8916 24.8825 12.6023 25.0844 12.385C25.3233 12.1498 25.61 11.9708 25.9243 11.8606C26.3219 11.7199 26.7339 11.6256 27.1524 11.5794C27.6476 11.5156 28.1463 11.4839 28.6455 11.4844H29.4891C29.8101 11.4844 30.1237 11.511 30.4148 11.5262C30.7657 11.5452 31.1203 11.5566 31.5011 11.5566C32.5537 11.5526 33.6041 11.6557 34.6366 11.8644C35.6229 12.0544 36.5739 12.4006 37.4549 12.8904C38.2756 13.3475 38.976 13.9993 39.4967 14.7905C40.0379 15.6649 40.3108 16.6836 40.2806 17.7166C40.315 18.8641 39.9923 19.9933 39.3586 20.9429C38.7428 21.8492 37.9451 22.6121 37.0181 23.1812L38.2686 25.2712C38.612 25.8603 38.8211 26.1719 38.8397 26.2213ZM32.2066 23.0254C32.6546 23.0337 33.091 22.8802 33.4384 22.5922C33.8117 22.2738 34.1112 21.8755 34.3156 21.4255C34.565 20.8899 34.7421 20.3223 34.8419 19.7383C34.9588 19.0876 35.0163 18.4274 35.0136 17.766C35.0211 17.1338 34.9317 16.5043 34.7486 15.9001C34.5811 15.3681 34.3164 14.873 33.9684 14.4409C33.6397 14.0271 33.2221 13.6956 32.7478 13.4718C32.2279 13.2318 31.6612 13.1149 31.0905 13.1298V21.9233C31.0828 22.1144 31.124 22.3043 31.2099 22.4743C31.2756 22.6081 31.3715 22.724 31.4899 22.8126C31.5929 22.8946 31.7129 22.9517 31.8408 22.9798C31.9602 23.0114 32.0832 23.0267 32.2066 23.0254Z" fill="#89C97B"/>
<path d="M48.8996 26.1374C48.8966 26.4559 48.9737 26.7699 49.1236 27.0495C49.2729 27.3155 49.4259 27.5815 49.5939 27.8513C49.7619 28.1211 49.9149 28.3947 50.0642 28.6721C50.2173 28.9777 50.293 29.3173 50.2845 29.6602C50.2845 30.3138 49.9324 30.7609 49.2281 31.0016C48.3695 31.2738 47.4731 31.4022 46.5741 31.3816C45.6703 31.3984 44.7697 31.2701 43.9051 31.0016C43.1996 30.7622 42.8487 30.3176 42.8487 29.6602C42.8376 29.3175 42.9121 28.9775 43.0652 28.6721C43.2121 28.3934 43.3688 28.1198 43.5356 27.8513C43.6998 27.5815 43.8529 27.3155 44.0022 27.0457C44.1509 26.7658 44.2268 26.4518 44.2224 26.1336V21.6229C44.2342 21.3511 44.1553 21.0832 43.9984 20.8629C43.8599 20.692 43.7102 20.5308 43.5505 20.3802C43.3787 20.2269 43.2213 20.0577 43.0802 19.8748C42.9161 19.6236 42.8374 19.3246 42.8562 19.0236C42.8658 18.8461 42.9127 18.6728 42.9938 18.5155C43.075 18.3581 43.1885 18.2203 43.3265 18.1116C43.6817 17.7904 44.0882 17.5333 44.5285 17.3515C45.5718 16.9169 46.6862 16.6862 47.8134 16.6713C47.9655 16.6659 48.1166 16.6976 48.2543 16.7637C48.3919 16.8298 48.5121 16.9284 48.6047 17.0513C48.7798 17.2409 48.8842 17.487 48.8996 17.7467V26.1374ZM46.5703 15.5807C46.1353 15.5849 45.7027 15.5156 45.29 15.3755C44.9113 15.2485 44.5547 15.0612 44.2336 14.8207C43.9467 14.6037 43.7076 14.328 43.5318 14.0112C43.3639 13.7062 43.2776 13.3615 43.2817 13.0118C43.2786 12.6579 43.3634 12.3088 43.5281 11.9972C43.6993 11.6739 43.939 11.3935 44.2299 11.1763C44.5444 10.9339 44.8964 10.7464 45.2713 10.6215C45.6828 10.4808 46.1139 10.4089 46.5479 10.4087C46.9769 10.4076 47.4031 10.4782 47.8096 10.6177C48.1791 10.743 48.5259 10.9292 48.8362 11.1687C49.1263 11.3878 49.3669 11.6677 49.5417 11.9896C49.7059 12.3016 49.7918 12.6502 49.7917 13.0042C49.7959 13.3539 49.7096 13.6986 49.5417 14.0036C49.3722 14.3224 49.1381 14.6009 48.8548 14.8207C48.5454 15.0594 48.2 15.2455 47.832 15.3717C47.4264 15.5147 46.9996 15.5854 46.5703 15.5807Z" fill="#89C97B"/>
<path d="M66.7349 26.1104C66.7301 26.4278 66.8074 26.741 66.9589 27.0186C67.1044 27.2884 67.2612 27.5582 67.4255 27.8242C67.5897 28.0902 67.7502 28.3676 67.8995 28.6488C68.0524 28.9517 68.1282 29.2888 68.1198 29.6293C68.1198 30.2905 67.7676 30.7402 67.0634 30.9783C66.1973 31.2373 65.2969 31.3578 64.3944 31.3355C63.4956 31.3598 62.5986 31.2392 61.7367 30.9783C61.0349 30.7427 60.6803 30.2943 60.6803 29.6407C60.6727 29.2979 60.7483 28.9585 60.9005 28.6526C61.0461 28.379 61.2029 28.1016 61.3671 27.8356C61.5314 27.5696 61.6882 27.2998 61.8375 27.03C61.9867 26.7505 62.0613 26.436 62.054 26.118V21.9378C62.0907 21.0192 61.9538 20.102 61.6508 19.2359C61.5532 18.9368 61.3629 18.678 61.1085 18.4985C60.854 18.319 60.5492 18.2283 60.2398 18.2403C59.8574 18.2289 59.4832 18.3554 59.1834 18.5975C58.8698 18.8652 58.6078 19.1899 58.4108 19.5551C58.1925 19.9518 58.0304 20.3778 57.9292 20.8206C57.8256 21.2497 57.7717 21.6897 57.7687 22.1316V26.1218C57.7635 26.4405 57.8407 26.7551 57.9927 27.0338C58.1345 27.2998 58.295 27.5696 58.4593 27.8356C58.6235 28.1016 58.784 28.379 58.9334 28.6526C59.086 28.957 59.1617 29.2953 59.1536 29.6369C59.1536 30.2905 58.8015 30.7389 58.0972 30.9821C56.3528 31.4609 54.5149 31.4609 52.7705 30.9821C52.0687 30.7427 51.7141 30.2981 51.7141 29.6369C51.7074 29.295 51.7843 28.9567 51.9381 28.6526C52.0799 28.3752 52.2367 28.0978 52.401 27.828C52.5652 27.5582 52.7257 27.2922 52.8713 27.0224C53.0205 26.7442 53.0952 26.431 53.0878 26.1142V21.6186C53.0984 21.3475 53.021 21.0804 52.8676 20.8586C52.722 20.6832 52.5635 20.5193 52.3935 20.3684C52.2247 20.2117 52.0687 20.0414 51.9269 19.8592C51.7628 19.6094 51.6841 19.3116 51.7029 19.0117C51.712 18.8341 51.7587 18.6607 51.8399 18.5032C51.9211 18.3458 52.0348 18.2081 52.1733 18.0997C52.5392 17.7741 52.9587 17.5168 53.4125 17.3397C53.9318 17.1185 54.4722 16.9529 55.0251 16.8457C55.5751 16.727 56.1353 16.6646 56.6974 16.6594C56.8498 16.6559 57.0009 16.6883 57.1388 16.7543C57.2768 16.8202 57.3979 16.9178 57.4925 17.0395C57.6678 17.2376 57.7707 17.4913 57.7836 17.7577V18.2327C58.03 17.7423 58.4114 17.3356 58.8811 17.0623C59.3389 16.8082 59.8528 16.6774 60.3742 16.6822C61.2705 16.6674 62.1657 16.7541 63.0432 16.9407C63.7593 17.0989 64.4363 17.4041 65.0327 17.8375C65.5874 18.2541 66.0188 18.8181 66.2795 19.4677C66.5891 20.2652 66.7352 21.1187 66.7088 21.9758L66.7349 26.1104Z" fill="#89C97B"/>
<path d="M82.017 26.0876C82.0161 26.4046 82.0931 26.7168 82.241 26.9958C82.3866 27.2618 82.5471 27.5316 82.7113 27.8014C82.8756 28.0712 83.0361 28.341 83.1817 28.6222C83.3343 28.9266 83.41 29.2649 83.4019 29.6065C83.4019 30.2626 83.0498 30.711 82.3455 30.9517C81.481 31.2203 80.5803 31.3485 79.6766 31.3317C79.2897 31.3459 78.9053 31.2637 78.5567 31.0923C78.2916 30.9588 78.0525 30.7772 77.8512 30.5565C77.634 30.3416 77.4636 30.0827 77.351 29.7965C77.0547 30.3018 76.6289 30.7156 76.1192 30.9935C75.5969 31.2441 75.0241 31.3664 74.4469 31.3507C73.5617 31.3632 72.685 31.1733 71.8813 30.7952C71.0777 30.417 70.3676 29.8602 69.8033 29.1657C69.2389 28.4827 68.8138 27.6921 68.5528 26.84C68.265 25.9119 68.1202 24.9441 68.1236 23.9709C68.1157 22.9943 68.2735 22.0237 68.5902 21.1018C68.8746 20.2485 69.3264 19.463 69.918 18.7928C70.5096 18.1226 71.2287 17.5817 72.0318 17.2029C72.8807 16.8034 73.8067 16.6021 74.7418 16.6138C74.9501 16.6207 75.1568 16.6526 75.3577 16.7088C75.6118 16.7707 75.8613 16.8507 76.1043 16.9483C76.3553 17.0418 76.5926 17.1697 76.8098 17.3283C77.0293 17.4865 77.2254 17.6759 77.3921 17.8907V12.9201C77.407 12.642 77.328 12.3671 77.1681 12.1411C77.0191 11.9653 76.8582 11.8002 76.6866 11.6471C76.517 11.4927 76.3609 11.3236 76.22 11.1417C76.0544 10.8912 75.9756 10.5916 75.996 10.2904C76.0051 10.1123 76.0517 9.93827 76.1329 9.7802C76.2141 9.62214 76.3278 9.48379 76.4664 9.3746C76.819 9.0518 77.2246 8.79455 77.6646 8.61458C78.7008 8.16786 79.8131 7.93287 80.9383 7.92295C81.0884 7.91579 81.238 7.94435 81.3754 8.00635C81.5128 8.06836 81.634 8.16211 81.7296 8.28017C81.9088 8.47584 82.0122 8.73101 82.0208 8.99839L82.017 26.0876ZM77.3622 21.4476C77.362 21.0258 77.303 20.6061 77.1868 20.2012C77.0804 19.8321 76.9206 19.4811 76.7127 19.1599C76.5303 18.8797 76.291 18.6426 76.011 18.4645C75.7696 18.3048 75.4888 18.2179 75.201 18.2137C75.0281 18.2186 74.8585 18.2624 74.7043 18.3419C74.5501 18.4214 74.415 18.5346 74.3088 18.6735C74.011 19.0389 73.7831 19.4578 73.6369 19.9086C73.4325 20.4996 73.2898 21.1111 73.2114 21.7326C73.0174 23.2233 73.0174 24.7336 73.2114 26.2244C73.2916 26.8456 73.4342 27.4568 73.6369 28.0484C73.7872 28.4978 74.0175 28.9152 74.3163 29.2797C74.4227 29.4192 74.5583 29.5329 74.7133 29.6124C74.8682 29.692 75.0387 29.7354 75.2122 29.7395C75.3762 29.7335 75.5371 29.6918 75.6839 29.617C75.8308 29.5423 75.9601 29.4363 76.0632 29.3063C76.3405 28.9853 76.5671 28.6225 76.7351 28.2308C76.9341 27.7784 77.0855 27.3058 77.1868 26.821C77.2905 26.3507 77.3443 25.8704 77.3473 25.3883L77.3622 21.4476Z" fill="#89C97B"/>
<path d="M97.5715 28.2422C97.6449 28.2417 97.7179 28.2302 97.788 28.208C97.8786 28.1802 97.9738 28.1712 98.068 28.1814C98.1134 28.1873 98.1569 28.2037 98.195 28.2294C98.2332 28.2551 98.2651 28.2894 98.2882 28.3296C98.3607 28.4832 98.3916 28.6538 98.3778 28.8236C98.3847 29.2059 98.3002 29.5841 98.1314 29.9257C97.9701 30.2263 97.7442 30.4861 97.4707 30.6857C97.1869 30.8988 96.8685 31.0596 96.5301 31.1607C96.1654 31.2632 95.7886 31.3144 95.4102 31.3127C94.9057 31.331 94.4016 31.2668 93.9171 31.1227C93.6042 31.0214 93.3074 30.8741 93.0362 30.6857C92.8134 30.5248 92.6326 30.3109 92.5098 30.0625C92.0482 30.5323 91.4784 30.8772 90.8525 31.0657C90.2372 31.2375 89.6017 31.3232 88.9637 31.3203C87.6099 31.3203 86.5523 31.0188 85.7908 30.4159C85.0442 29.8079 84.6448 28.8692 84.6448 27.5962C84.6344 27.0158 84.7748 26.4429 85.0517 25.9355C85.3238 25.4464 85.6819 25.0123 86.1081 24.6549C86.5675 24.2723 87.0685 23.9446 87.6012 23.6783C88.1605 23.3954 88.7336 23.1418 89.3183 22.9182C89.9043 22.694 90.4717 22.504 91.0204 22.333C91.5692 22.162 92.0544 21.9758 92.4837 21.8086V20.2467C92.488 19.731 92.3268 19.228 92.0246 18.8141C91.8822 18.6065 91.6904 18.439 91.4671 18.3273C91.2438 18.2157 90.9964 18.1635 90.748 18.1757C90.571 18.1653 90.3959 18.2175 90.2523 18.3235C90.1088 18.4294 90.0057 18.5826 89.9603 18.7571C89.8139 19.1948 89.7444 19.6553 89.755 20.1175C89.7725 20.426 89.7148 20.7341 89.5871 21.0144C89.467 21.2427 89.3033 21.4443 89.1055 21.6072C88.9143 21.7801 88.689 21.9097 88.4448 21.9872C88.2167 22.0547 87.9806 22.0905 87.7431 22.0936C87.5035 22.089 87.2659 22.0494 87.0376 21.9758C86.7683 21.8958 86.5154 21.7671 86.291 21.5958C86.024 21.3847 85.8102 21.1119 85.6674 20.8C85.5246 20.4881 85.4569 20.146 85.4698 19.8021C85.4665 19.3764 85.5887 18.9594 85.8207 18.6051C86.1042 18.1995 86.4694 17.8601 86.892 17.6095C87.3805 17.2879 87.9107 17.0372 88.4672 16.8646C89.1308 16.6779 89.8169 16.5871 90.5053 16.5948C91.4342 16.5748 92.3573 16.7468 93.2191 17.1002C94.0151 17.4323 94.7346 17.9292 95.3318 18.5595C95.9229 19.2054 96.381 19.9651 96.6794 20.794C97.0009 21.6936 97.1602 22.645 97.1497 23.6023V27.4518C97.1572 27.9838 97.2953 28.2422 97.5715 28.2422ZM92.5061 23.3819C90.57 23.8885 89.6032 25.1831 89.6057 27.2656C89.597 27.6512 89.6473 28.0358 89.755 28.4056C89.8266 28.6642 89.9541 28.9031 90.1283 29.1048C90.2543 29.2476 90.4078 29.3624 90.5793 29.4422C90.7507 29.522 90.9365 29.5649 91.125 29.5685C91.3199 29.5558 91.5088 29.4944 91.6748 29.3897C91.8409 29.285 91.9789 29.1401 92.0768 28.968C92.4001 28.4109 92.5486 27.7666 92.5024 27.1212L92.5061 23.3819Z" fill="#89C97B"/>
<path d="M114.694 26.0345C114.688 26.3517 114.764 26.6649 114.914 26.9428C115.059 27.2113 115.215 27.4811 115.385 27.7522C115.549 28.0182 115.709 28.2918 115.855 28.573C116.009 28.8771 116.086 29.2153 116.079 29.5573C116.079 30.2147 115.706 30.6593 115.022 30.9025C113.279 31.3788 111.443 31.3788 109.7 30.9025C108.995 30.6669 108.643 30.221 108.643 29.5649C108.632 29.2246 108.706 28.887 108.86 28.5844C109.005 28.3032 109.162 28.0296 109.326 27.7598C109.49 27.49 109.651 27.224 109.793 26.9542C109.945 26.6772 110.021 26.3634 110.013 26.0459V21.8658C110.043 20.9442 109.902 20.0251 109.599 19.1563C109.503 18.855 109.313 18.5936 109.059 18.4114C108.804 18.2291 108.499 18.1358 108.188 18.1455C107.805 18.1318 107.43 18.2585 107.131 18.5027C106.817 18.7679 106.554 19.0916 106.359 19.4565C106.143 19.8598 105.985 20.2923 105.888 20.741C105.786 21.1702 105.733 21.6103 105.732 22.052V26.0421C105.729 26.3601 105.805 26.6737 105.952 26.9542C106.101 27.224 106.258 27.49 106.426 27.756C106.594 28.022 106.747 28.2994 106.896 28.573C107.046 28.8783 107.12 29.2161 107.113 29.5573C107.118 29.8687 107.017 30.1724 106.828 30.4173C106.639 30.6623 106.373 30.8336 106.075 30.9025C105.216 31.1652 104.321 31.2858 103.425 31.2597C102.521 31.282 101.619 31.1615 100.752 30.9025C100.05 30.6631 99.6956 30.2185 99.6956 29.5611C99.688 29.2183 99.7637 28.8789 99.9158 28.573C100.065 28.2956 100.218 28.0182 100.382 27.7522C100.547 27.4862 100.707 27.2126 100.853 26.9428C101.002 26.6634 101.077 26.3488 101.069 26.0307V21.5428C101.084 21.2712 101.006 21.0028 100.849 20.7828C100.707 20.6056 100.549 20.4415 100.379 20.2926C100.206 20.128 100.046 19.9502 99.9009 19.7605C99.7392 19.5085 99.6632 19.2095 99.6844 18.9093C99.692 18.7318 99.7377 18.5582 99.8184 18.4006C99.899 18.243 100.013 18.1054 100.151 17.9973C100.506 17.6762 100.913 17.4192 101.353 17.2372C101.873 17.0195 102.413 16.854 102.966 16.7432C103.515 16.6294 104.074 16.5683 104.634 16.5608C104.784 16.5531 104.934 16.5813 105.072 16.6434C105.209 16.7054 105.33 16.7995 105.425 16.918C105.605 17.1143 105.711 17.3686 105.724 17.6363V18.1113C105.971 17.623 106.352 17.2188 106.822 16.9484C107.291 16.6853 107.82 16.5542 108.356 16.5684C109.252 16.5543 110.148 16.6435 111.025 16.8344C111.743 16.98 112.422 17.2792 113.018 17.7123C113.572 18.1269 114.005 18.688 114.268 19.3349C114.575 20.1347 114.721 20.9887 114.698 21.8468L114.694 26.0345Z" fill="#89C97B"/>
<path d="M129.05 13.802C129.281 13.7909 129.512 13.8303 129.727 13.9174C129.942 14.0046 130.137 14.1375 130.297 14.3074C130.451 14.4568 130.574 14.6365 130.658 14.8358C130.743 15.035 130.786 15.2496 130.786 15.4664C130.797 15.845 130.7 16.2188 130.506 16.5419C130.33 16.8268 130.088 17.0631 129.801 17.2297C129.491 17.408 129.154 17.5302 128.804 17.5907C128.434 17.6595 128.06 17.7052 127.684 17.7275C128.443 18.2246 129.082 18.8913 129.55 19.677C129.978 20.3915 130.221 21.205 130.256 22.0412C130.29 22.8774 130.116 23.7089 129.748 24.4575C129.403 25.145 128.924 25.7539 128.341 26.2474C127.711 26.7803 126.995 27.197 126.225 27.4786C125.398 27.7828 124.524 27.9359 123.645 27.9308C122.51 27.9308 121.661 28.1702 121.096 28.6491C120.581 29.0401 120.222 29.6067 120.084 30.2451C119.971 30.7959 120.077 31.3697 120.379 31.8412C120.529 32.0786 120.74 32.2705 120.988 32.3968C121.236 32.5232 121.513 32.5793 121.79 32.5594C122.146 32.5745 122.495 32.4569 122.772 32.2288C123.02 31.9988 123.228 31.7261 123.384 31.4232C123.548 31.1039 123.712 30.7505 123.865 30.3743C124.015 30.0075 124.201 29.6573 124.422 29.3293C124.642 29.0082 124.92 28.7333 125.243 28.5199C125.643 28.2837 126.102 28.1702 126.564 28.193C127.132 28.1771 127.698 28.262 128.237 28.4439C128.666 28.5876 129.061 28.8206 129.397 29.1279C129.68 29.3905 129.906 29.7104 130.06 30.067C130.215 30.4237 130.294 30.8092 130.293 31.1989C130.294 31.5165 130.24 31.8317 130.133 32.13C130.028 32.4227 129.876 32.6952 129.681 32.9356C129.474 33.1799 129.22 33.3779 128.935 33.517C128.634 33.6689 128.303 33.7458 127.968 33.7412C127.733 33.7636 127.496 33.7341 127.273 33.6548C127.05 33.5754 126.846 33.4481 126.676 33.2814C126.408 32.9859 126.203 32.6364 126.075 32.2554C125.948 31.8754 125.848 31.5296 125.777 31.2217C125.706 30.9139 125.579 30.7581 125.381 30.7581C125.183 30.7581 125.064 30.9329 125.075 31.2673C125.086 31.6018 125.12 32.0274 125.179 32.5366C125.239 33.0458 125.284 33.612 125.314 34.1934C125.349 34.7573 125.27 35.3226 125.082 35.8541C124.892 36.3663 124.556 36.8086 124.115 37.1233C123.501 37.4925 122.793 37.6659 122.081 37.6212C121.282 37.641 120.494 37.4302 119.808 37.0131C119.163 36.6168 118.611 36.081 118.192 35.4437C117.766 34.7933 117.475 34.0615 117.337 33.2928C117.191 32.5081 117.191 31.7025 117.337 30.9177C117.486 30.1217 117.806 29.3691 118.274 28.7137C118.789 28.0063 119.469 27.4408 120.252 27.0682C119.332 26.6055 118.542 25.9125 117.956 25.0541C117.46 24.3245 117.164 23.4733 117.098 22.5882C117.032 21.7031 117.2 20.8162 117.583 20.019C117.924 19.318 118.405 18.6969 118.994 18.1949C119.616 17.6669 120.323 17.2529 121.084 16.9713C121.908 16.6684 122.777 16.5153 123.653 16.5191C123.937 16.5184 124.222 16.5387 124.504 16.5799C124.776 16.6179 125.052 16.6635 125.325 16.7243C125.536 16.7802 125.758 16.7794 125.968 16.7222C126.179 16.6649 126.371 16.553 126.527 16.3975C126.79 16.0809 127.015 15.7339 127.199 15.3638C127.393 14.9861 127.619 14.6263 127.874 14.2884C128.019 14.1187 128.201 13.9862 128.405 13.9017C128.609 13.8172 128.83 13.783 129.05 13.802ZM123.641 26.3766C123.768 26.3732 123.893 26.3423 124.007 26.2859C124.12 26.2296 124.221 26.1491 124.302 26.0498C124.531 25.7955 124.71 25.4988 124.828 25.1757C124.993 24.7557 125.112 24.3186 125.183 23.8723C125.272 23.3375 125.314 22.7958 125.31 22.2534C125.313 21.7223 125.269 21.192 125.179 20.6688C125.096 20.2182 124.971 19.7766 124.806 19.3501C124.695 19.024 124.524 18.7223 124.302 18.4609C124.219 18.3641 124.118 18.2856 124.005 18.23C123.891 18.1745 123.767 18.1431 123.641 18.1379C123.517 18.1415 123.396 18.1726 123.285 18.229C123.174 18.2855 123.077 18.3659 122.999 18.4647C122.775 18.7261 122.6 19.0276 122.484 19.354C122.325 19.7806 122.207 20.2223 122.133 20.6726C121.957 21.7329 121.957 22.8158 122.133 23.8761C122.204 24.3222 122.321 24.7592 122.484 25.1795C122.604 25.4993 122.779 25.7952 122.999 26.0536C123.076 26.1523 123.174 26.2324 123.285 26.2882C123.396 26.3441 123.518 26.3742 123.641 26.3766Z" fill="#89C97B"/>
<path d="M124.519 17.1725C125.668 14.4022 127.878 11.2025 130.864 10.3627C133.75 9.55705 137.132 9.69386 139.737 11.2177L139.189 9.12004C137.934 11.2367 136.628 13.3724 134.911 15.1394C132.876 17.2447 130.719 18.0541 127.867 18.4607C125.952 18.7382 126.766 21.6871 128.673 21.4248C135.124 20.5014 138.588 16.1047 141.802 10.6705C141.998 10.3174 142.051 9.90032 141.95 9.50788C141.849 9.11544 141.601 8.77861 141.26 8.56902C137.755 6.51695 133.048 6.28894 129.226 7.65319C125.571 8.96803 123.029 12.8936 121.6 16.3517C120.853 18.1757 123.765 18.97 124.511 17.1687L124.519 17.1725Z" fill="#89C97B"/>
<path d="M42.6248 7.1865C36.9248 2.94556 29.8176 -0.0299366 22.7439 2.21594C15.2223 4.60242 10.2801 15.0718 1.65735 13.4415L1.25794 16.4816C6.18897 16.968 10.0785 20.5211 14.7483 21.836C19.0562 22.9976 23.6075 22.8162 27.8131 21.3154C29.6533 20.6921 28.4887 17.8573 26.6484 18.4767C22.0563 20.0734 17.0386 19.8247 12.6206 17.7813C8.9587 16.1054 5.75596 13.8367 1.65735 13.4415C-0.27997 13.2515 -0.65325 16.1282 1.25794 16.4816C8.38758 17.8345 13.2029 12.3699 18.2608 8.27334C25.5211 2.42114 33.7557 4.38201 40.7659 9.60338C42.3374 10.7776 44.2 8.36074 42.6248 7.1865Z" fill="#89C97B"/>
<path d="M77.6423 3.34791C77.6408 2.91123 77.6846 2.4756 77.7729 2.04827C77.8476 1.6764 77.9667 1.31524 78.1275 0.972832C78.2424 0.700041 78.4129 0.455222 78.6277 0.254608C78.7975 0.0942244 79.0195 0.00352165 79.2511 0C79.486 0.00356615 79.7115 0.0940726 79.8857 0.254608C80.109 0.450787 80.2853 0.696488 80.4008 0.972832C80.5587 1.30947 80.6765 1.66414 80.7517 2.02927C80.8418 2.45759 80.8856 2.89468 80.8823 3.33271C80.8867 3.76306 80.8441 4.19257 80.7554 4.61335C80.6779 4.97539 80.5602 5.32727 80.4045 5.66219C80.2809 5.93467 80.1029 6.17798 79.8819 6.37661C79.7063 6.53711 79.4796 6.62754 79.2436 6.63122C79.0122 6.62699 78.7904 6.53638 78.6202 6.37661C78.4053 6.17672 78.2337 5.9334 78.1163 5.66219C77.9562 5.33008 77.8371 4.97907 77.7617 4.61715C77.6774 4.19965 77.6373 3.77413 77.6423 3.34791Z" fill="#89C97B"/>
<path d="M74.5775 6.76763C74.3315 6.56312 74.1075 6.33255 73.9094 6.07981C73.7367 5.86272 73.5901 5.62544 73.4726 5.37298C73.3768 5.1763 73.3221 4.96148 73.3121 4.74216C73.3016 4.5657 73.3547 4.39139 73.4614 4.25194C73.5765 4.11587 73.7352 4.02567 73.9094 3.99734C74.1231 3.96166 74.3418 3.97202 74.5514 4.02774C74.8181 4.0978 75.076 4.19852 75.3204 4.32795C75.6 4.47893 75.8639 4.65846 76.108 4.86377C76.3536 5.06879 76.5775 5.29931 76.7761 5.55159C76.9443 5.76771 77.0883 6.00223 77.2054 6.25081C77.3014 6.44995 77.3548 6.66754 77.3622 6.88923C77.3685 7.06753 77.313 7.24242 77.2054 7.38325C77.0945 7.51931 76.9372 7.60757 76.7649 7.63026C76.5522 7.66461 76.3347 7.65295 76.1266 7.59606C75.867 7.52974 75.6163 7.43148 75.3801 7.30345C75.093 7.15721 74.8237 6.97739 74.5775 6.76763Z" fill="#89C97B"/>
<path d="M83.3311 6.95436C83.0944 7.07959 82.8437 7.17529 82.5845 7.23937C82.3815 7.29617 82.1689 7.30783 81.9611 7.27357C81.7935 7.25191 81.6401 7.16637 81.5319 7.03416C81.4246 6.89776 81.3702 6.72606 81.3788 6.55154C81.385 6.33664 81.4359 6.12552 81.5281 5.93212C81.6415 5.68869 81.7818 5.4592 81.9462 5.2481C82.1409 5.00301 82.3598 4.77889 82.5995 4.57928C82.8357 4.37685 83.0937 4.20221 83.3684 4.05866C83.6056 3.9328 83.8561 3.83464 84.115 3.76605C84.3198 3.71234 84.5332 3.702 84.7421 3.73565C84.9117 3.75845 85.0663 3.84622 85.1745 3.98109C85.2827 4.11596 85.3363 4.28776 85.3244 4.46147C85.3139 4.6742 85.2605 4.88245 85.1676 5.0733C85.0526 5.31984 84.9098 5.55194 84.7421 5.76492C84.5483 6.0109 84.3294 6.23512 84.0888 6.43374C83.8579 6.6379 83.6035 6.81272 83.3311 6.95436Z" fill="#89C97B"/>
</svg>
