<svg width="735" height="151" viewBox="0 0 735 151" fill="none" xmlns="http://www.w3.org/2000/svg">
<path fill-rule="evenodd" clip-rule="evenodd" d="M383.1 26.4251C383.1 23.4215 384.293 20.541 386.417 18.4171C388.54 16.2933 391.421 15.1001 394.425 15.1001H462.375C465.378 15.1001 468.259 16.2933 470.383 18.4171C472.506 20.541 473.7 23.4215 473.7 26.4251V115.138C473.7 120.644 475.887 125.925 479.781 129.819C483.675 133.713 488.956 135.9 494.462 135.9H403.862C398.356 135.9 393.075 133.713 389.181 129.819C385.287 125.925 383.1 120.644 383.1 115.138V26.4251ZM411.412 79.2751C409.91 79.2751 408.47 79.8717 407.408 80.9336C406.346 81.9955 405.75 83.4358 405.75 84.9376C405.75 86.4394 406.346 87.8797 407.408 88.9416C408.47 90.0035 409.91 90.6001 411.412 90.6001H445.387C446.889 90.6001 448.329 90.0035 449.391 88.9416C450.453 87.8797 451.05 86.4394 451.05 84.9376C451.05 83.4358 450.453 81.9955 449.391 80.9336C448.329 79.8717 446.889 79.2751 445.387 79.2751H411.412ZM411.412 101.925C409.91 101.925 408.47 102.522 407.408 103.584C406.346 104.646 405.75 106.086 405.75 107.588C405.75 109.089 406.346 110.53 407.408 111.592C408.47 112.654 409.91 113.25 411.412 113.25H445.387C446.889 113.25 448.329 112.654 449.391 111.592C450.453 110.53 451.05 109.089 451.05 107.588C451.05 106.086 450.453 104.646 449.391 103.584C448.329 102.522 446.889 101.925 445.387 101.925H411.412ZM405.75 43.4126C405.75 41.9108 406.346 40.4705 407.408 39.4086C408.47 38.3467 409.91 37.7501 411.412 37.7501H445.387C446.889 37.7501 448.329 38.3467 449.391 39.4086C450.453 40.4705 451.05 41.9108 451.05 43.4126V62.2876C451.05 63.7894 450.453 65.2297 449.391 66.2916C448.329 67.3535 446.889 67.9501 445.387 67.9501H411.412C409.91 67.9501 408.47 67.3535 407.408 66.2916C406.346 65.2297 405.75 63.7894 405.75 62.2876V43.4126Z" fill="#FF6B6B"/>
<path d="M492.575 49.0752H485.025V115.138C485.025 117.641 486.02 120.041 487.79 121.811C489.559 123.581 491.96 124.575 494.463 124.575C496.966 124.575 499.366 123.581 501.136 121.811C502.906 120.041 503.9 117.641 503.9 115.138V60.4002C503.9 57.3966 502.707 54.5161 500.583 52.3922C498.46 50.2684 495.579 49.0752 492.575 49.0752Z" fill="#89C97B"/>
<path d="M541.39 134V81.85H560.36C563.86 81.85 566.94 82.5033 569.6 83.81C572.307 85.07 574.407 86.9367 575.9 89.41C577.393 91.8367 578.14 94.7533 578.14 98.16C578.14 101.52 577.37 104.413 575.83 106.84C574.337 109.267 572.26 111.133 569.6 112.44C566.94 113.747 563.86 114.4 560.36 114.4H549.65V134H541.39ZM549.65 107.05H560.57C562.437 107.05 564.07 106.677 565.47 105.93C566.87 105.183 567.967 104.157 568.76 102.85C569.553 101.497 569.95 99.91 569.95 98.09C569.95 96.27 569.553 94.7067 568.76 93.4C567.967 92.0467 566.87 91.02 565.47 90.32C564.07 89.5733 562.437 89.2 560.57 89.2H549.65V107.05ZM602.287 134.84C598.507 134.84 595.147 133.977 592.207 132.25C589.313 130.477 587.05 128.097 585.417 125.11C583.783 122.077 582.967 118.693 582.967 114.96C582.967 111.133 583.783 107.75 585.417 104.81C587.097 101.87 589.337 99.56 592.137 97.88C594.937 96.1533 598.11 95.29 601.657 95.29C604.503 95.29 607.047 95.78 609.287 96.76C611.527 97.74 613.417 99.0933 614.957 100.82C616.497 102.5 617.663 104.437 618.457 106.63C619.297 108.823 619.717 111.157 619.717 113.63C619.717 114.237 619.693 114.867 619.647 115.52C619.6 116.173 619.507 116.78 619.367 117.34H589.197V111.04H614.887L611.107 113.91C611.573 111.623 611.41 109.593 610.617 107.82C609.87 106 608.703 104.577 607.117 103.55C605.577 102.477 603.757 101.94 601.657 101.94C599.557 101.94 597.69 102.477 596.057 103.55C594.423 104.577 593.163 106.07 592.277 108.03C591.39 109.943 591.04 112.277 591.227 115.03C590.993 117.597 591.343 119.837 592.277 121.75C593.257 123.663 594.61 125.157 596.337 126.23C598.11 127.303 600.117 127.84 602.357 127.84C604.643 127.84 606.58 127.327 608.167 126.3C609.8 125.273 611.083 123.943 612.017 122.31L618.457 125.46C617.71 127.233 616.543 128.843 614.957 130.29C613.417 131.69 611.55 132.81 609.357 133.65C607.21 134.443 604.853 134.84 602.287 134.84ZM644.936 134.84C641.296 134.84 638.03 133.977 635.136 132.25C632.29 130.477 630.026 128.097 628.346 125.11C626.713 122.123 625.896 118.763 625.896 115.03C625.896 111.297 626.736 107.937 628.416 104.95C630.096 101.963 632.36 99.6067 635.206 97.88C638.053 96.1533 641.273 95.29 644.866 95.29C647.9 95.29 650.583 95.8967 652.916 97.11C655.25 98.3233 657.093 100.003 658.446 102.15L657.256 103.97V81.01H665.096V134H657.606V126.3L658.516 127.77C657.21 130.057 655.343 131.807 652.916 133.02C650.49 134.233 647.83 134.84 644.936 134.84ZM645.706 127.49C647.9 127.49 649.86 126.953 651.586 125.88C653.36 124.807 654.736 123.337 655.716 121.47C656.743 119.557 657.256 117.41 657.256 115.03C657.256 112.65 656.743 110.527 655.716 108.66C654.736 106.793 653.36 105.323 651.586 104.25C649.86 103.177 647.9 102.64 645.706 102.64C643.513 102.64 641.53 103.177 639.756 104.25C637.983 105.323 636.606 106.793 635.626 108.66C634.646 110.527 634.156 112.65 634.156 115.03C634.156 117.41 634.646 119.557 635.626 121.47C636.606 123.337 637.96 124.807 639.686 125.88C641.46 126.953 643.466 127.49 645.706 127.49ZM674.331 134V96.13H682.241V134H674.331ZM674.331 90.95V81.85H682.241V90.95H674.331ZM702.829 134.84C700.262 134.84 697.999 134.397 696.039 133.51C694.126 132.577 692.632 131.317 691.559 129.73C690.486 128.097 689.949 126.183 689.949 123.99C689.949 121.937 690.392 120.093 691.279 118.46C692.212 116.827 693.636 115.45 695.549 114.33C697.462 113.21 699.866 112.417 702.759 111.95L715.919 109.78V116.01L704.299 118.04C702.199 118.413 700.659 119.09 699.679 120.07C698.699 121.003 698.209 122.217 698.209 123.71C698.209 125.157 698.746 126.347 699.819 127.28C700.939 128.167 702.362 128.61 704.089 128.61C706.236 128.61 708.102 128.143 709.689 127.21C711.322 126.277 712.582 125.04 713.469 123.5C714.356 121.913 714.799 120.163 714.799 118.25V108.52C714.799 106.653 714.099 105.137 712.699 103.97C711.346 102.757 709.526 102.15 707.239 102.15C705.139 102.15 703.296 102.71 701.709 103.83C700.169 104.903 699.026 106.303 698.279 108.03L691.699 104.74C692.399 102.873 693.542 101.24 695.129 99.84C696.716 98.3933 698.559 97.2733 700.659 96.48C702.806 95.6867 705.069 95.29 707.449 95.29C710.436 95.29 713.072 95.85 715.359 96.97C717.692 98.09 719.489 99.6533 720.749 101.66C722.056 103.62 722.709 105.907 722.709 108.52V134H715.149V127.14L716.759 127.35C715.872 128.89 714.729 130.22 713.329 131.34C711.976 132.46 710.412 133.323 708.639 133.93C706.912 134.537 704.976 134.84 702.829 134.84Z" fill="black"/>
<path d="M98.7807 119.567C99.5234 120.832 100.376 122.015 101.325 123.1C102.123 123.968 102.816 124.7 103.423 125.306C103.956 125.832 104.431 126.425 104.838 127.073C105.207 127.719 105.389 128.474 105.36 129.237C105.36 130.665 104.464 131.808 102.673 132.666C100.51 133.581 98.2013 134.007 95.8852 133.92C93.6149 133.981 91.35 133.65 89.1732 132.937C88.7103 132.823 88.2748 132.601 87.8953 132.287C87.5158 131.974 87.2009 131.575 86.9713 131.118C86.7417 130.661 86.6027 130.155 86.5633 129.635C86.5239 129.114 86.5851 128.59 86.7428 128.097C86.8661 127.59 86.9016 127.061 86.8472 126.539C86.7712 125.776 86.592 125.029 86.3156 124.323C85.8845 123.191 85.3056 122.135 84.5972 121.187C84.3558 120.811 84.0824 120.461 83.7808 120.142L81.9865 117.977L80.1922 115.751L79.1858 114.559V119.242C79.1691 120.118 79.3623 120.984 79.746 121.751C80.1257 122.494 80.5244 123.236 80.9706 123.968C81.4272 124.704 81.8394 125.472 82.2048 126.268C82.5953 127.119 82.7909 128.063 82.7744 129.017C82.7915 129.843 82.5117 130.644 81.996 131.244C81.4004 131.9 80.6715 132.391 79.8694 132.676C78.8543 133.065 77.8038 133.331 76.7365 133.471C74.2134 133.794 71.6647 133.794 69.1416 133.471C68.0744 133.336 67.0238 133.073 66.0087 132.687C65.205 132.404 64.4732 131.917 63.8726 131.265C63.3533 130.666 63.0701 129.866 63.0846 129.038C63.0581 128.099 63.2372 127.167 63.6068 126.32C63.977 125.525 64.3757 124.762 64.7935 124.01C65.2112 123.257 65.6194 122.536 65.9897 121.793C66.3704 121.025 66.5604 120.159 66.5403 119.284V93.4938C66.5513 92.6185 66.3585 91.7547 65.9802 90.9848C65.6099 90.253 65.2017 89.5107 64.784 88.7685C64.3663 88.0262 63.958 87.2735 63.5878 86.4685C63.2009 85.6155 63.0055 84.6726 63.0182 83.7191C63.0036 82.8965 63.2832 82.1005 63.7966 81.5028C64.4043 80.8557 65.1335 80.3633 65.9327 80.0601C66.9439 79.6731 67.9918 79.4136 69.0561 79.2865C70.3156 79.1111 71.584 79.0238 72.8536 79.0252H74.9991C75.8156 79.0252 76.6131 79.0983 77.3536 79.1402C78.246 79.1924 79.1479 79.2238 80.1162 79.2238C82.7934 79.2128 85.4649 79.4965 88.0909 80.0706C90.5994 80.5932 93.018 81.5457 95.2586 82.8932C97.346 84.1506 99.1273 85.9436 100.452 88.1203C101.828 90.5257 102.522 93.3282 102.445 96.17C102.533 99.3268 101.712 102.433 100.1 105.046C98.5342 107.539 96.5053 109.638 94.1478 111.203L97.3282 116.953C98.2016 118.573 98.7333 119.431 98.7807 119.567ZM81.9105 110.775C83.0499 110.797 84.1598 110.375 85.0434 109.583C85.9928 108.707 86.7547 107.611 87.2744 106.373C87.9089 104.9 88.3591 103.338 88.613 101.732C88.9102 99.9418 89.0564 98.1255 89.0497 96.3059C89.0688 94.5668 88.8414 92.8349 88.3757 91.1729C87.9497 89.7092 87.2765 88.3472 86.3915 87.1585C85.5554 86.0203 84.4934 85.1083 83.2871 84.4927C81.9647 83.8323 80.5235 83.5107 79.0719 83.5518V107.743C79.0524 108.269 79.1571 108.791 79.3757 109.259C79.5427 109.627 79.7867 109.946 80.0877 110.189C80.3498 110.415 80.6549 110.572 80.9801 110.649C81.2839 110.736 81.5967 110.778 81.9105 110.775Z" fill="black"/>
<path d="M124.367 119.337C124.359 120.213 124.555 121.077 124.936 121.846C125.316 122.577 125.705 123.309 126.132 124.051C126.56 124.794 126.949 125.546 127.329 126.31C127.718 127.15 127.91 128.084 127.889 129.028C127.889 130.826 126.993 132.056 125.202 132.718C123.018 133.467 120.739 133.82 118.452 133.763C116.154 133.81 113.863 133.457 111.664 132.718C109.87 132.059 108.977 130.836 108.977 129.028C108.949 128.085 109.139 127.15 109.528 126.31C109.901 125.543 110.3 124.79 110.724 124.051C111.142 123.309 111.531 122.577 111.911 121.835C112.289 121.065 112.482 120.201 112.471 119.326V106.917C112.501 106.169 112.3 105.432 111.901 104.826C111.549 104.356 111.168 103.913 110.762 103.498C110.325 103.077 109.925 102.611 109.566 102.108C109.149 101.417 108.949 100.595 108.996 99.7664C109.021 99.2781 109.14 98.8014 109.346 98.3684C109.553 97.9355 109.841 97.5566 110.193 97.2573C111.096 96.3737 112.13 95.6666 113.25 95.1665C115.903 93.9709 118.737 93.3361 121.604 93.2952C121.991 93.2804 122.375 93.3675 122.725 93.5493C123.075 93.7312 123.381 94.0025 123.617 94.3406C124.062 94.8622 124.327 95.5391 124.367 96.2537V119.337ZM118.443 90.2948C117.336 90.3066 116.236 90.1158 115.186 89.7303C114.223 89.381 113.316 88.8659 112.5 88.204C111.77 87.6073 111.162 86.8487 110.715 85.9773C110.288 85.138 110.068 84.1898 110.079 83.2278C110.071 82.2541 110.286 81.294 110.705 80.4365C111.141 79.5473 111.75 78.7759 112.49 78.1784C113.29 77.5116 114.185 76.9958 115.139 76.6521C116.185 76.2649 117.282 76.0672 118.386 76.0667C119.477 76.0637 120.561 76.2579 121.594 76.6417C122.534 76.9864 123.416 77.4984 124.205 78.1575C124.943 78.7601 125.555 79.5302 125.999 80.4156C126.417 81.2741 126.636 82.233 126.636 83.2069C126.646 84.1689 126.427 85.1171 125.999 85.9564C125.568 86.8334 124.973 87.5996 124.253 88.204C123.466 88.8608 122.587 89.3728 121.651 89.7199C120.62 90.1133 119.534 90.3078 118.443 90.2948Z" fill="black"/>
<path d="M169.728 119.263C169.716 120.137 169.912 120.999 170.298 121.762C170.668 122.504 171.067 123.247 171.484 123.978C171.902 124.71 172.31 125.473 172.69 126.247C173.079 127.08 173.272 128.008 173.25 128.944C173.25 130.763 172.355 132 170.564 132.655C168.361 133.368 166.071 133.699 163.776 133.638C161.489 133.705 159.208 133.373 157.016 132.655C155.231 132.007 154.329 130.774 154.329 128.975C154.31 128.032 154.502 127.099 154.89 126.257C155.26 125.505 155.659 124.741 156.076 124.01C156.494 123.278 156.893 122.536 157.272 121.793C157.652 121.024 157.842 120.159 157.823 119.284V107.785C157.916 105.258 157.568 102.734 156.798 100.352C156.55 99.529 156.066 98.8171 155.418 98.3232C154.771 97.8292 153.996 97.58 153.209 97.6129C152.236 97.5816 151.285 97.9296 150.522 98.5956C149.725 99.3319 149.058 100.225 148.557 101.23C148.002 102.321 147.59 103.493 147.333 104.711C147.069 105.892 146.932 107.102 146.924 108.318V119.295C146.911 120.172 147.107 121.037 147.494 121.804C147.855 122.536 148.263 123.278 148.681 124.01C149.098 124.741 149.507 125.505 149.886 126.257C150.275 127.095 150.467 128.025 150.446 128.965C150.446 130.763 149.551 131.997 147.76 132.666C143.323 133.983 138.649 133.983 134.212 132.666C132.428 132.007 131.526 130.784 131.526 128.965C131.508 128.024 131.704 127.094 132.095 126.257C132.456 125.494 132.855 124.731 133.272 123.989C133.69 123.247 134.098 122.515 134.469 121.773C134.848 121.007 135.038 120.146 135.019 119.274V106.907C135.046 106.161 134.849 105.426 134.459 104.816C134.089 104.333 133.686 103.882 133.253 103.467C132.824 103.036 132.427 102.568 132.067 102.066C131.65 101.379 131.449 100.56 131.497 99.7351C131.52 99.2465 131.639 98.7693 131.846 98.3362C132.052 97.9031 132.341 97.5243 132.693 97.2261C133.624 96.3302 134.691 95.6224 135.845 95.1352C137.166 94.5267 138.54 94.0712 139.947 93.7762C141.345 93.4497 142.77 93.2781 144.2 93.2639C144.587 93.2541 144.971 93.3434 145.322 93.5248C145.673 93.7062 145.981 93.9748 146.222 94.3093C146.668 94.8545 146.929 95.5524 146.962 96.2852V97.5919C147.589 96.2429 148.559 95.124 149.753 94.3721C150.918 93.6731 152.225 93.3133 153.551 93.3266C155.831 93.2859 158.107 93.5243 160.339 94.0375C162.16 94.4729 163.882 95.3123 165.399 96.5047C166.81 97.6509 167.907 99.2025 168.57 100.99C169.357 103.183 169.729 105.531 169.662 107.889L169.728 119.263Z" fill="black"/>
<path d="M208.594 119.201C208.591 120.073 208.787 120.932 209.164 121.699C209.534 122.431 209.942 123.173 210.36 123.916C210.777 124.658 211.186 125.4 211.556 126.174C211.944 127.011 212.137 127.942 212.116 128.881C212.116 130.686 211.22 131.92 209.429 132.582C207.231 133.321 204.94 133.674 202.641 133.628C201.657 133.667 200.68 133.441 199.793 132.969C199.119 132.602 198.511 132.102 197.999 131.495C197.447 130.904 197.013 130.192 196.727 129.404C195.973 130.794 194.89 131.933 193.594 132.697C192.265 133.386 190.809 133.723 189.341 133.68C187.089 133.714 184.86 133.192 182.816 132.151C180.772 131.111 178.966 129.579 177.531 127.669C176.095 125.79 175.014 123.615 174.35 121.271C173.618 118.718 173.25 116.055 173.259 113.378C173.238 110.691 173.64 108.021 174.445 105.485C175.169 103.138 176.318 100.977 177.822 99.1328C179.327 97.289 181.156 95.801 183.198 94.7589C185.357 93.6599 187.712 93.1063 190.091 93.1385C190.62 93.1573 191.146 93.2451 191.657 93.3999C192.303 93.5701 192.938 93.7901 193.556 94.0585C194.194 94.3159 194.798 94.6676 195.35 95.1039C195.908 95.5392 196.407 96.0602 196.831 96.6511V82.977C196.869 82.212 196.668 81.4558 196.262 80.8339C195.882 80.3502 195.473 79.8961 195.037 79.4749C194.606 79.0501 194.208 78.5849 193.85 78.0845C193.429 77.3954 193.229 76.5714 193.281 75.7427C193.304 75.2527 193.422 74.7739 193.629 74.3391C193.835 73.9043 194.125 73.5237 194.477 73.2233C195.374 72.3352 196.405 71.6275 197.524 71.1324C200.16 69.9035 202.989 69.2571 205.85 69.2298C206.232 69.2101 206.613 69.2886 206.962 69.4592C207.311 69.6298 207.62 69.8877 207.863 70.2125C208.319 70.7508 208.582 71.4527 208.603 72.1883L208.594 119.201ZM196.755 106.436C196.755 105.276 196.605 104.121 196.309 103.007C196.039 101.992 195.632 101.026 195.103 100.143C194.639 99.372 194.031 98.7197 193.319 98.2297C192.705 97.7904 191.991 97.5513 191.258 97.5397C190.819 97.5533 190.388 97.6737 189.995 97.8924C189.603 98.1111 189.26 98.4226 188.99 98.8047C188.232 99.8097 187.653 100.962 187.281 102.202C186.761 103.828 186.398 105.51 186.198 107.22C185.705 111.321 185.705 115.476 186.198 119.577C186.402 121.286 186.765 122.968 187.281 124.595C187.663 125.832 188.249 126.98 189.008 127.982C189.279 128.366 189.624 128.679 190.018 128.898C190.412 129.117 190.846 129.236 191.287 129.247C191.704 129.231 192.113 129.116 192.487 128.91C192.86 128.705 193.189 128.413 193.452 128.056C194.157 127.173 194.733 126.174 195.16 125.097C195.666 123.852 196.051 122.552 196.309 121.218C196.573 119.925 196.71 118.603 196.717 117.277L196.755 106.436Z" fill="black"/>
<path d="M248.155 125.128C248.342 125.127 248.528 125.095 248.706 125.034C248.936 124.958 249.179 124.933 249.418 124.961C249.533 124.977 249.644 125.022 249.741 125.093C249.838 125.164 249.919 125.258 249.978 125.369C250.162 125.792 250.241 126.261 250.206 126.728C250.223 127.78 250.008 128.82 249.579 129.76C249.169 130.587 248.595 131.301 247.899 131.85C247.177 132.437 246.367 132.879 245.507 133.157C244.579 133.439 243.621 133.58 242.658 133.575C241.375 133.626 240.093 133.449 238.861 133.053C238.065 132.774 237.31 132.369 236.62 131.85C236.054 131.408 235.594 130.819 235.282 130.136C234.108 131.429 232.659 132.377 231.067 132.896C229.502 133.369 227.886 133.604 226.263 133.596C222.82 133.596 220.13 132.767 218.193 131.108C216.295 129.436 215.279 126.853 215.279 123.351C215.252 121.755 215.609 120.179 216.314 118.783C217.006 117.437 217.916 116.243 219 115.26C220.169 114.207 221.443 113.306 222.798 112.573C224.22 111.795 225.678 111.097 227.165 110.482C228.655 109.865 230.098 109.343 231.494 108.872C232.889 108.402 234.124 107.889 235.215 107.429V103.133C235.226 101.714 234.816 100.33 234.048 99.1916C233.686 98.6204 233.198 98.1596 232.63 97.8525C232.062 97.5453 231.433 97.4018 230.801 97.4353C230.351 97.4067 229.905 97.5504 229.54 97.8418C229.175 98.1333 228.913 98.5547 228.798 99.0348C228.425 100.239 228.248 101.506 228.276 102.777C228.32 103.626 228.173 104.474 227.848 105.245C227.543 105.873 227.127 106.427 226.624 106.875C226.137 107.351 225.564 107.708 224.943 107.921C224.363 108.106 223.763 108.205 223.158 108.214C222.549 108.201 221.945 108.092 221.364 107.889C220.679 107.669 220.036 107.315 219.465 106.844C218.786 106.263 218.243 105.513 217.879 104.655C217.516 103.797 217.344 102.856 217.377 101.91C217.368 100.738 217.679 99.5913 218.269 98.6166C218.99 97.5008 219.919 96.5671 220.994 95.8776C222.236 94.993 223.585 94.3034 225 93.8286C226.688 93.3149 228.433 93.0651 230.184 93.0863C232.546 93.0313 234.894 93.5043 237.086 94.4767C239.11 95.3902 240.94 96.7573 242.459 98.4912C243.962 100.268 245.127 102.358 245.886 104.638C246.704 107.113 247.109 109.73 247.082 112.364V122.954C247.101 124.418 247.453 125.128 248.155 125.128ZM235.272 111.758C230.348 113.151 227.889 116.713 227.896 122.442C227.874 123.503 228.002 124.561 228.276 125.578C228.457 126.289 228.782 126.947 229.225 127.502C229.545 127.894 229.936 128.21 230.372 128.43C230.808 128.649 231.28 128.767 231.76 128.777C232.255 128.742 232.736 128.573 233.158 128.285C233.58 127.997 233.932 127.599 234.181 127.125C235.003 125.593 235.38 123.82 235.263 122.044L235.272 111.758Z" fill="black"/>
<path d="M291.702 119.054C291.687 119.927 291.88 120.788 292.263 121.553C292.63 122.292 293.028 123.034 293.459 123.78C293.876 124.511 294.285 125.264 294.655 126.038C295.046 126.874 295.242 127.805 295.225 128.745C295.225 130.554 294.275 131.777 292.538 132.446C288.104 133.756 283.434 133.756 279 132.446C277.209 131.798 276.313 130.571 276.313 128.766C276.284 127.83 276.473 126.901 276.864 126.069C277.234 125.295 277.633 124.543 278.051 123.8C278.468 123.058 278.876 122.326 279.237 121.584C279.625 120.822 279.819 119.959 279.797 119.086V107.586C279.873 105.051 279.515 102.522 278.744 100.132C278.499 99.3034 278.017 98.5842 277.37 98.0828C276.723 97.5813 275.946 97.3247 275.155 97.3514C274.181 97.3137 273.228 97.6624 272.468 98.3341C271.668 99.0636 271.001 99.9541 270.503 100.958C269.954 102.068 269.552 103.257 269.307 104.492C269.046 105.673 268.913 106.883 268.908 108.098V119.075C268.901 119.95 269.094 120.813 269.468 121.584C269.848 122.326 270.247 123.058 270.674 123.79C271.101 124.522 271.49 125.285 271.87 126.038C272.251 126.877 272.44 127.807 272.421 128.745C272.434 129.602 272.178 130.438 271.698 131.111C271.217 131.785 270.54 132.257 269.782 132.446C267.597 133.169 265.321 133.501 263.041 133.429C260.743 133.49 258.45 133.159 256.244 132.446C254.459 131.787 253.557 130.564 253.557 128.756C253.538 127.813 253.73 126.879 254.117 126.038C254.497 125.275 254.886 124.511 255.304 123.78C255.721 123.048 256.13 122.295 256.5 121.553C256.881 120.784 257.071 119.919 257.051 119.044V106.697C257.088 105.95 256.89 105.212 256.49 104.607C256.129 104.119 255.728 103.668 255.294 103.258C254.855 102.805 254.449 102.316 254.079 101.794C253.668 101.101 253.474 100.279 253.528 99.4527C253.548 98.9644 253.664 98.4867 253.869 98.0532C254.074 97.6198 254.363 97.241 254.715 96.9437C255.619 96.0605 256.653 95.3535 257.772 94.8528C259.096 94.2537 260.469 93.7986 261.873 93.4938C263.271 93.1807 264.691 93.0127 266.117 92.992C266.499 92.9706 266.88 93.0484 267.23 93.2191C267.579 93.3898 267.888 93.6486 268.13 93.9747C268.586 94.5145 268.855 95.2141 268.889 95.9505V97.2573C269.516 95.9141 270.487 94.8022 271.68 94.0583C272.874 93.3345 274.22 92.9736 275.582 93.0129C277.863 92.974 280.14 93.2195 282.37 93.7447C284.196 94.145 285.924 94.9682 287.44 96.1596C288.85 97.3002 289.95 98.8439 290.62 100.624C291.399 102.824 291.77 105.173 291.712 107.534L291.702 119.054Z" fill="black"/>
<path d="M328.215 85.4024C328.803 85.372 329.39 85.4802 329.937 85.7201C330.484 85.9599 330.978 86.3256 331.386 86.7928C331.779 87.2038 332.091 87.6983 332.305 88.2464C332.519 88.7946 332.629 89.3848 332.63 89.9814C332.659 91.0228 332.411 92.0511 331.918 92.9399C331.47 93.7239 330.854 94.374 330.123 94.8321C329.337 95.3227 328.479 95.6587 327.589 95.8253C326.647 96.0145 325.696 96.1402 324.74 96.2016C326.672 97.5693 328.295 99.4033 329.487 101.565C330.576 103.53 331.193 105.768 331.281 108.069C331.369 110.369 330.925 112.656 329.99 114.716C329.113 116.607 327.895 118.282 326.411 119.64C324.81 121.106 322.988 122.252 321.028 123.027C318.925 123.864 316.704 124.285 314.468 124.271C311.582 124.271 309.421 124.93 307.984 126.247C306.675 127.323 305.762 128.881 305.411 130.638C305.124 132.153 305.394 133.732 306.161 135.028C306.544 135.682 307.079 136.21 307.71 136.557C308.341 136.905 309.046 137.059 309.75 137.004C310.655 137.046 311.543 136.723 312.247 136.095C312.88 135.462 313.407 134.712 313.804 133.879C314.222 133 314.639 132.028 315.028 130.993C315.409 129.984 315.883 129.021 316.443 128.118C317.003 127.235 317.712 126.479 318.532 125.892C319.55 125.242 320.717 124.93 321.892 124.992C323.336 124.949 324.775 125.182 326.146 125.682C327.237 126.078 328.243 126.719 329.098 127.564C329.817 128.287 330.392 129.167 330.784 130.148C331.176 131.129 331.378 132.19 331.377 133.262C331.379 134.135 331.241 135.003 330.968 135.823C330.703 136.628 330.314 137.378 329.82 138.039C329.294 138.711 328.647 139.256 327.921 139.639C327.157 140.057 326.314 140.268 325.462 140.256C324.864 140.317 324.261 140.236 323.694 140.018C323.127 139.799 322.61 139.449 322.177 138.991C321.494 138.178 320.973 137.216 320.649 136.168C320.326 135.123 320.07 134.171 319.889 133.324C319.709 132.478 319.386 132.049 318.883 132.049C318.38 132.049 318.076 132.53 318.104 133.45C318.133 134.37 318.218 135.541 318.37 136.942C318.522 138.342 318.636 139.9 318.712 141.5C318.802 143.051 318.602 144.606 318.123 146.068C317.64 147.477 316.784 148.694 315.665 149.56C314.103 150.575 312.301 151.052 310.49 150.929C308.459 150.984 306.454 150.404 304.709 149.257C303.068 148.166 301.665 146.692 300.598 144.939C299.516 143.15 298.776 141.137 298.424 139.022C298.054 136.863 298.054 134.647 298.424 132.488C298.803 130.298 299.617 128.228 300.807 126.425C302.117 124.479 303.846 122.923 305.839 121.898C303.498 120.625 301.489 118.719 300 116.357C298.737 114.35 297.983 112.008 297.817 109.573C297.65 107.139 298.076 104.699 299.051 102.505C299.918 100.577 301.14 98.8684 302.639 97.4875C304.221 96.035 306.02 94.896 307.956 94.1212C310.05 93.288 312.261 92.8669 314.487 92.8772C315.212 92.8753 315.935 92.9312 316.652 93.0445C317.345 93.149 318.047 93.2744 318.74 93.4417C319.277 93.5955 319.841 93.5935 320.377 93.4359C320.912 93.2784 321.402 92.9706 321.797 92.5427C322.466 91.6717 323.04 90.7173 323.506 89.6991C324 88.6601 324.575 87.6702 325.225 86.7406C325.592 86.2739 326.055 85.9094 326.574 85.6768C327.094 85.4443 327.656 85.3503 328.215 85.4024ZM314.459 119.995C314.781 119.986 315.098 119.901 315.387 119.746C315.677 119.591 315.934 119.369 316.139 119.096C316.721 118.397 317.176 117.581 317.478 116.692C317.896 115.536 318.199 114.334 318.38 113.106C318.606 111.635 318.714 110.145 318.703 108.653C318.711 107.191 318.599 105.732 318.37 104.293C318.159 103.054 317.841 101.839 317.421 100.666C317.138 99.7684 316.703 98.9384 316.139 98.2193C315.929 97.953 315.671 97.7368 315.382 97.584C315.093 97.4312 314.779 97.345 314.459 97.3307C314.144 97.3405 313.834 97.4261 313.552 97.5814C313.27 97.7366 313.022 97.9579 312.826 98.2297C312.256 98.9489 311.811 99.7783 311.516 100.676C311.11 101.85 310.811 103.065 310.623 104.304C310.174 107.22 310.174 110.2 310.623 113.117C310.802 114.344 311.102 115.546 311.516 116.702C311.821 117.582 312.265 118.396 312.826 119.107C313.022 119.378 313.27 119.599 313.552 119.752C313.834 119.906 314.144 119.989 314.459 119.995Z" fill="black"/>
<path d="M316.69 94.6748C319.614 87.0537 325.234 78.2513 332.829 75.9409C340.168 73.7246 348.769 74.101 355.395 78.2931L354 72.5224C350.81 78.3454 347.487 84.2206 343.12 89.0818C337.946 94.8735 332.459 97.1002 325.206 98.2188C320.335 98.982 322.405 107.094 327.256 106.373C343.661 103.833 352.471 91.7372 360.645 76.7877C361.145 75.8164 361.28 74.669 361.023 73.5894C360.766 72.5097 360.137 71.5831 359.269 71.0065C350.354 65.3613 338.383 64.734 328.661 68.4871C319.367 72.1042 312.902 82.9034 309.266 92.4167C307.367 97.4347 314.772 99.6197 316.671 94.6644L316.69 94.6748Z" fill="black"/>
<path d="M108.408 67.2013C93.9112 55.5344 75.8353 47.3488 57.8448 53.5272C38.7151 60.0925 26.1455 88.8938 4.21516 84.4089L3.19933 92.7723C15.7404 94.1104 25.6328 103.885 37.5094 107.502C48.4658 110.698 60.0411 110.199 70.7372 106.07C75.4175 104.356 72.4555 96.5567 67.7751 98.2607C56.096 102.653 43.3343 101.969 32.098 96.3476C22.7847 91.7373 14.6392 85.4961 4.21516 84.4089C-0.71205 83.8862 -1.66142 91.8 3.19933 92.7723C21.3322 96.494 33.579 81.4608 46.4429 70.1912C64.9081 54.0918 85.8511 59.4861 103.68 73.8502C107.677 77.0805 112.414 70.4317 108.408 67.2013Z" fill="black"/>
<path d="M197.47 56.6428C197.466 55.4414 197.577 54.243 197.802 53.0674C197.992 52.0444 198.295 51.0509 198.704 50.1089C198.996 49.3584 199.43 48.6849 199.976 48.133C200.408 47.6918 200.973 47.4423 201.562 47.4326C202.159 47.4424 202.733 47.6914 203.175 48.133C203.744 48.6727 204.192 49.3487 204.486 50.1089C204.887 51.035 205.187 52.0107 205.378 53.0152C205.607 54.1935 205.719 55.3959 205.71 56.6009C205.721 57.7848 205.613 58.9664 205.387 60.124C205.19 61.12 204.891 62.088 204.495 63.0094C204.181 63.759 203.728 64.4283 203.166 64.9748C202.719 65.4163 202.143 65.6651 201.543 65.6752C200.954 65.6635 200.39 65.4143 199.957 64.9748C199.41 64.4248 198.974 63.7555 198.675 63.0094C198.268 62.0957 197.965 61.1301 197.774 60.1345C197.559 58.9859 197.457 57.8153 197.47 56.6428Z" fill="black"/>
<path d="M189.675 66.0515C189.049 65.4889 188.479 64.8546 187.975 64.1593C187.536 63.5621 187.163 62.9094 186.865 62.2149C186.621 61.6738 186.482 61.0828 186.456 60.4795C186.43 59.994 186.565 59.5145 186.836 59.1309C187.129 58.7565 187.532 58.5084 187.975 58.4304C188.519 58.3323 189.075 58.3608 189.608 58.5141C190.287 58.7068 190.943 58.9839 191.564 59.34C192.275 59.7553 192.947 60.2492 193.567 60.814C194.192 61.378 194.761 62.0122 195.267 62.7062C195.694 63.3008 196.06 63.9459 196.358 64.6298C196.602 65.1776 196.738 65.7762 196.757 66.3861C196.773 66.8766 196.632 67.3577 196.358 67.7451C196.076 68.1194 195.676 68.3622 195.238 68.4246C194.697 68.5191 194.144 68.4871 193.615 68.3306C192.954 68.1481 192.317 67.8778 191.716 67.5256C190.986 67.1233 190.301 66.6286 189.675 66.0515Z" fill="black"/>
<path d="M211.936 66.5637C211.334 66.9082 210.697 67.1715 210.037 67.3477C209.521 67.504 208.981 67.5361 208.452 67.4418C208.026 67.3823 207.635 67.1469 207.36 66.7832C207.087 66.408 206.949 65.9356 206.971 65.4555C206.987 64.8643 207.116 64.2835 207.351 63.7515C207.639 63.0818 207.996 62.4505 208.414 61.8697C208.909 61.1955 209.466 60.5789 210.075 60.0298C210.676 59.4729 211.332 58.9925 212.031 58.5976C212.634 58.2513 213.271 57.9813 213.93 57.7926C214.451 57.6449 214.994 57.6164 215.525 57.709C215.956 57.7717 216.349 58.0132 216.625 58.3842C216.9 58.7552 217.036 59.2278 217.006 59.7057C216.979 60.2909 216.843 60.8638 216.607 61.3888C216.314 62.0671 215.951 62.7056 215.525 63.2915C215.032 63.9682 214.475 64.585 213.863 65.1314C213.276 65.6931 212.629 66.174 211.936 66.5637Z" fill="black"/>
</svg>
