<svg width="563" height="202" viewBox="0 0 563 202" fill="none" xmlns="http://www.w3.org/2000/svg">
<path d="M462 25.25C510.817 25.25 550.384 56.0887 550.384 94.1404C550.384 132.184 510.817 163.022 462.009 163.022C457.149 163.025 452.294 162.716 447.473 162.097L410.373 186.362C406.156 188.592 404.666 188.348 406.4 182.886L413.908 151.929C389.668 139.641 373.634 118.347 373.634 94.1404C373.634 56.0971 413.192 25.25 462.009 25.25M511.734 93.0883L524.107 81.103C524.821 80.3616 525.219 79.372 525.218 78.3427C525.217 77.3134 524.816 76.3248 524.1 75.5851C523.385 74.8454 522.41 74.4123 521.381 74.3772C520.352 74.342 519.35 74.7074 518.586 75.3965L502.358 91.102V78.1235C502.358 77.0699 501.94 76.0594 501.195 75.3144C500.45 74.5694 499.439 74.1508 498.386 74.1508C497.332 74.1508 496.322 74.5694 495.577 75.3144C494.832 76.0594 494.413 77.0699 494.413 78.1235V99.6449C494.264 100.259 494.264 100.899 494.413 101.513V113.625C494.413 114.679 494.832 115.689 495.577 116.434C496.322 117.179 497.332 117.598 498.386 117.598C499.439 117.598 500.45 117.179 501.195 116.434C501.94 115.689 502.358 114.679 502.358 113.625V102.153L505.952 98.677L517.971 115.788C518.271 116.215 518.653 116.579 519.093 116.859C519.534 117.139 520.026 117.329 520.54 117.419C521.054 117.509 521.581 117.497 522.091 117.383C522.6 117.269 523.082 117.056 523.509 116.756C523.937 116.456 524.3 116.075 524.58 115.634C524.86 115.193 525.05 114.702 525.14 114.187C525.23 113.673 525.218 113.146 525.104 112.637C524.99 112.127 524.777 111.645 524.477 111.218L511.734 93.0883ZM486.838 109.282H474.55V78.2498C474.503 77.2289 474.064 76.2654 473.325 75.5596C472.586 74.8537 471.603 74.4599 470.581 74.4599C469.559 74.4599 468.577 74.8537 467.837 75.5596C467.098 76.2654 466.66 77.2289 466.613 78.2498V113.255C466.613 115.443 468.38 117.227 470.577 117.227H486.838C487.892 117.227 488.902 116.809 489.647 116.064C490.392 115.319 490.811 114.308 490.811 113.255C490.811 112.201 490.392 111.191 489.647 110.446C488.902 109.701 487.892 109.282 486.838 109.282ZM437.542 100.099L443.4 85.7238L448.769 100.091L437.542 100.099ZM458.777 104.198L458.794 104.064C458.792 103.063 458.41 102.1 457.725 101.37L448.921 77.8037C448.552 76.6806 447.849 75.6969 446.906 74.984C445.963 74.2712 444.825 73.863 443.644 73.8142C442.454 73.8089 441.291 74.1661 440.309 74.8382C439.327 75.5103 438.573 76.4654 438.148 77.5764L424.159 111.874C423.761 112.85 423.766 113.944 424.174 114.915C424.582 115.887 425.359 116.656 426.335 117.055C427.31 117.453 428.404 117.448 429.376 117.04C430.347 116.632 431.117 115.855 431.515 114.879L434.31 108.036H451.732L454.24 114.77C454.411 115.273 454.682 115.737 455.035 116.134C455.389 116.531 455.819 116.853 456.299 117.08C456.779 117.308 457.3 117.437 457.831 117.46C458.363 117.483 458.893 117.399 459.391 117.213C459.889 117.027 460.344 116.743 460.731 116.378C461.117 116.013 461.426 115.573 461.64 115.087C461.853 114.6 461.967 114.075 461.974 113.544C461.981 113.012 461.881 112.484 461.681 111.992L458.777 104.198ZM430.808 78.2918C430.808 77.2397 430.391 76.2305 429.648 75.4857C428.904 74.7409 427.896 74.3214 426.844 74.3192H399.532C398.478 74.3192 397.468 74.7377 396.723 75.4827C395.978 76.2278 395.559 77.2382 395.559 78.2918C395.559 79.3455 395.978 80.3559 396.723 81.1009C397.468 81.846 398.478 82.2645 399.532 82.2645H409.295V113.709C409.295 114.763 409.714 115.773 410.459 116.518C411.204 117.263 412.214 117.682 413.268 117.682C414.321 117.682 415.332 117.263 416.077 116.518C416.822 115.773 417.241 114.763 417.241 113.709V82.2645H426.836C427.889 82.2645 428.9 81.846 429.645 81.1009C430.39 80.3559 430.808 79.3455 430.808 78.2918Z" fill="#89C97B"/>
<path d="M98.7817 116.134C99.5244 117.399 100.376 118.583 101.326 119.667C102.123 120.535 102.817 121.267 103.424 121.873C103.957 122.399 104.432 122.992 104.839 123.64C105.208 124.286 105.39 125.041 105.361 125.804C105.361 127.233 104.465 128.376 102.674 129.233C100.511 130.148 98.2023 130.575 95.8862 130.488C93.6159 130.549 91.351 130.217 89.1741 129.505C88.7113 129.39 88.2758 129.168 87.8963 128.855C87.5168 128.541 87.2019 128.143 86.9723 127.685C86.7427 127.228 86.6037 126.723 86.5643 126.202C86.5249 125.681 86.5861 125.157 86.7438 124.665C86.8671 124.157 86.9025 123.629 86.8482 123.107C86.7722 122.343 86.593 121.596 86.3165 120.891C85.8855 119.759 85.3066 118.702 84.5982 117.754C84.3568 117.378 84.0834 117.028 83.7817 116.709L81.9874 114.545L80.1931 112.318L79.1868 111.126V115.81C79.1701 116.686 79.3633 117.551 79.7469 118.319C80.1267 119.061 80.5254 119.803 80.9716 120.535C81.4282 121.271 81.8404 122.04 82.2058 122.835C82.5963 123.687 82.7918 124.631 82.7754 125.585C82.7925 126.411 82.5127 127.211 81.9969 127.811C81.4014 128.468 80.6724 128.959 79.8704 129.243C78.8553 129.632 77.8048 129.899 76.7375 130.038C74.2143 130.361 71.6657 130.361 69.1425 130.038C68.0754 129.903 67.0248 129.641 66.0096 129.254C65.206 128.972 64.4742 128.484 63.8736 127.832C63.3543 127.234 63.0711 126.433 63.0856 125.605C63.0591 124.666 63.2382 123.734 63.6077 122.887C63.978 122.093 64.3767 121.33 64.7944 120.577C65.2122 119.824 65.6204 119.103 65.9906 118.361C66.3714 117.592 66.5613 116.727 66.5413 115.852V90.0612C66.5523 89.1859 66.3595 88.322 65.9812 87.5521C65.6109 86.8204 65.2027 86.0781 64.785 85.3359C64.3672 84.5936 63.959 83.8409 63.5888 83.0359C63.2018 82.1828 63.0065 81.2399 63.0191 80.2865C63.0046 79.4639 63.2842 78.6679 63.7976 78.0702C64.4053 77.4231 65.1344 76.9307 65.9337 76.6275C66.9449 76.2405 67.9928 75.981 69.0571 75.8539C70.3166 75.6785 71.585 75.5912 72.8546 75.5925H75.0001C75.8166 75.5925 76.614 75.6657 77.3545 75.7075C78.247 75.7598 79.1488 75.7912 80.1172 75.7912C82.7944 75.7802 85.4659 76.0639 88.0919 76.638C90.6004 77.1606 93.019 78.113 95.2596 79.4606C97.347 80.718 99.1283 82.511 100.453 84.6877C101.829 87.0931 102.523 89.8956 102.446 92.7374C102.534 95.8942 101.713 99.0006 100.101 101.613C98.5352 104.106 96.5063 106.205 94.1488 107.771L97.3292 113.52C98.2026 115.141 98.7342 115.998 98.7817 116.134ZM81.9115 107.342C83.0509 107.365 84.1608 106.943 85.0444 106.15C85.9938 105.274 86.7556 104.179 87.2754 102.941C87.9098 101.467 88.3601 99.9057 88.614 98.2991C88.9112 96.5092 89.0574 94.6929 89.0507 92.8733C89.0698 91.1341 88.8423 89.4023 88.3767 87.7403C87.9506 86.2766 87.2775 84.9146 86.3925 83.7259C85.5564 82.5877 84.4943 81.6757 83.2881 81.0601C81.9656 80.3997 80.5245 80.078 79.0729 80.1192V104.31C79.0534 104.836 79.1581 105.358 79.3767 105.826C79.5436 106.194 79.7877 106.513 80.0887 106.756C80.3508 106.982 80.6559 107.139 80.9811 107.216C81.2848 107.304 81.5977 107.346 81.9115 107.342Z" fill="black"/>
<path d="M124.366 115.904C124.358 116.78 124.554 117.644 124.935 118.413C125.315 119.145 125.704 119.877 126.131 120.619C126.559 121.361 126.948 122.114 127.328 122.877C127.717 123.717 127.909 124.652 127.888 125.595C127.888 127.393 126.992 128.623 125.201 129.285C123.017 130.034 120.738 130.387 118.451 130.331C116.153 130.377 113.862 130.024 111.663 129.285C109.869 128.627 108.976 127.404 108.976 125.595C108.948 124.652 109.138 123.717 109.527 122.877C109.9 122.11 110.299 121.358 110.723 120.619C111.141 119.877 111.53 119.145 111.91 118.403C112.288 117.633 112.481 116.769 112.47 115.894V103.484C112.5 102.737 112.299 102 111.9 101.394C111.548 100.924 111.167 100.48 110.761 100.066C110.324 99.6441 109.924 99.1786 109.565 98.6755C109.148 97.9845 108.948 97.1619 108.995 96.3337C109.02 95.8455 109.139 95.3687 109.345 94.9358C109.552 94.5029 109.84 94.124 110.192 93.8247C111.095 92.9411 112.129 92.234 113.249 91.7339C115.902 90.5383 118.736 89.9035 121.603 89.8626C121.99 89.8478 122.374 89.9349 122.724 90.1167C123.074 90.2986 123.38 90.5699 123.616 90.908C124.061 91.4296 124.326 92.1065 124.366 92.8211V115.904ZM118.442 86.8622C117.335 86.874 116.235 86.6832 115.185 86.2977C114.222 85.9484 113.315 85.4333 112.499 84.7714C111.769 84.1746 111.161 83.4161 110.714 82.5446C110.287 81.7054 110.067 80.7572 110.078 79.7952C110.07 78.8215 110.285 77.8614 110.704 77.0039C111.14 76.1147 111.749 75.3433 112.489 74.7458C113.289 74.079 114.184 73.5632 115.138 73.2195C116.184 72.8323 117.281 72.6346 118.385 72.6341C119.476 72.6311 120.56 72.8253 121.593 73.209C122.533 73.5537 123.415 74.0658 124.204 74.7249C124.942 75.3275 125.554 76.0976 125.999 76.983C126.416 77.8415 126.635 78.8003 126.635 79.7743C126.645 80.7363 126.426 81.6845 125.999 82.5237C125.567 83.4008 124.972 84.167 124.252 84.7714C123.465 85.4282 122.586 85.9401 121.65 86.2872C120.619 86.6807 119.533 86.8752 118.442 86.8622Z" fill="black"/>
<path d="M169.728 115.831C169.716 116.704 169.912 117.566 170.298 118.329C170.668 119.072 171.067 119.814 171.484 120.546C171.902 121.278 172.31 122.041 172.69 122.814C173.079 123.647 173.272 124.575 173.25 125.511C173.25 127.331 172.355 128.568 170.564 129.223C168.361 129.935 166.071 130.267 163.776 130.205C161.489 130.272 159.208 129.94 157.016 129.223C155.231 128.575 154.329 127.341 154.329 125.543C154.31 124.6 154.502 123.666 154.89 122.825C155.26 122.072 155.659 121.309 156.076 120.577C156.494 119.845 156.893 119.103 157.272 118.361C157.652 117.592 157.842 116.727 157.823 115.852V104.352C157.916 101.825 157.568 99.3018 156.798 96.9192C156.55 96.0964 156.066 95.3845 155.418 94.8905C154.771 94.3966 153.996 94.1474 153.209 94.1802C152.236 94.149 151.285 94.497 150.522 95.1629C149.725 95.8993 149.058 96.7926 148.557 97.7974C148.002 98.8886 147.59 100.061 147.333 101.279C147.069 102.459 146.932 103.67 146.924 104.885V115.862C146.911 116.739 147.107 117.604 147.494 118.371C147.855 119.103 148.263 119.845 148.681 120.577C149.098 121.309 149.507 122.072 149.886 122.825C150.275 123.662 150.467 124.593 150.446 125.532C150.446 127.33 149.551 128.564 147.76 129.233C143.323 130.55 138.649 130.55 134.212 129.233C132.428 128.575 131.526 127.351 131.526 125.532C131.508 124.592 131.704 123.661 132.095 122.825C132.456 122.062 132.855 121.298 133.272 120.556C133.69 119.814 134.098 119.082 134.469 118.34C134.848 117.575 135.038 116.713 135.019 115.841V103.474C135.046 102.728 134.849 101.993 134.459 101.383C134.089 100.901 133.686 100.45 133.253 100.035C132.824 99.6037 132.427 99.1352 132.067 98.6337C131.65 97.9466 131.449 97.1273 131.497 96.3024C131.52 95.8139 131.639 95.3367 131.846 94.9036C132.052 94.4704 132.341 94.0917 132.693 93.7934C133.624 92.8976 134.691 92.1898 135.845 91.7026C137.166 91.094 138.54 90.6386 139.947 90.3436C141.345 90.0171 142.77 89.8455 144.2 89.8313C144.587 89.8215 144.971 89.9108 145.322 90.0922C145.673 90.2736 145.981 90.5421 146.222 90.8767C146.668 91.4219 146.929 92.1197 146.962 92.8526V94.1593C147.589 92.8102 148.559 91.6914 149.753 90.9394C150.918 90.2405 152.225 89.8806 153.551 89.894C155.831 89.8532 158.107 90.0917 160.339 90.6049C162.16 91.0402 163.882 91.8797 165.399 93.0721C166.81 94.2182 167.907 95.7699 168.57 97.5569C169.357 99.7508 169.729 102.099 169.662 104.457L169.728 115.831Z" fill="black"/>
<path d="M208.595 115.768C208.592 116.64 208.788 117.499 209.164 118.267C209.535 118.999 209.943 119.741 210.361 120.483C210.778 121.225 211.187 121.968 211.557 122.741C211.945 123.578 212.138 124.509 212.117 125.449C212.117 127.254 211.221 128.487 209.43 129.15C207.232 129.888 204.941 130.241 202.642 130.195C201.658 130.234 200.681 130.008 199.794 129.536C199.12 129.169 198.512 128.67 198 128.062C197.448 127.471 197.014 126.759 196.728 125.972C195.974 127.362 194.891 128.5 193.595 129.265C192.266 129.954 190.81 130.29 189.342 130.247C187.09 130.281 184.861 129.759 182.817 128.719C180.773 127.679 178.967 126.147 177.532 124.236C176.096 122.357 175.015 120.182 174.351 117.838C173.619 115.285 173.251 112.623 173.26 109.945C173.239 107.259 173.641 104.588 174.446 102.052C175.17 99.705 176.319 97.5439 177.823 95.7002C179.328 93.8564 181.157 92.3684 183.199 91.3263C185.358 90.2273 187.713 89.6737 190.092 89.7059C190.621 89.7247 191.147 89.8124 191.658 89.9673C192.304 90.1375 192.939 90.3575 193.557 90.6259C194.195 90.8833 194.799 91.235 195.351 91.6713C195.909 92.1066 196.408 92.6276 196.832 93.2185V79.5444C196.87 78.7794 196.669 78.0231 196.263 77.4013C195.883 76.9176 195.474 76.4635 195.038 76.0423C194.607 75.6175 194.209 75.1523 193.851 74.6519C193.43 73.9628 193.23 73.1388 193.282 72.3101C193.305 71.8201 193.423 71.3413 193.63 70.9065C193.836 70.4716 194.125 70.091 194.478 69.7907C195.375 68.9026 196.406 68.1949 197.525 67.6998C200.161 66.4709 202.989 65.8244 205.851 65.7972C206.233 65.7775 206.614 65.856 206.963 66.0266C207.312 66.1972 207.621 66.4551 207.864 66.7799C208.32 67.3182 208.583 68.0201 208.604 68.7557L208.595 115.768ZM196.756 103.004C196.756 101.843 196.606 100.689 196.31 99.5747C196.039 98.5592 195.633 97.5939 195.104 96.7102C194.64 95.9394 194.032 95.287 193.32 94.7971C192.706 94.3578 191.992 94.1186 191.259 94.1071C190.82 94.1207 190.389 94.2411 189.996 94.4598C189.604 94.6785 189.261 94.99 188.99 95.3721C188.233 96.3771 187.654 97.5295 187.282 98.7697C186.762 100.396 186.399 102.078 186.199 103.788C185.706 107.889 185.706 112.044 186.199 116.145C186.403 117.854 186.766 119.535 187.282 121.163C187.664 122.399 188.249 123.547 189.009 124.55C189.28 124.934 189.625 125.246 190.019 125.465C190.413 125.684 190.847 125.803 191.288 125.815C191.705 125.798 192.114 125.683 192.488 125.478C192.861 125.272 193.19 124.981 193.452 124.623C194.158 123.74 194.734 122.742 195.161 121.664C195.667 120.42 196.052 119.12 196.31 117.786C196.574 116.492 196.711 115.171 196.718 113.845L196.756 103.004Z" fill="black"/>
<path d="M248.154 121.696C248.341 121.694 248.527 121.663 248.705 121.602C248.935 121.525 249.178 121.5 249.417 121.529C249.532 121.545 249.643 121.59 249.74 121.661C249.837 121.731 249.918 121.826 249.977 121.936C250.161 122.359 250.24 122.828 250.205 123.295C250.222 124.347 250.007 125.387 249.578 126.327C249.168 127.154 248.594 127.869 247.898 128.418C247.176 129.004 246.366 129.446 245.506 129.725C244.578 130.007 243.62 130.147 242.657 130.143C241.374 130.193 240.092 130.017 238.86 129.62C238.064 129.341 237.309 128.936 236.619 128.418C236.053 127.975 235.593 127.387 235.281 126.703C234.107 127.996 232.658 128.945 231.066 129.463C229.501 129.936 227.885 130.172 226.262 130.164C222.819 130.164 220.129 129.334 218.192 127.676C216.294 126.003 215.278 123.421 215.278 119.919C215.251 118.322 215.608 116.746 216.313 115.35C217.005 114.005 217.915 112.81 218.999 111.827C220.168 110.775 221.442 109.873 222.797 109.14C224.219 108.362 225.677 107.664 227.164 107.05C228.654 106.433 230.097 105.91 231.493 105.44C232.888 104.969 234.123 104.457 235.214 103.997V99.7002C235.225 98.2815 234.815 96.8976 234.047 95.759C233.685 95.1878 233.197 94.727 232.629 94.4199C232.061 94.1127 231.432 93.9692 230.8 94.0027C230.35 93.9741 229.904 94.1177 229.539 94.4092C229.174 94.7007 228.912 95.1221 228.797 95.6022C228.424 96.8062 228.247 98.0731 228.275 99.3448C228.319 100.193 228.172 101.041 227.847 101.812C227.542 102.44 227.126 102.995 226.623 103.443C226.136 103.919 225.563 104.275 224.942 104.488C224.362 104.674 223.762 104.772 223.157 104.781C222.548 104.768 221.944 104.659 221.363 104.457C220.678 104.237 220.035 103.883 219.464 103.411C218.785 102.831 218.242 102.08 217.879 101.222C217.515 100.364 217.343 99.4231 217.376 98.4771C217.367 97.3058 217.678 96.1587 218.268 95.184C218.989 94.0682 219.918 93.1345 220.993 92.445C222.235 91.5604 223.584 90.8708 224.999 90.396C226.687 89.8823 228.432 89.6324 230.183 89.6537C232.545 89.5987 234.893 90.0717 237.085 91.0441C239.109 91.9576 240.939 93.3246 242.458 95.0585C243.961 96.8354 245.126 98.9255 245.885 101.206C246.703 103.681 247.108 106.298 247.081 108.931V119.521C247.1 120.985 247.452 121.696 248.154 121.696ZM235.271 108.325C230.347 109.719 227.888 113.28 227.895 119.009C227.873 120.07 228.001 121.128 228.275 122.145C228.457 122.857 228.781 123.514 229.224 124.069C229.544 124.462 229.935 124.778 230.371 124.997C230.807 125.216 231.279 125.335 231.759 125.344C232.255 125.31 232.735 125.141 233.157 124.853C233.579 124.564 233.931 124.166 234.18 123.693C235.002 122.16 235.379 120.387 235.262 118.612L235.271 108.325Z" fill="black"/>
<path d="M291.702 115.622C291.687 116.494 291.88 117.356 292.263 118.12C292.63 118.859 293.028 119.601 293.459 120.347C293.876 121.079 294.285 121.831 294.655 122.605C295.046 123.442 295.242 124.372 295.225 125.313C295.225 127.121 294.275 128.344 292.538 129.013C288.104 130.324 283.434 130.324 279 129.013C277.209 128.365 276.313 127.139 276.313 125.334C276.284 124.397 276.473 123.469 276.864 122.636C277.234 121.863 277.633 121.11 278.051 120.368C278.468 119.626 278.876 118.894 279.237 118.152C279.625 117.39 279.819 116.526 279.797 115.653V104.153C279.873 101.618 279.515 99.0898 278.744 96.6996C278.499 95.8708 278.017 95.1516 277.37 94.6502C276.723 94.1487 275.946 93.8921 275.155 93.9188C274.181 93.8811 273.228 94.2298 272.468 94.9015C271.668 95.631 271.001 96.5215 270.503 97.5255C269.954 98.635 269.552 99.8247 269.307 101.059C269.046 102.24 268.913 103.45 268.908 104.666V115.643C268.901 116.517 269.094 117.38 269.468 118.152C269.848 118.894 270.247 119.626 270.674 120.357C271.101 121.089 271.49 121.852 271.87 122.605C272.251 123.445 272.44 124.374 272.421 125.313C272.434 126.169 272.178 127.005 271.698 127.679C271.217 128.353 270.54 128.824 269.782 129.013C267.597 129.736 265.321 130.068 263.041 129.996C260.743 130.058 258.45 129.726 256.244 129.013C254.459 128.355 253.557 127.132 253.557 125.323C253.538 124.38 253.73 123.447 254.117 122.605C254.497 121.842 254.886 121.079 255.304 120.347C255.721 119.615 256.13 118.862 256.5 118.12C256.881 117.352 257.071 116.486 257.051 115.611V103.265C257.088 102.518 256.89 101.779 256.49 101.174C256.129 100.687 255.728 100.235 255.294 99.8254C254.855 99.3728 254.449 98.8835 254.079 98.3618C253.668 97.6686 253.474 96.8459 253.528 96.0201C253.548 95.5318 253.664 95.0541 253.869 94.6206C254.074 94.1872 254.363 93.8084 254.715 93.511C255.619 92.6279 256.653 91.9208 257.772 91.4202C259.096 90.8211 260.469 90.3659 261.873 90.0612C263.271 89.7481 264.691 89.5801 266.117 89.5594C266.499 89.538 266.88 89.6158 267.23 89.7865C267.579 89.9572 267.888 90.216 268.13 90.5421C268.586 91.0819 268.855 91.7814 268.889 92.5179V93.8247C269.516 92.4815 270.487 91.3696 271.68 90.6257C272.874 89.9019 274.22 89.541 275.582 89.5803C277.863 89.5413 280.14 89.7868 282.37 90.3121C284.196 90.7124 285.924 91.5355 287.44 92.727C288.85 93.8676 289.95 95.4113 290.62 97.1909C291.399 99.3911 291.77 101.741 291.712 104.101L291.702 115.622Z" fill="black"/>
<path d="M328.214 81.9698C328.802 81.9393 329.389 82.0476 329.936 82.2874C330.483 82.5272 330.977 82.893 331.385 83.3602C331.778 83.7711 332.091 84.2657 332.304 84.8138C332.518 85.3619 332.628 85.9522 332.629 86.5488C332.658 87.5902 332.41 88.6184 331.917 89.5073C331.469 90.2913 330.853 90.9413 330.122 91.3995C329.336 91.89 328.478 92.2261 327.588 92.3926C326.646 92.5819 325.695 92.7076 324.739 92.769C326.671 94.1366 328.294 95.9707 329.486 98.132C330.575 100.098 331.192 102.336 331.28 104.636C331.368 106.937 330.924 109.224 329.989 111.283C329.112 113.175 327.894 114.85 326.41 116.207C324.809 117.673 322.987 118.82 321.027 119.594C318.924 120.431 316.704 120.852 314.467 120.839C311.581 120.839 309.42 121.497 307.983 122.814C306.674 123.89 305.761 125.449 305.41 127.205C305.124 128.72 305.393 130.299 306.16 131.596C306.543 132.249 307.078 132.777 307.709 133.124C308.34 133.472 309.045 133.627 309.749 133.572C310.654 133.613 311.542 133.29 312.246 132.662C312.879 132.029 313.406 131.279 313.803 130.446C314.221 129.568 314.638 128.596 315.027 127.561C315.408 126.551 315.882 125.588 316.442 124.686C317.002 123.802 317.711 123.046 318.531 122.459C319.549 121.809 320.716 121.497 321.891 121.56C323.335 121.516 324.774 121.749 326.145 122.25C327.236 122.645 328.242 123.286 329.097 124.132C329.816 124.854 330.391 125.734 330.783 126.715C331.175 127.696 331.377 128.757 331.376 129.829C331.378 130.703 331.24 131.57 330.967 132.39C330.702 133.196 330.313 133.945 329.819 134.607C329.293 135.279 328.646 135.823 327.92 136.206C327.156 136.624 326.314 136.835 325.461 136.823C324.863 136.885 324.26 136.803 323.693 136.585C323.126 136.367 322.609 136.016 322.176 135.558C321.493 134.745 320.973 133.784 320.648 132.735C320.325 131.69 320.069 130.739 319.888 129.892C319.708 129.045 319.385 128.616 318.882 128.616C318.379 128.616 318.075 129.097 318.103 130.017C318.132 130.937 318.217 132.108 318.369 133.509C318.521 134.91 318.635 136.468 318.711 138.067C318.801 139.618 318.601 141.173 318.122 142.636C317.639 144.045 316.783 145.261 315.664 146.127C314.102 147.143 312.3 147.62 310.49 147.497C308.458 147.551 306.453 146.971 304.708 145.824C303.067 144.734 301.664 143.26 300.597 141.506C299.515 139.717 298.775 137.704 298.423 135.589C298.053 133.431 298.053 131.214 298.423 129.056C298.802 126.866 299.616 124.795 300.806 122.992C302.116 121.046 303.845 119.49 305.838 118.465C303.497 117.193 301.488 115.286 299.999 112.925C298.736 110.917 297.983 108.576 297.816 106.141C297.649 103.706 298.075 101.266 299.05 99.0729C299.917 97.1446 301.139 95.4358 302.638 94.0549C304.22 92.6024 306.019 91.4634 307.955 90.6886C310.049 89.8554 312.26 89.4343 314.486 89.4446C315.211 89.4427 315.934 89.4986 316.651 89.6118C317.344 89.7164 318.046 89.8418 318.739 90.0091C319.276 90.1629 319.84 90.1609 320.376 90.0033C320.911 89.8457 321.401 89.538 321.796 89.11C322.465 88.2391 323.039 87.2847 323.505 86.2665C323.999 85.2275 324.574 84.2376 325.224 83.308C325.591 82.8412 326.054 82.4768 326.573 82.2442C327.093 82.0117 327.655 81.9176 328.214 81.9698ZM314.458 116.563C314.78 116.553 315.097 116.468 315.386 116.313C315.676 116.158 315.933 115.937 316.138 115.664C316.72 114.964 317.175 114.148 317.477 113.259C317.895 112.104 318.198 110.901 318.379 109.673C318.605 108.202 318.713 106.712 318.702 105.22C318.71 103.759 318.598 102.3 318.369 100.861C318.158 99.6209 317.84 98.4062 317.42 97.2329C317.137 96.3358 316.702 95.5057 316.138 94.7867C315.928 94.5204 315.67 94.3042 315.381 94.1514C315.092 93.9986 314.778 93.9124 314.458 93.8981C314.143 93.9079 313.833 93.9934 313.551 94.1487C313.269 94.304 313.021 94.5253 312.825 94.7971C312.255 95.5162 311.81 96.3457 311.515 97.2434C311.109 98.4171 310.81 99.6323 310.622 100.871C310.173 103.788 310.173 106.767 310.622 109.684C310.801 110.911 311.101 112.113 311.515 113.27C311.82 114.149 312.264 114.963 312.825 115.674C313.021 115.946 313.269 116.166 313.551 116.32C313.833 116.473 314.143 116.556 314.458 116.563Z" fill="black"/>
<path d="M316.689 91.2422C319.613 83.6211 325.233 74.8187 332.828 72.5083C340.167 70.292 348.768 70.6684 355.394 74.8605L353.999 69.0898C350.809 74.9128 347.486 80.788 343.119 85.6492C337.945 91.4409 332.458 93.6676 325.205 94.7862C320.334 95.5494 322.404 103.662 327.255 102.94C343.66 100.4 352.47 88.3046 360.644 73.3551C361.144 72.3838 361.279 71.2363 361.022 70.1567C360.765 69.0771 360.136 68.1505 359.268 67.5739C350.353 61.9287 338.382 61.3014 328.66 65.0545C319.366 68.6716 312.901 79.4708 309.265 88.9841C307.366 94.0021 314.771 96.1871 316.67 91.2318L316.689 91.2422Z" fill="black"/>
<path d="M108.408 63.7687C93.9112 52.1018 75.8353 43.9162 57.8448 50.0946C38.7151 56.6598 26.1455 85.4611 4.21516 80.9763L3.19933 89.3396C15.7404 90.6778 25.6328 100.452 37.5094 104.07C48.4658 107.265 60.0411 106.766 70.7372 102.637C75.4175 100.923 72.4555 93.1241 67.7751 94.8281C56.096 99.2208 43.3343 98.5365 32.098 92.915C22.7847 88.3047 14.6392 82.0635 4.21516 80.9763C-0.71205 80.4536 -1.66142 88.3674 3.19933 89.3396C21.3322 93.0613 33.579 78.0282 46.4429 66.7586C64.9081 50.6591 85.8511 56.0535 103.68 70.4176C107.677 73.6479 112.414 66.999 108.408 63.7687Z" fill="black"/>
<path d="M197.47 53.2101C197.466 52.0088 197.577 50.8104 197.802 49.6348C197.992 48.6118 198.295 47.6182 198.704 46.6763C198.996 45.9258 199.43 45.2523 199.976 44.7004C200.408 44.2592 200.973 44.0097 201.562 44C202.159 44.0098 202.733 44.2588 203.175 44.7004C203.744 45.2401 204.192 45.916 204.486 46.6763C204.887 47.6024 205.187 48.5781 205.378 49.5825C205.607 50.7609 205.719 51.9633 205.71 53.1683C205.721 54.3522 205.613 55.5338 205.387 56.6914C205.19 57.6874 204.891 58.6554 204.495 59.5767C204.181 60.3264 203.728 60.9957 203.166 61.5421C202.719 61.9837 202.143 62.2324 201.543 62.2426C200.954 62.2309 200.39 61.9817 199.957 61.5421C199.41 60.9922 198.974 60.3229 198.675 59.5767C198.268 58.6631 197.965 57.6975 197.774 56.7018C197.559 55.5533 197.457 54.3827 197.47 53.2101Z" fill="black"/>
<path d="M189.674 62.6189C189.048 62.0563 188.478 61.422 187.974 60.7267C187.535 60.1295 187.162 59.4767 186.864 58.7822C186.62 58.2412 186.481 57.6502 186.455 57.0468C186.429 56.5614 186.564 56.0819 186.835 55.6983C187.128 55.3239 187.532 55.0758 187.974 54.9978C188.518 54.8997 189.074 54.9282 189.607 55.0815C190.286 55.2742 190.942 55.5513 191.563 55.9073C192.274 56.3227 192.946 56.8166 193.566 57.3814C194.191 57.9454 194.76 58.5796 195.266 59.2736C195.693 59.8682 196.059 60.5133 196.357 61.1972C196.602 61.745 196.737 62.3436 196.756 62.9535C196.772 63.444 196.631 63.9251 196.357 64.3125C196.075 64.6868 195.675 64.9296 195.237 64.992C194.696 65.0865 194.143 65.0545 193.614 64.8979C192.953 64.7155 192.316 64.4452 191.715 64.093C190.985 63.6907 190.3 63.196 189.674 62.6189Z" fill="black"/>
<path d="M211.936 63.1311C211.334 63.4756 210.697 63.7388 210.037 63.9151C209.521 64.0714 208.981 64.1035 208.452 64.0092C208.026 63.9496 207.635 63.7143 207.36 63.3506C207.087 62.9753 206.949 62.503 206.971 62.0229C206.987 61.4317 207.116 60.8509 207.351 60.3189C207.639 59.6492 207.996 59.0179 208.414 58.4371C208.909 57.7629 209.466 57.1463 210.075 56.5972C210.676 56.0403 211.332 55.5599 212.031 55.165C212.634 54.8187 213.271 54.5487 213.93 54.36C214.451 54.2122 214.994 54.1838 215.525 54.2764C215.956 54.3391 216.349 54.5805 216.625 54.9516C216.9 55.3226 217.036 55.7952 217.006 56.2731C216.979 56.8583 216.843 57.4312 216.607 57.9562C216.314 58.6345 215.951 59.273 215.525 59.8589C215.032 60.5356 214.475 61.1524 213.863 61.6988C213.276 62.2605 212.629 62.7414 211.936 63.1311Z" fill="black"/>
</svg>
