<svg id="svg64" width="837.882" height="268.741" version="1.1" xmlns="http://www.w3.org/2000/svg"><defs id="defs4"><style id="style2">.cls-1{fill:#0375e5}</style></defs><g id="g2914"><g id="text1916" aria-label="RADIO REPUBLIK INDONESIA" style="font-weight:700;font-size:67.5203px;line-height:1.25;font-family:Gilroy;-inkscape-font-specification:'Gilroy Bold';word-spacing:0;fill:#022567;fill-opacity:1;stroke-width:1.688" transform="matrix(.98433 0 0 .9939 -356.956 -.806)"><g id="g3962"><g id="g3836" transform="matrix(1.0095 0 0 1 -8.08 0)"><g id="g4037"><g id="g6967" transform="translate(-.979)"><g id="g899"><g id="g4474" transform="matrix(1.00635 0 0 1.00614 368.29 .811)"><g id="Layer_2" data-name="Layer 2"><g id="Layer_1-2" data-name="Layer 1"><path id="rect6" d="M0 82.57h74.89v186.17H0Z" class="cls-1"/><path id="path8" d="M157.47 82.56v76.29H81.19a76.29 76.29 0 0 1 76.28-76.29z" class="cls-1"/><path id="rect10" d="M187.32 82.57h74.89v186.17h-74.89z" class="cls-1"/><path id="path12" d="M449 82.57a74.88 74.88 0 0 0-74.89 74.88v111.29H449Z" class="cls-1"/><path id="rect14" d="M374.14 0h74.89v74.89h-74.89z" class="cls-1"/><path id="path16" d="M354 120.71a42 42 0 1 1-42-41.95 41.8 41.8 0 0 1 42 41.95z" class="cls-1"/></g></g></g></g></g></g></g></g></g><g aria-label="RADIO REPUBLIK INDONESIA" transform="matrix(1.05064 0 0 1.05308 -63.153 -186.425)" id="text1218" style="font-weight:700;font-size:59.9839px;line-height:1.25;font-family:'Plus Jakarta Sans';-inkscape-font-specification:'Plus Jakarta Sans Bold';word-spacing:0;fill:#022567;stroke-width:1.4996"><g id="g2790" transform="translate(-396.87 208.977)"><g id="g2752" transform="matrix(.99846 0 0 1 1.42 8.786)"><path d="M922.824 81.18h8.158V64.685h7.678l9.237 16.495h9.238l-10.258-17.935q3.72-1.56 5.879-4.799 2.22-3.239 2.22-7.858 0-4.558-1.98-7.678-1.98-3.119-5.519-4.738-3.479-1.68-8.038-1.68h-16.615zm8.158-23.694V43.69h8.577q3.3 0 5.279 1.86 1.98 1.86 1.98 5.038 0 3.12-1.98 5.039-1.98 1.86-5.279 1.86z" id="path2674"/><path d="M958.814 81.18h8.818l3.239-9.597h17.275l3.18 9.597h8.877l-15.416-44.688H974.23zm14.396-16.795 6.299-18.835 6.298 18.835z" id="path2676"/><path d="M1005.182 81.18h14.576q7.078 0 12.296-2.88 5.279-2.878 8.158-7.917 2.88-5.039 2.88-11.577 0-6.598-2.88-11.577-2.879-5.038-8.098-7.858-5.218-2.879-12.356-2.879h-14.576zm8.157-7.198V43.69h6.599q4.558 0 7.858 1.86 3.359 1.86 5.218 5.278 1.86 3.36 1.86 7.978 0 4.619-1.86 8.038-1.8 3.419-5.159 5.279-3.359 1.859-7.917 1.859z" id="path2678"/><path d="M1049.57 81.18h8.158V36.492h-8.158z" id="path2680"/><path d="M1088.32 81.9q4.978 0 9.237-1.74t7.438-4.858q3.179-3.12 4.919-7.318 1.799-4.26 1.799-9.178 0-4.979-1.8-9.177-1.74-4.2-4.918-7.258-3.18-3.12-7.438-4.86-4.26-1.739-9.238-1.739t-9.237 1.74q-4.26 1.74-7.438 4.859-3.12 3.059-4.919 7.258-1.74 4.198-1.74 9.177 0 4.919 1.74 9.178 1.8 4.199 4.979 7.318 3.179 3.119 7.438 4.858 4.259 1.74 9.177 1.74zm0-7.438q-4.32 0-7.799-2.04-3.419-2.039-5.398-5.578-1.98-3.54-1.98-8.038 0-4.499 1.98-7.978 1.98-3.539 5.398-5.578 3.48-2.04 7.798-2.04 4.38 0 7.798 2.04 3.42 2.04 5.399 5.578 1.98 3.48 1.98 7.978 0 4.499-1.98 8.038-1.98 3.539-5.399 5.578-3.419 2.04-7.798 2.04z" id="path2682"/></g><g id="g2745" transform="matrix(1.01344 0 0 1 -12.405 -.547)"><path d="M922.824 156.16h8.158v-16.496h7.678l9.237 16.496h9.238l-10.258-17.935q3.72-1.56 5.879-4.799 2.22-3.24 2.22-7.858 0-4.559-1.98-7.678-1.98-3.119-5.519-4.738-3.479-1.68-8.038-1.68h-16.615zm8.158-23.694V118.67h8.577q3.3 0 5.279 1.86 1.98 1.859 1.98 5.038 0 3.12-1.98 5.039-1.98 1.86-5.279 1.86z" id="path2684"/><path d="M962.473 156.16h29.692v-7.198h-21.534v-11.637h20.334v-7.198h-20.334V118.67h21.534v-7.198h-29.692Z" id="path2686"/><path d="M998.163 156.16h8.158v-16.496h8.518q4.559 0 8.038-1.62 3.479-1.679 5.458-4.858 2.04-3.179 2.04-7.618 0-4.559-1.98-7.678-1.98-3.119-5.518-4.738-3.48-1.68-8.038-1.68h-16.676zm8.158-23.694V118.67h8.638q3.3 0 5.279 1.86 1.979 1.859 1.979 5.038 0 3.12-1.98 5.039-1.979 1.86-5.278 1.86z" id="path2688"/><path d="M1054.248 156.88q5.159 0 9.118-2.16 4.019-2.159 6.298-5.938 2.28-3.779 2.28-8.578v-28.732h-8.158v28.312q0 2.82-1.26 5.039-1.2 2.16-3.359 3.42-2.1 1.199-4.919 1.199-2.759 0-4.918-1.2-2.16-1.26-3.42-3.419-1.2-2.22-1.2-5.039v-28.312h-8.157v28.732q0 4.799 2.28 8.578 2.279 3.779 6.238 5.938 4.019 2.16 9.177 2.16z" id="path2690"/><path d="M1080.101 156.16h18.835q7.498 0 11.697-3.6 4.259-3.658 4.259-10.076 0-3.06-1.2-5.759-1.2-2.7-4.199-4.619 1.86-1.68 2.7-3.719.9-2.039.9-4.318 0-5.879-3.78-9.238-3.779-3.359-10.377-3.359h-18.835zm8.158-27.353V118.43h11.097q2.52 0 4.02 1.38 1.499 1.38 1.499 3.719 0 2.34-1.5 3.839-1.5 1.44-4.019 1.44zm0 20.155v-13.017h11.517q3.18 0 5.039 1.8 1.92 1.74 1.92 4.739 0 2.939-1.92 4.738-1.86 1.74-5.039 1.74z" id="path2692"/><path d="M1121.55 156.16h27.293v-7.198h-19.135v-37.49h-8.158z" id="path2694"/><path d="M1154.121 156.16h8.158v-44.688h-8.158z" id="path2696"/><path d="M1170.857 156.16h8.158v-12.537l5.998-7.138 11.997 19.675h9.597l-16.015-26.333 15.475-18.355h-10.257l-16.795 19.855v-19.855h-8.158z" id="path2698"/></g><g id="g2763" transform="translate(0 -8.625)"><path d="M922.824 231.14h8.158v-44.688h-8.158z" id="path2700"/><path d="M939.56 231.14h8.157v-29.212l21.234 29.212h6.419v-44.688h-8.158v28.672l-21.294-28.672h-6.359z" id="path2702"/><path d="M984.007 231.14h14.576q7.079 0 12.297-2.88 5.279-2.879 8.158-7.917 2.88-5.039 2.88-11.577 0-6.598-2.88-11.577-2.88-5.039-8.098-7.858-5.219-2.88-12.357-2.88h-14.576zm8.158-7.198V193.65h6.598q4.56 0 7.858 1.86 3.36 1.859 5.219 5.278 1.86 3.36 1.86 7.978 0 4.619-1.86 8.038-1.8 3.419-5.159 5.278-3.359 1.86-7.918 1.86z" id="path2704"/><path d="M1050.41 231.86q4.978 0 9.237-1.74t7.438-4.859q3.18-3.119 4.919-7.318 1.8-4.258 1.8-9.177 0-4.979-1.8-9.178-1.74-4.199-4.919-7.258-3.18-3.119-7.438-4.858-4.259-1.74-9.238-1.74-4.978 0-9.237 1.74t-7.438 4.858q-3.12 3.06-4.919 7.258-1.74 4.2-1.74 9.178 0 4.919 1.74 9.177 1.8 4.2 4.979 7.318 3.179 3.12 7.438 4.86 4.259 1.739 9.177 1.739zm0-7.438q-4.32 0-7.799-2.04-3.419-2.04-5.398-5.578-1.98-3.54-1.98-8.038 0-4.499 1.98-7.978 1.98-3.539 5.399-5.578 3.479-2.04 7.797-2.04 4.38 0 7.798 2.04 3.42 2.039 5.399 5.578 1.98 3.48 1.98 7.978 0 4.499-1.98 8.038-1.98 3.539-5.399 5.578-3.419 2.04-7.798 2.04z" id="path2706"/><path d="M1081.061 231.14h8.158v-29.212l21.234 29.212h6.418v-44.688h-8.157v28.672l-21.295-28.672h-6.358z" id="path2708"/><path d="M1125.51 231.14h29.691v-7.198h-21.534v-11.637h20.335v-7.198h-20.335V193.65h21.534v-7.198h-29.692z" id="path2710"/><path d="M1177.155 231.86q4.619 0 8.098-1.68 3.48-1.68 5.459-4.619 1.979-2.939 1.979-6.778 0-8.937-10.677-12.357l-8.218-2.579q-2.4-.78-3.659-2.16-1.2-1.439-1.2-3.298 0-2.46 1.86-3.96 1.92-1.559 5.039-1.559 3.479 0 6.118 1.86 2.64 1.8 3.959 5.158l6.718-2.999q-1.8-5.039-6.298-8.098-4.44-3.059-10.497-3.059-4.38 0-7.798 1.68-3.36 1.62-5.279 4.558-1.86 2.94-1.86 6.779 0 4.378 2.64 7.617 2.64 3.18 7.858 4.86l8.578 2.758q2.339.78 3.479 2.04 1.2 1.26 1.2 3.239 0 2.46-1.98 3.959-1.92 1.5-5.099 1.5-3.839 0-6.898-2.16-3.06-2.22-4.679-6.058l-6.778 2.939q1.2 3.719 3.779 6.538 2.64 2.76 6.238 4.32 3.66 1.559 7.918 1.559z" id="path2712"/><path d="M1200.01 231.14h8.157v-44.688h-8.158z" id="path2714"/><path d="M1213.085 231.14h8.818l3.24-9.598h17.275l3.179 9.598h8.877l-15.415-44.688H1228.5zm14.397-16.796 6.298-18.835 6.298 18.835z" id="path2716"/></g></g></g></g></svg>